<svg viewBox="-20 -134.9 287.5 225.60000000000002" xmlns="http://www.w3.org/2000/svg">
	<path d="M 0 0 L 48.0 0.0 M 48.0 0.0 L 69.8 10.1 M 69.8 10.1 L 77.5 19.3 M 77.5 19.3 L 79.1 25.1 M 79.1 25.1 L 78.6 28.1 M 78.6 28.1 M 78.6 28.1 M 78.6 28.1 L 78.1 31.1 M 78.1 31.1 L 78.9 34.0 M 78.1 31.1 M 79.1 25.1 L 79.9 28.0 M 79.9 28.0 M 79.9 28.0 M 79.9 28.0 L 80.7 30.9 M 80.7 30.9 L 82.6 33.2 M 80.7 30.9 M 79.1 25.1 L 80.7 30.9 M 80.7 30.9 L 86.5 37.8 M 86.5 37.8 M 86.5 37.8 M 86.5 37.8 L 88.4 40.1 M 88.4 40.1 L 91.1 41.4 M 88.4 40.1 M 80.7 30.9 L 80.2 33.9 M 80.2 33.9 M 80.2 33.9 M 80.2 33.9 L 79.7 36.9 M 79.7 36.9 L 80.5 39.8 M 79.7 36.9 M 77.5 19.3 L 81.4 23.9 M 81.4 23.9 L 82.2 26.8 M 82.2 26.8 M 82.2 26.8 M 82.2 26.8 L 83.0 29.7 M 83.0 29.7 L 84.9 32.0 M 83.0 29.7 M 81.4 23.9 L 83.3 26.2 M 83.3 26.2 M 83.3 26.2 M 83.3 26.2 L 85.2 28.5 M 85.2 28.5 L 87.9 29.8 M 85.2 28.5 M 81.4 23.9 L 85.3 28.5 M 85.3 28.5 L 93.5 32.3 M 93.5 32.3 M 93.5 32.3 M 93.5 32.3 L 96.2 33.6 M 96.2 33.6 L 99.2 33.6 M 96.2 33.6 M 85.3 28.5 L 86.1 31.4 M 86.1 31.4 M 86.1 31.4 M 86.1 31.4 L 86.9 34.3 M 86.9 34.3 L 88.8 36.6 M 86.9 34.3 M 77.5 19.3 L 85.2 28.5 M 85.2 28.5 L 101.5 36.1 M 101.5 36.1 L 103.4 38.4 M 103.4 38.4 M 103.4 38.4 M 103.4 38.4 L 105.3 40.7 M 105.3 40.7 L 108.0 42.0 M 105.3 40.7 M 101.5 36.1 L 104.2 37.4 M 104.2 37.4 M 104.2 37.4 M 104.2 37.4 L 106.9 38.7 M 106.9 38.7 L 109.9 38.7 M 106.9 38.7 M 101.5 36.1 L 106.9 38.6 M 106.9 38.6 L 115.9 38.6 M 115.9 38.6 M 115.9 38.6 M 115.9 38.6 L 118.9 38.6 M 118.9 38.6 L 121.6 37.3 M 118.9 38.6 M 106.9 38.6 L 108.8 40.9 M 108.8 40.9 M 108.8 40.9 M 108.8 40.9 L 110.7 43.2 M 110.7 43.2 L 113.4 44.5 M 110.7 43.2 M 85.2 28.5 L 86.8 34.3 M 86.8 34.3 L 86.3 37.3 M 86.3 37.3 M 86.3 37.3 M 86.3 37.3 L 85.8 40.3 M 85.8 40.3 L 86.6 43.2 M 85.8 40.3 M 86.8 34.3 L 87.6 37.2 M 87.6 37.2 M 87.6 37.2 M 87.6 37.2 L 88.4 40.1 M 88.4 40.1 L 90.3 42.4 M 88.4 40.1 M 86.8 34.3 L 88.4 40.1 M 88.4 40.1 L 94.2 47.0 M 94.2 47.0 M 94.2 47.0 M 94.2 47.0 L 96.1 49.3 M 96.1 49.3 L 98.8 50.6 M 96.1 49.3 M 88.4 40.1 L 87.9 43.1 M 87.9 43.1 M 87.9 43.1 M 87.9 43.1 L 87.4 46.1 M 87.4 46.1 L 88.2 49.0 M 87.4 46.1 M 69.8 10.1 L 80.7 15.2 M 80.7 15.2 L 84.6 19.8 M 84.6 19.8 L 85.4 22.7 M 85.4 22.7 M 85.4 22.7 M 85.4 22.7 L 86.2 25.6 M 86.2 25.6 L 88.1 27.9 M 86.2 25.6 M 84.6 19.8 L 86.5 22.1 M 86.5 22.1 M 86.5 22.1 M 86.5 22.1 L 88.4 24.4 M 88.4 24.4 L 91.1 25.7 M 88.4 24.4 M 84.6 19.8 L 88.5 24.4 M 88.5 24.4 L 96.7 28.2 M 96.7 28.2 M 96.7 28.2 M 96.7 28.2 L 99.4 29.5 M 99.4 29.5 L 102.4 29.5 M 99.4 29.5 M 88.5 24.4 L 89.3 27.3 M 89.3 27.3 M 89.3 27.3 M 89.3 27.3 L 90.1 30.2 M 90.1 30.2 L 92.0 32.5 M 90.1 30.2 M 80.7 15.2 L 86.1 17.7 M 86.1 17.7 L 88.0 20.0 M 88.0 20.0 M 88.0 20.0 M 88.0 20.0 L 89.9 22.3 M 89.9 22.3 L 92.6 23.6 M 89.9 22.3 M 86.1 17.7 L 88.8 19.0 M 88.8 19.0 M 88.8 19.0 M 88.8 19.0 L 91.5 20.3 M 91.5 20.3 L 94.5 20.3 M 91.5 20.3 M 86.1 17.7 L 91.5 20.2 M 91.5 20.2 L 100.5 20.2 M 100.5 20.2 M 100.5 20.2 M 100.5 20.2 L 103.5 20.2 M 103.5 20.2 L 106.2 18.9 M 103.5 20.2 M 91.5 20.2 L 93.4 22.5 M 93.4 22.5 M 93.4 22.5 M 93.4 22.5 L 95.3 24.8 M 95.3 24.8 L 98.0 26.1 M 95.3 24.8 M 80.7 15.2 L 91.6 20.3 M 91.6 20.3 L 109.6 20.3 M 109.6 20.3 L 112.3 21.6 M 112.3 21.6 M 112.3 21.6 M 112.3 21.6 L 115.0 22.9 M 115.0 22.9 L 118.0 22.9 M 115.0 22.9 M 109.6 20.3 L 112.6 20.3 M 112.6 20.3 M 112.6 20.3 M 112.6 20.3 L 115.6 20.3 M 115.6 20.3 L 118.3 19.0 M 115.6 20.3 M 109.6 20.3 L 115.6 20.3 M 115.6 20.3 L 123.8 16.5 M 123.8 16.5 M 123.8 16.5 M 123.8 16.5 L 126.5 15.2 M 126.5 15.2 L 128.4 12.9 M 126.5 15.2 M 115.6 20.3 L 118.3 21.6 M 118.3 21.6 M 118.3 21.6 M 118.3 21.6 L 121.0 22.9 M 121.0 22.9 L 124.0 22.9 M 121.0 22.9 M 91.6 20.3 L 95.5 24.9 M 95.5 24.9 L 96.3 27.8 M 96.3 27.8 M 96.3 27.8 M 96.3 27.8 L 97.1 30.7 M 97.1 30.7 L 99.0 33.0 M 97.1 30.7 M 95.5 24.9 L 97.4 27.2 M 97.4 27.2 M 97.4 27.2 M 97.4 27.2 L 99.3 29.5 M 99.3 29.5 L 102.0 30.8 M 99.3 29.5 M 95.5 24.9 L 99.4 29.5 M 99.4 29.5 L 107.6 33.3 M 107.6 33.3 M 107.6 33.3 M 107.6 33.3 L 110.3 34.6 M 110.3 34.6 L 113.3 34.6 M 110.3 34.6 M 99.4 29.5 L 100.2 32.4 M 100.2 32.4 M 100.2 32.4 M 100.2 32.4 L 101.0 35.3 M 101.0 35.3 L 102.9 37.6 M 101.0 35.3 M 69.8 10.1 L 91.6 20.2 M 91.6 20.2 L 127.6 20.2 M 127.6 20.2 L 133.0 22.7 M 133.0 22.7 L 134.9 25.0 M 134.9 25.0 M 134.9 25.0 M 134.9 25.0 L 136.8 27.3 M 136.8 27.3 L 139.5 28.6 M 136.8 27.3 M 133.0 22.7 L 135.7 24.0 M 135.7 24.0 M 135.7 24.0 M 135.7 24.0 L 138.4 25.3 M 138.4 25.3 L 141.4 25.3 M 138.4 25.3 M 133.0 22.7 L 138.4 25.2 M 138.4 25.2 L 147.4 25.2 M 147.4 25.2 M 147.4 25.2 M 147.4 25.2 L 150.4 25.2 M 150.4 25.2 L 153.1 23.9 M 150.4 25.2 M 138.4 25.2 L 140.3 27.5 M 140.3 27.5 M 140.3 27.5 M 140.3 27.5 L 142.2 29.8 M 142.2 29.8 L 144.9 31.1 M 142.2 29.8 M 127.6 20.2 L 133.6 20.2 M 133.6 20.2 L 136.3 21.5 M 136.3 21.5 M 136.3 21.5 M 136.3 21.5 L 139.0 22.8 M 139.0 22.8 L 142.0 22.8 M 139.0 22.8 M 133.6 20.2 L 136.6 20.2 M 136.6 20.2 M 136.6 20.2 M 136.6 20.2 L 139.6 20.2 M 139.6 20.2 L 142.3 18.9 M 139.6 20.2 M 133.6 20.2 L 139.6 20.2 M 139.6 20.2 L 147.8 16.4 M 147.8 16.4 M 147.8 16.4 M 147.8 16.4 L 150.5 15.1 M 150.5 15.1 L 152.4 12.8 M 150.5 15.1 M 139.6 20.2 L 142.3 21.5 M 142.3 21.5 M 142.3 21.5 M 142.3 21.5 L 145.0 22.8 M 145.0 22.8 L 148.0 22.8 M 145.0 22.8 M 127.6 20.2 L 139.6 20.2 M 139.6 20.2 L 155.9 12.6 M 155.9 12.6 L 158.9 12.6 M 158.9 12.6 M 158.9 12.6 M 158.9 12.6 L 161.9 12.6 M 161.9 12.6 L 164.6 11.3 M 161.9 12.6 M 155.9 12.6 L 158.6 11.3 M 158.6 11.3 M 158.6 11.3 M 158.6 11.3 L 161.3 10.0 M 161.3 10.0 L 163.2 7.7 M 161.3 10.0 M 155.9 12.6 L 161.3 10.1 M 161.3 10.1 L 167.1 3.2 M 167.1 3.2 M 167.1 3.2 M 167.1 3.2 L 169.0 0.9 M 169.0 0.9 L 169.8 -2.0 M 169.0 0.9 M 161.3 10.1 L 164.3 10.1 M 164.3 10.1 M 164.3 10.1 M 164.3 10.1 L 167.3 10.1 M 167.3 10.1 L 170.0 8.8 M 167.3 10.1 M 139.6 20.2 L 145.0 22.7 M 145.0 22.7 L 146.9 25.0 M 146.9 25.0 M 146.9 25.0 M 146.9 25.0 L 148.8 27.3 M 148.8 27.3 L 151.5 28.6 M 148.8 27.3 M 145.0 22.7 L 147.7 24.0 M 147.7 24.0 M 147.7 24.0 M 147.7 24.0 L 150.4 25.3 M 150.4 25.3 L 153.4 25.3 M 150.4 25.3 M 145.0 22.7 L 150.4 25.2 M 150.4 25.2 L 159.4 25.2 M 159.4 25.2 M 159.4 25.2 M 159.4 25.2 L 162.4 25.2 M 162.4 25.2 L 165.1 23.9 M 162.4 25.2 M 150.4 25.2 L 152.3 27.5 M 152.3 27.5 M 152.3 27.5 M 152.3 27.5 L 154.2 29.8 M 154.2 29.8 L 156.9 31.1 M 154.2 29.8 M 91.6 20.2 L 99.3 29.4 M 99.3 29.4 L 100.9 35.2 M 100.9 35.2 L 100.4 38.2 M 100.4 38.2 M 100.4 38.2 M 100.4 38.2 L 99.9 41.2 M 99.9 41.2 L 100.7 44.1 M 99.9 41.2 M 100.9 35.2 L 101.7 38.1 M 101.7 38.1 M 101.7 38.1 M 101.7 38.1 L 102.5 41.0 M 102.5 41.0 L 104.4 43.3 M 102.5 41.0 M 100.9 35.2 L 102.5 41.0 M 102.5 41.0 L 108.3 47.9 M 108.3 47.9 M 108.3 47.9 M 108.3 47.9 L 110.2 50.2 M 110.2 50.2 L 112.9 51.5 M 110.2 50.2 M 102.5 41.0 L 102.0 44.0 M 102.0 44.0 M 102.0 44.0 M 102.0 44.0 L 101.5 47.0 M 101.5 47.0 L 102.3 49.9 M 101.5 47.0 M 99.3 29.4 L 103.2 34.0 M 103.2 34.0 L 104.0 36.9 M 104.0 36.9 M 104.0 36.9 M 104.0 36.9 L 104.8 39.8 M 104.8 39.8 L 106.7 42.1 M 104.8 39.8 M 103.2 34.0 L 105.1 36.3 M 105.1 36.3 M 105.1 36.3 M 105.1 36.3 L 107.0 38.6 M 107.0 38.6 L 109.7 39.9 M 107.0 38.6 M 103.2 34.0 L 107.1 38.6 M 107.1 38.6 L 115.3 42.4 M 115.3 42.4 M 115.3 42.4 M 115.3 42.4 L 118.0 43.7 M 118.0 43.7 L 121.0 43.7 M 118.0 43.7 M 107.1 38.6 L 107.9 41.5 M 107.9 41.5 M 107.9 41.5 M 107.9 41.5 L 108.7 44.4 M 108.7 44.4 L 110.6 46.7 M 108.7 44.4 M 99.3 29.4 L 107.0 38.6 M 107.0 38.6 L 123.3 46.2 M 123.3 46.2 L 125.2 48.5 M 125.2 48.5 M 125.2 48.5 M 125.2 48.5 L 127.1 50.8 M 127.1 50.8 L 129.8 52.1 M 127.1 50.8 M 123.3 46.2 L 126.0 47.5 M 126.0 47.5 M 126.0 47.5 M 126.0 47.5 L 128.7 48.8 M 128.7 48.8 L 131.7 48.8 M 128.7 48.8 M 123.3 46.2 L 128.7 48.7 M 128.7 48.7 L 137.7 48.7 M 137.7 48.7 M 137.7 48.7 M 137.7 48.7 L 140.7 48.7 M 140.7 48.7 L 143.4 47.4 M 140.7 48.7 M 128.7 48.7 L 130.6 51.0 M 130.6 51.0 M 130.6 51.0 M 130.6 51.0 L 132.5 53.3 M 132.5 53.3 L 135.2 54.6 M 132.5 53.3 M 107.0 38.6 L 108.6 44.4 M 108.6 44.4 L 108.1 47.4 M 108.1 47.4 M 108.1 47.4 M 108.1 47.4 L 107.6 50.4 M 107.6 50.4 L 108.4 53.3 M 107.6 50.4 M 108.6 44.4 L 109.4 47.3 M 109.4 47.3 M 109.4 47.3 M 109.4 47.3 L 110.2 50.2 M 110.2 50.2 L 112.1 52.5 M 110.2 50.2 M 108.6 44.4 L 110.2 50.2 M 110.2 50.2 L 116.0 57.1 M 116.0 57.1 M 116.0 57.1 M 116.0 57.1 L 117.9 59.4 M 117.9 59.4 L 120.6 60.7 M 117.9 59.4 M 110.2 50.2 L 109.7 53.2 M 109.7 53.2 M 109.7 53.2 M 109.7 53.2 L 109.2 56.2 M 109.2 56.2 L 110.0 59.1 M 109.2 56.2 M 48.0 0.0 L 72.0 0.0 M 72.0 0.0 L 82.9 5.1 M 82.9 5.1 L 86.8 9.7 M 86.8 9.7 L 87.6 12.6 M 87.6 12.6 M 87.6 12.6 M 87.6 12.6 L 88.4 15.5 M 88.4 15.5 L 90.3 17.8 M 88.4 15.5 M 86.8 9.7 L 88.7 12.0 M 88.7 12.0 M 88.7 12.0 M 88.7 12.0 L 90.6 14.3 M 90.6 14.3 L 93.3 15.6 M 90.6 14.3 M 86.8 9.7 L 90.7 14.3 M 90.7 14.3 L 98.9 18.1 M 98.9 18.1 M 98.9 18.1 M 98.9 18.1 L 101.6 19.4 M 101.6 19.4 L 104.6 19.4 M 101.6 19.4 M 90.7 14.3 L 91.5 17.2 M 91.5 17.2 M 91.5 17.2 M 91.5 17.2 L 92.3 20.1 M 92.3 20.1 L 94.2 22.4 M 92.3 20.1 M 82.9 5.1 L 88.3 7.6 M 88.3 7.6 L 90.2 9.9 M 90.2 9.9 M 90.2 9.9 M 90.2 9.9 L 92.1 12.2 M 92.1 12.2 L 94.8 13.5 M 92.1 12.2 M 88.3 7.6 L 91.0 8.9 M 91.0 8.9 M 91.0 8.9 M 91.0 8.9 L 93.7 10.2 M 93.7 10.2 L 96.7 10.2 M 93.7 10.2 M 88.3 7.6 L 93.7 10.1 M 93.7 10.1 L 102.7 10.1 M 102.7 10.1 M 102.7 10.1 M 102.7 10.1 L 105.7 10.1 M 105.7 10.1 L 108.4 8.8 M 105.7 10.1 M 93.7 10.1 L 95.6 12.4 M 95.6 12.4 M 95.6 12.4 M 95.6 12.4 L 97.5 14.7 M 97.5 14.7 L 100.2 16.0 M 97.5 14.7 M 82.9 5.1 L 93.8 10.2 M 93.8 10.2 L 111.8 10.2 M 111.8 10.2 L 114.5 11.5 M 114.5 11.5 M 114.5 11.5 M 114.5 11.5 L 117.2 12.8 M 117.2 12.8 L 120.2 12.8 M 117.2 12.8 M 111.8 10.2 L 114.8 10.2 M 114.8 10.2 M 114.8 10.2 M 114.8 10.2 L 117.8 10.2 M 117.8 10.2 L 120.5 8.9 M 117.8 10.2 M 111.8 10.2 L 117.8 10.2 M 117.8 10.2 L 126.0 6.4 M 126.0 6.4 M 126.0 6.4 M 126.0 6.4 L 128.7 5.1 M 128.7 5.1 L 130.6 2.8 M 128.7 5.1 M 117.8 10.2 L 120.5 11.5 M 120.5 11.5 M 120.5 11.5 M 120.5 11.5 L 123.2 12.8 M 123.2 12.8 L 126.2 12.8 M 123.2 12.8 M 93.8 10.2 L 97.7 14.8 M 97.7 14.8 L 98.5 17.7 M 98.5 17.7 M 98.5 17.7 M 98.5 17.7 L 99.3 20.6 M 99.3 20.6 L 101.2 22.9 M 99.3 20.6 M 97.7 14.8 L 99.6 17.1 M 99.6 17.1 M 99.6 17.1 M 99.6 17.1 L 101.5 19.4 M 101.5 19.4 L 104.2 20.7 M 101.5 19.4 M 97.7 14.8 L 101.6 19.4 M 101.6 19.4 L 109.8 23.2 M 109.8 23.2 M 109.8 23.2 M 109.8 23.2 L 112.5 24.5 M 112.5 24.5 L 115.5 24.5 M 112.5 24.5 M 101.6 19.4 L 102.4 22.3 M 102.4 22.3 M 102.4 22.3 M 102.4 22.3 L 103.2 25.2 M 103.2 25.2 L 105.1 27.5 M 103.2 25.2 M 72.0 0.0 L 84.0 0.0 M 84.0 0.0 L 89.4 2.5 M 89.4 2.5 L 91.3 4.8 M 91.3 4.8 M 91.3 4.8 M 91.3 4.8 L 93.2 7.1 M 93.2 7.1 L 95.9 8.4 M 93.2 7.1 M 89.4 2.5 L 92.1 3.8 M 92.1 3.8 M 92.1 3.8 M 92.1 3.8 L 94.8 5.1 M 94.8 5.1 L 97.8 5.1 M 94.8 5.1 M 89.4 2.5 L 94.8 5.0 M 94.8 5.0 L 103.8 5.0 M 103.8 5.0 M 103.8 5.0 M 103.8 5.0 L 106.8 5.0 M 106.8 5.0 L 109.5 3.7 M 106.8 5.0 M 94.8 5.0 L 96.7 7.3 M 96.7 7.3 M 96.7 7.3 M 96.7 7.3 L 98.6 9.6 M 98.6 9.6 L 101.3 10.9 M 98.6 9.6 M 84.0 0.0 L 90.0 0.0 M 90.0 0.0 L 92.7 1.3 M 92.7 1.3 M 92.7 1.3 M 92.7 1.3 L 95.4 2.6 M 95.4 2.6 L 98.4 2.6 M 95.4 2.6 M 90.0 0.0 L 93.0 0.0 M 93.0 0.0 M 93.0 0.0 M 93.0 0.0 L 96.0 0.0 M 96.0 0.0 L 98.7 -1.3 M 96.0 0.0 M 90.0 0.0 L 96.0 0.0 M 96.0 0.0 L 104.2 -3.8 M 104.2 -3.8 M 104.2 -3.8 M 104.2 -3.8 L 106.9 -5.1 M 106.9 -5.1 L 108.8 -7.4 M 106.9 -5.1 M 96.0 0.0 L 98.7 1.3 M 98.7 1.3 M 98.7 1.3 M 98.7 1.3 L 101.4 2.6 M 101.4 2.6 L 104.4 2.6 M 101.4 2.6 M 84.0 0.0 L 96.0 0.0 M 96.0 0.0 L 112.3 -7.6 M 112.3 -7.6 L 115.3 -7.6 M 115.3 -7.6 M 115.3 -7.6 M 115.3 -7.6 L 118.3 -7.6 M 118.3 -7.6 L 121.0 -8.9 M 118.3 -7.6 M 112.3 -7.6 L 115.0 -8.9 M 115.0 -8.9 M 115.0 -8.9 M 115.0 -8.9 L 117.7 -10.2 M 117.7 -10.2 L 119.6 -12.5 M 117.7 -10.2 M 112.3 -7.6 L 117.7 -10.1 M 117.7 -10.1 L 123.5 -17.0 M 123.5 -17.0 M 123.5 -17.0 M 123.5 -17.0 L 125.4 -19.3 M 125.4 -19.3 L 126.2 -22.2 M 125.4 -19.3 M 117.7 -10.1 L 120.7 -10.1 M 120.7 -10.1 M 120.7 -10.1 M 120.7 -10.1 L 123.7 -10.1 M 123.7 -10.1 L 126.4 -11.4 M 123.7 -10.1 M 96.0 0.0 L 101.4 2.5 M 101.4 2.5 L 103.3 4.8 M 103.3 4.8 M 103.3 4.8 M 103.3 4.8 L 105.2 7.1 M 105.2 7.1 L 107.9 8.4 M 105.2 7.1 M 101.4 2.5 L 104.1 3.8 M 104.1 3.8 M 104.1 3.8 M 104.1 3.8 L 106.8 5.1 M 106.8 5.1 L 109.8 5.1 M 106.8 5.1 M 101.4 2.5 L 106.8 5.0 M 106.8 5.0 L 115.8 5.0 M 115.8 5.0 M 115.8 5.0 M 115.8 5.0 L 118.8 5.0 M 118.8 5.0 L 121.5 3.7 M 118.8 5.0 M 106.8 5.0 L 108.7 7.3 M 108.7 7.3 M 108.7 7.3 M 108.7 7.3 L 110.6 9.6 M 110.6 9.6 L 113.3 10.9 M 110.6 9.6 M 72.0 0.0 L 96.0 0.0 M 96.0 0.0 L 128.6 -15.2 M 128.6 -15.2 L 134.6 -15.2 M 134.6 -15.2 L 137.3 -13.9 M 137.3 -13.9 M 137.3 -13.9 M 137.3 -13.9 L 140.0 -12.6 M 140.0 -12.6 L 143.0 -12.6 M 140.0 -12.6 M 134.6 -15.2 L 137.6 -15.2 M 137.6 -15.2 M 137.6 -15.2 M 137.6 -15.2 L 140.6 -15.2 M 140.6 -15.2 L 143.3 -16.5 M 140.6 -15.2 M 134.6 -15.2 L 140.6 -15.2 M 140.6 -15.2 L 148.8 -19.0 M 148.8 -19.0 M 148.8 -19.0 M 148.8 -19.0 L 151.5 -20.3 M 151.5 -20.3 L 153.4 -22.6 M 151.5 -20.3 M 140.6 -15.2 L 143.3 -13.9 M 143.3 -13.9 M 143.3 -13.9 M 143.3 -13.9 L 146.0 -12.6 M 146.0 -12.6 L 149.0 -12.6 M 146.0 -12.6 M 128.6 -15.2 L 134.0 -17.7 M 134.0 -17.7 L 137.0 -17.7 M 137.0 -17.7 M 137.0 -17.7 M 137.0 -17.7 L 140.0 -17.7 M 140.0 -17.7 L 142.7 -19.0 M 140.0 -17.7 M 134.0 -17.7 L 136.7 -19.0 M 136.7 -19.0 M 136.7 -19.0 M 136.7 -19.0 L 139.4 -20.3 M 139.4 -20.3 L 141.3 -22.6 M 139.4 -20.3 M 134.0 -17.7 L 139.4 -20.2 M 139.4 -20.2 L 145.2 -27.1 M 145.2 -27.1 M 145.2 -27.1 M 145.2 -27.1 L 147.1 -29.4 M 147.1 -29.4 L 147.9 -32.3 M 147.1 -29.4 M 139.4 -20.2 L 142.4 -20.2 M 142.4 -20.2 M 142.4 -20.2 M 142.4 -20.2 L 145.4 -20.2 M 145.4 -20.2 L 148.1 -21.5 M 145.4 -20.2 M 128.6 -15.2 L 139.5 -20.3 M 139.5 -20.3 L 151.1 -34.1 M 151.1 -34.1 L 153.8 -35.4 M 153.8 -35.4 M 153.8 -35.4 M 153.8 -35.4 L 156.5 -36.7 M 156.5 -36.7 L 158.4 -39.0 M 156.5 -36.7 M 151.1 -34.1 L 153.0 -36.4 M 153.0 -36.4 M 153.0 -36.4 M 153.0 -36.4 L 154.9 -38.7 M 154.9 -38.7 L 155.7 -41.6 M 154.9 -38.7 M 151.1 -34.1 L 155.0 -38.7 M 155.0 -38.7 L 157.3 -47.4 M 157.3 -47.4 M 157.3 -47.4 M 157.3 -47.4 L 158.1 -50.3 M 158.1 -50.3 L 157.6 -53.3 M 158.1 -50.3 M 155.0 -38.7 L 157.7 -40.0 M 157.7 -40.0 M 157.7 -40.0 M 157.7 -40.0 L 160.4 -41.3 M 160.4 -41.3 L 162.3 -43.6 M 160.4 -41.3 M 139.5 -20.3 L 145.5 -20.3 M 145.5 -20.3 L 148.2 -19.0 M 148.2 -19.0 M 148.2 -19.0 M 148.2 -19.0 L 150.9 -17.7 M 150.9 -17.7 L 153.9 -17.7 M 150.9 -17.7 M 145.5 -20.3 L 148.5 -20.3 M 148.5 -20.3 M 148.5 -20.3 M 148.5 -20.3 L 151.5 -20.3 M 151.5 -20.3 L 154.2 -21.6 M 151.5 -20.3 M 145.5 -20.3 L 151.5 -20.3 M 151.5 -20.3 L 159.7 -24.1 M 159.7 -24.1 M 159.7 -24.1 M 159.7 -24.1 L 162.4 -25.4 M 162.4 -25.4 L 164.3 -27.7 M 162.4 -25.4 M 151.5 -20.3 L 154.2 -19.0 M 154.2 -19.0 M 154.2 -19.0 M 154.2 -19.0 L 156.9 -17.7 M 156.9 -17.7 L 159.9 -17.7 M 156.9 -17.7 M 96.0 0.0 L 106.9 5.1 M 106.9 5.1 L 110.8 9.7 M 110.8 9.7 L 111.6 12.6 M 111.6 12.6 M 111.6 12.6 M 111.6 12.6 L 112.4 15.5 M 112.4 15.5 L 114.3 17.8 M 112.4 15.5 M 110.8 9.7 L 112.7 12.0 M 112.7 12.0 M 112.7 12.0 M 112.7 12.0 L 114.6 14.3 M 114.6 14.3 L 117.3 15.6 M 114.6 14.3 M 110.8 9.7 L 114.7 14.3 M 114.7 14.3 L 122.9 18.1 M 122.9 18.1 M 122.9 18.1 M 122.9 18.1 L 125.6 19.4 M 125.6 19.4 L 128.6 19.4 M 125.6 19.4 M 114.7 14.3 L 115.5 17.2 M 115.5 17.2 M 115.5 17.2 M 115.5 17.2 L 116.3 20.1 M 116.3 20.1 L 118.2 22.4 M 116.3 20.1 M 106.9 5.1 L 112.3 7.6 M 112.3 7.6 L 114.2 9.9 M 114.2 9.9 M 114.2 9.9 M 114.2 9.9 L 116.1 12.2 M 116.1 12.2 L 118.8 13.5 M 116.1 12.2 M 112.3 7.6 L 115.0 8.9 M 115.0 8.9 M 115.0 8.9 M 115.0 8.9 L 117.7 10.2 M 117.7 10.2 L 120.7 10.2 M 117.7 10.2 M 112.3 7.6 L 117.7 10.1 M 117.7 10.1 L 126.7 10.1 M 126.7 10.1 M 126.7 10.1 M 126.7 10.1 L 129.7 10.1 M 129.7 10.1 L 132.4 8.8 M 129.7 10.1 M 117.7 10.1 L 119.6 12.4 M 119.6 12.4 M 119.6 12.4 M 119.6 12.4 L 121.5 14.7 M 121.5 14.7 L 124.2 16.0 M 121.5 14.7 M 106.9 5.1 L 117.8 10.2 M 117.8 10.2 L 135.8 10.2 M 135.8 10.2 L 138.5 11.5 M 138.5 11.5 M 138.5 11.5 M 138.5 11.5 L 141.2 12.8 M 141.2 12.8 L 144.2 12.8 M 141.2 12.8 M 135.8 10.2 L 138.8 10.2 M 138.8 10.2 M 138.8 10.2 M 138.8 10.2 L 141.8 10.2 M 141.8 10.2 L 144.5 8.9 M 141.8 10.2 M 135.8 10.2 L 141.8 10.2 M 141.8 10.2 L 150.0 6.4 M 150.0 6.4 M 150.0 6.4 M 150.0 6.4 L 152.7 5.1 M 152.7 5.1 L 154.6 2.8 M 152.7 5.1 M 141.8 10.2 L 144.5 11.5 M 144.5 11.5 M 144.5 11.5 M 144.5 11.5 L 147.2 12.8 M 147.2 12.8 L 150.2 12.8 M 147.2 12.8 M 117.8 10.2 L 121.7 14.8 M 121.7 14.8 L 122.5 17.7 M 122.5 17.7 M 122.5 17.7 M 122.5 17.7 L 123.3 20.6 M 123.3 20.6 L 125.2 22.9 M 123.3 20.6 M 121.7 14.8 L 123.6 17.1 M 123.6 17.1 M 123.6 17.1 M 123.6 17.1 L 125.5 19.4 M 125.5 19.4 L 128.2 20.7 M 125.5 19.4 M 121.7 14.8 L 125.6 19.4 M 125.6 19.4 L 133.8 23.2 M 133.8 23.2 M 133.8 23.2 M 133.8 23.2 L 136.5 24.5 M 136.5 24.5 L 139.5 24.5 M 136.5 24.5 M 125.6 19.4 L 126.4 22.3 M 126.4 22.3 M 126.4 22.3 M 126.4 22.3 L 127.2 25.2 M 127.2 25.2 L 129.1 27.5 M 127.2 25.2 M 48.0 0.0 L 96.0 0.0 M 96.0 0.0 L 161.3 -30.4 M 161.3 -30.4 L 173.3 -30.4 M 173.3 -30.4 L 178.7 -27.9 M 178.7 -27.9 L 180.6 -25.6 M 180.6 -25.6 M 180.6 -25.6 M 180.6 -25.6 L 182.5 -23.3 M 182.5 -23.3 L 185.2 -22.0 M 182.5 -23.3 M 178.7 -27.9 L 181.4 -26.6 M 181.4 -26.6 M 181.4 -26.6 M 181.4 -26.6 L 184.1 -25.3 M 184.1 -25.3 L 187.1 -25.3 M 184.1 -25.3 M 178.7 -27.9 L 184.1 -25.4 M 184.1 -25.4 L 193.1 -25.4 M 193.1 -25.4 M 193.1 -25.4 M 193.1 -25.4 L 196.1 -25.4 M 196.1 -25.4 L 198.8 -26.7 M 196.1 -25.4 M 184.1 -25.4 L 186.0 -23.1 M 186.0 -23.1 M 186.0 -23.1 M 186.0 -23.1 L 187.9 -20.8 M 187.9 -20.8 L 190.6 -19.5 M 187.9 -20.8 M 173.3 -30.4 L 179.3 -30.4 M 179.3 -30.4 L 182.0 -29.1 M 182.0 -29.1 M 182.0 -29.1 M 182.0 -29.1 L 184.7 -27.8 M 184.7 -27.8 L 187.7 -27.8 M 184.7 -27.8 M 179.3 -30.4 L 182.3 -30.4 M 182.3 -30.4 M 182.3 -30.4 M 182.3 -30.4 L 185.3 -30.4 M 185.3 -30.4 L 188.0 -31.7 M 185.3 -30.4 M 179.3 -30.4 L 185.3 -30.4 M 185.3 -30.4 L 193.5 -34.2 M 193.5 -34.2 M 193.5 -34.2 M 193.5 -34.2 L 196.2 -35.5 M 196.2 -35.5 L 198.1 -37.8 M 196.2 -35.5 M 185.3 -30.4 L 188.0 -29.1 M 188.0 -29.1 M 188.0 -29.1 M 188.0 -29.1 L 190.7 -27.8 M 190.7 -27.8 L 193.7 -27.8 M 190.7 -27.8 M 173.3 -30.4 L 185.3 -30.4 M 185.3 -30.4 L 201.6 -38.0 M 201.6 -38.0 L 204.6 -38.0 M 204.6 -38.0 M 204.6 -38.0 M 204.6 -38.0 L 207.6 -38.0 M 207.6 -38.0 L 210.3 -39.3 M 207.6 -38.0 M 201.6 -38.0 L 204.3 -39.3 M 204.3 -39.3 M 204.3 -39.3 M 204.3 -39.3 L 207.0 -40.6 M 207.0 -40.6 L 208.9 -42.9 M 207.0 -40.6 M 201.6 -38.0 L 207.0 -40.5 M 207.0 -40.5 L 212.8 -47.4 M 212.8 -47.4 M 212.8 -47.4 M 212.8 -47.4 L 214.7 -49.7 M 214.7 -49.7 L 215.5 -52.6 M 214.7 -49.7 M 207.0 -40.5 L 210.0 -40.5 M 210.0 -40.5 M 210.0 -40.5 M 210.0 -40.5 L 213.0 -40.5 M 213.0 -40.5 L 215.7 -41.8 M 213.0 -40.5 M 185.3 -30.4 L 190.7 -27.9 M 190.7 -27.9 L 192.6 -25.6 M 192.6 -25.6 M 192.6 -25.6 M 192.6 -25.6 L 194.5 -23.3 M 194.5 -23.3 L 197.2 -22.0 M 194.5 -23.3 M 190.7 -27.9 L 193.4 -26.6 M 193.4 -26.6 M 193.4 -26.6 M 193.4 -26.6 L 196.1 -25.3 M 196.1 -25.3 L 199.1 -25.3 M 196.1 -25.3 M 190.7 -27.9 L 196.1 -25.4 M 196.1 -25.4 L 205.1 -25.4 M 205.1 -25.4 M 205.1 -25.4 M 205.1 -25.4 L 208.1 -25.4 M 208.1 -25.4 L 210.8 -26.7 M 208.1 -25.4 M 196.1 -25.4 L 198.0 -23.1 M 198.0 -23.1 M 198.0 -23.1 M 198.0 -23.1 L 199.9 -20.8 M 199.9 -20.8 L 202.6 -19.5 M 199.9 -20.8 M 161.3 -30.4 L 172.2 -35.5 M 172.2 -35.5 L 178.2 -35.5 M 178.2 -35.5 L 180.9 -34.2 M 180.9 -34.2 M 180.9 -34.2 M 180.9 -34.2 L 183.6 -32.9 M 183.6 -32.9 L 186.6 -32.9 M 183.6 -32.9 M 178.2 -35.5 L 181.2 -35.5 M 181.2 -35.5 M 181.2 -35.5 M 181.2 -35.5 L 184.2 -35.5 M 184.2 -35.5 L 186.9 -36.8 M 184.2 -35.5 M 178.2 -35.5 L 184.2 -35.5 M 184.2 -35.5 L 192.4 -39.3 M 192.4 -39.3 M 192.4 -39.3 M 192.4 -39.3 L 195.1 -40.6 M 195.1 -40.6 L 197.0 -42.9 M 195.1 -40.6 M 184.2 -35.5 L 186.9 -34.2 M 186.9 -34.2 M 186.9 -34.2 M 186.9 -34.2 L 189.6 -32.9 M 189.6 -32.9 L 192.6 -32.9 M 189.6 -32.9 M 172.2 -35.5 L 177.6 -38.0 M 177.6 -38.0 L 180.6 -38.0 M 180.6 -38.0 M 180.6 -38.0 M 180.6 -38.0 L 183.6 -38.0 M 183.6 -38.0 L 186.3 -39.3 M 183.6 -38.0 M 177.6 -38.0 L 180.3 -39.3 M 180.3 -39.3 M 180.3 -39.3 M 180.3 -39.3 L 183.0 -40.6 M 183.0 -40.6 L 184.9 -42.9 M 183.0 -40.6 M 177.6 -38.0 L 183.0 -40.5 M 183.0 -40.5 L 188.8 -47.4 M 188.8 -47.4 M 188.8 -47.4 M 188.8 -47.4 L 190.7 -49.7 M 190.7 -49.7 L 191.5 -52.6 M 190.7 -49.7 M 183.0 -40.5 L 186.0 -40.5 M 186.0 -40.5 M 186.0 -40.5 M 186.0 -40.5 L 189.0 -40.5 M 189.0 -40.5 L 191.7 -41.8 M 189.0 -40.5 M 172.2 -35.5 L 183.1 -40.6 M 183.1 -40.6 L 194.7 -54.4 M 194.7 -54.4 L 197.4 -55.7 M 197.4 -55.7 M 197.4 -55.7 M 197.4 -55.7 L 200.1 -57.0 M 200.1 -57.0 L 202.0 -59.3 M 200.1 -57.0 M 194.7 -54.4 L 196.6 -56.7 M 196.6 -56.7 M 196.6 -56.7 M 196.6 -56.7 L 198.5 -59.0 M 198.5 -59.0 L 199.3 -61.9 M 198.5 -59.0 M 194.7 -54.4 L 198.6 -59.0 M 198.6 -59.0 L 200.9 -67.7 M 200.9 -67.7 M 200.9 -67.7 M 200.9 -67.7 L 201.7 -70.6 M 201.7 -70.6 L 201.2 -73.6 M 201.7 -70.6 M 198.6 -59.0 L 201.3 -60.3 M 201.3 -60.3 M 201.3 -60.3 M 201.3 -60.3 L 204.0 -61.6 M 204.0 -61.6 L 205.9 -63.9 M 204.0 -61.6 M 183.1 -40.6 L 189.1 -40.6 M 189.1 -40.6 L 191.8 -39.3 M 191.8 -39.3 M 191.8 -39.3 M 191.8 -39.3 L 194.5 -38.0 M 194.5 -38.0 L 197.5 -38.0 M 194.5 -38.0 M 189.1 -40.6 L 192.1 -40.6 M 192.1 -40.6 M 192.1 -40.6 M 192.1 -40.6 L 195.1 -40.6 M 195.1 -40.6 L 197.8 -41.9 M 195.1 -40.6 M 189.1 -40.6 L 195.1 -40.6 M 195.1 -40.6 L 203.3 -44.4 M 203.3 -44.4 M 203.3 -44.4 M 203.3 -44.4 L 206.0 -45.7 M 206.0 -45.7 L 207.9 -48.0 M 206.0 -45.7 M 195.1 -40.6 L 197.8 -39.3 M 197.8 -39.3 M 197.8 -39.3 M 197.8 -39.3 L 200.5 -38.0 M 200.5 -38.0 L 203.5 -38.0 M 200.5 -38.0 M 161.3 -30.4 L 183.1 -40.5 M 183.1 -40.5 L 206.2 -68.1 M 206.2 -68.1 L 211.6 -70.6 M 211.6 -70.6 L 214.6 -70.6 M 214.6 -70.6 M 214.6 -70.6 M 214.6 -70.6 L 217.6 -70.6 M 217.6 -70.6 L 220.3 -71.9 M 217.6 -70.6 M 211.6 -70.6 L 214.3 -71.9 M 214.3 -71.9 M 214.3 -71.9 M 214.3 -71.9 L 217.0 -73.2 M 217.0 -73.2 L 218.9 -75.5 M 217.0 -73.2 M 211.6 -70.6 L 217.0 -73.1 M 217.0 -73.1 L 222.8 -80.0 M 222.8 -80.0 M 222.8 -80.0 M 222.8 -80.0 L 224.7 -82.3 M 224.7 -82.3 L 225.5 -85.2 M 224.7 -82.3 M 217.0 -73.1 L 220.0 -73.1 M 220.0 -73.1 M 220.0 -73.1 M 220.0 -73.1 L 223.0 -73.1 M 223.0 -73.1 L 225.7 -74.4 M 223.0 -73.1 M 206.2 -68.1 L 210.1 -72.7 M 210.1 -72.7 L 212.8 -74.0 M 212.8 -74.0 M 212.8 -74.0 M 212.8 -74.0 L 215.5 -75.3 M 215.5 -75.3 L 217.4 -77.6 M 215.5 -75.3 M 210.1 -72.7 L 212.0 -75.0 M 212.0 -75.0 M 212.0 -75.0 M 212.0 -75.0 L 213.9 -77.3 M 213.9 -77.3 L 214.7 -80.2 M 213.9 -77.3 M 210.1 -72.7 L 214.0 -77.3 M 214.0 -77.3 L 216.3 -86.0 M 216.3 -86.0 M 216.3 -86.0 M 216.3 -86.0 L 217.1 -88.9 M 217.1 -88.9 L 216.6 -91.9 M 217.1 -88.9 M 214.0 -77.3 L 216.7 -78.6 M 216.7 -78.6 M 216.7 -78.6 M 216.7 -78.6 L 219.4 -79.9 M 219.4 -79.9 L 221.3 -82.2 M 219.4 -79.9 M 206.2 -68.1 L 213.9 -77.3 M 213.9 -77.3 L 218.6 -94.7 M 218.6 -94.7 L 220.5 -97.0 M 220.5 -97.0 M 220.5 -97.0 M 220.5 -97.0 L 222.4 -99.3 M 222.4 -99.3 L 223.2 -102.2 M 222.4 -99.3 M 218.6 -94.7 L 219.4 -97.6 M 219.4 -97.6 M 219.4 -97.6 M 219.4 -97.6 L 220.2 -100.5 M 220.2 -100.5 L 219.7 -103.5 M 220.2 -100.5 M 218.6 -94.7 L 220.2 -100.5 M 220.2 -100.5 L 218.6 -109.4 M 218.6 -109.4 M 218.6 -109.4 M 218.6 -109.4 L 218.1 -112.4 M 218.1 -112.4 L 216.4 -114.9 M 218.1 -112.4 M 220.2 -100.5 L 222.1 -102.8 M 222.1 -102.8 M 222.1 -102.8 M 222.1 -102.8 L 224.0 -105.1 M 224.0 -105.1 L 224.8 -108.0 M 224.0 -105.1 M 213.9 -77.3 L 219.3 -79.8 M 219.3 -79.8 L 222.3 -79.8 M 222.3 -79.8 M 222.3 -79.8 M 222.3 -79.8 L 225.3 -79.8 M 225.3 -79.8 L 228.0 -81.1 M 225.3 -79.8 M 219.3 -79.8 L 222.0 -81.1 M 222.0 -81.1 M 222.0 -81.1 M 222.0 -81.1 L 224.7 -82.4 M 224.7 -82.4 L 226.6 -84.7 M 224.7 -82.4 M 219.3 -79.8 L 224.7 -82.3 M 224.7 -82.3 L 230.5 -89.2 M 230.5 -89.2 M 230.5 -89.2 M 230.5 -89.2 L 232.4 -91.5 M 232.4 -91.5 L 233.2 -94.4 M 232.4 -91.5 M 224.7 -82.3 L 227.7 -82.3 M 227.7 -82.3 M 227.7 -82.3 M 227.7 -82.3 L 230.7 -82.3 M 230.7 -82.3 L 233.4 -83.6 M 230.7 -82.3 M 183.1 -40.5 L 195.1 -40.5 M 195.1 -40.5 L 200.5 -38.0 M 200.5 -38.0 L 202.4 -35.7 M 202.4 -35.7 M 202.4 -35.7 M 202.4 -35.7 L 204.3 -33.4 M 204.3 -33.4 L 207.0 -32.1 M 204.3 -33.4 M 200.5 -38.0 L 203.2 -36.7 M 203.2 -36.7 M 203.2 -36.7 M 203.2 -36.7 L 205.9 -35.4 M 205.9 -35.4 L 208.9 -35.4 M 205.9 -35.4 M 200.5 -38.0 L 205.9 -35.5 M 205.9 -35.5 L 214.9 -35.5 M 214.9 -35.5 M 214.9 -35.5 M 214.9 -35.5 L 217.9 -35.5 M 217.9 -35.5 L 220.6 -36.8 M 217.9 -35.5 M 205.9 -35.5 L 207.8 -33.2 M 207.8 -33.2 M 207.8 -33.2 M 207.8 -33.2 L 209.7 -30.9 M 209.7 -30.9 L 212.4 -29.6 M 209.7 -30.9 M 195.1 -40.5 L 201.1 -40.5 M 201.1 -40.5 L 203.8 -39.2 M 203.8 -39.2 M 203.8 -39.2 M 203.8 -39.2 L 206.5 -37.9 M 206.5 -37.9 L 209.5 -37.9 M 206.5 -37.9 M 201.1 -40.5 L 204.1 -40.5 M 204.1 -40.5 M 204.1 -40.5 M 204.1 -40.5 L 207.1 -40.5 M 207.1 -40.5 L 209.8 -41.8 M 207.1 -40.5 M 201.1 -40.5 L 207.1 -40.5 M 207.1 -40.5 L 215.3 -44.3 M 215.3 -44.3 M 215.3 -44.3 M 215.3 -44.3 L 218.0 -45.6 M 218.0 -45.6 L 219.9 -47.9 M 218.0 -45.6 M 207.1 -40.5 L 209.8 -39.2 M 209.8 -39.2 M 209.8 -39.2 M 209.8 -39.2 L 212.5 -37.9 M 212.5 -37.9 L 215.5 -37.9 M 212.5 -37.9 M 195.1 -40.5 L 207.1 -40.5 M 207.1 -40.5 L 223.4 -48.1 M 223.4 -48.1 L 226.4 -48.1 M 226.4 -48.1 M 226.4 -48.1 M 226.4 -48.1 L 229.4 -48.1 M 229.4 -48.1 L 232.1 -49.4 M 229.4 -48.1 M 223.4 -48.1 L 226.1 -49.4 M 226.1 -49.4 M 226.1 -49.4 M 226.1 -49.4 L 228.8 -50.7 M 228.8 -50.7 L 230.7 -53.0 M 228.8 -50.7 M 223.4 -48.1 L 228.8 -50.6 M 228.8 -50.6 L 234.6 -57.5 M 234.6 -57.5 M 234.6 -57.5 M 234.6 -57.5 L 236.5 -59.8 M 236.5 -59.8 L 237.3 -62.7 M 236.5 -59.8 M 228.8 -50.6 L 231.8 -50.6 M 231.8 -50.6 M 231.8 -50.6 M 231.8 -50.6 L 234.8 -50.6 M 234.8 -50.6 L 237.5 -51.9 M 234.8 -50.6 M 207.1 -40.5 L 212.5 -38.0 M 212.5 -38.0 L 214.4 -35.7 M 214.4 -35.7 M 214.4 -35.7 M 214.4 -35.7 L 216.3 -33.4 M 216.3 -33.4 L 219.0 -32.1 M 216.3 -33.4 M 212.5 -38.0 L 215.2 -36.7 M 215.2 -36.7 M 215.2 -36.7 M 215.2 -36.7 L 217.9 -35.4 M 217.9 -35.4 L 220.9 -35.4 M 217.9 -35.4 M 212.5 -38.0 L 217.9 -35.5 M 217.9 -35.5 L 226.9 -35.5 M 226.9 -35.5 M 226.9 -35.5 M 226.9 -35.5 L 229.9 -35.5 M 229.9 -35.5 L 232.6 -36.8 M 229.9 -35.5 M 217.9 -35.5 L 219.8 -33.2 M 219.8 -33.2 M 219.8 -33.2 M 219.8 -33.2 L 221.7 -30.9 M 221.7 -30.9 L 224.4 -29.6 M 221.7 -30.9 M 96.0 0.0 L 117.8 10.1 M 117.8 10.1 L 125.5 19.3 M 125.5 19.3 L 127.1 25.1 M 127.1 25.1 L 126.6 28.1 M 126.6 28.1 M 126.6 28.1 M 126.6 28.1 L 126.1 31.1 M 126.1 31.1 L 126.9 34.0 M 126.1 31.1 M 127.1 25.1 L 127.9 28.0 M 127.9 28.0 M 127.9 28.0 M 127.9 28.0 L 128.7 30.9 M 128.7 30.9 L 130.6 33.2 M 128.7 30.9 M 127.1 25.1 L 128.7 30.9 M 128.7 30.9 L 134.5 37.8 M 134.5 37.8 M 134.5 37.8 M 134.5 37.8 L 136.4 40.1 M 136.4 40.1 L 139.1 41.4 M 136.4 40.1 M 128.7 30.9 L 128.2 33.9 M 128.2 33.9 M 128.2 33.9 M 128.2 33.9 L 127.7 36.9 M 127.7 36.9 L 128.5 39.8 M 127.7 36.9 M 125.5 19.3 L 129.4 23.9 M 129.4 23.9 L 130.2 26.8 M 130.2 26.8 M 130.2 26.8 M 130.2 26.8 L 131.0 29.7 M 131.0 29.7 L 132.9 32.0 M 131.0 29.7 M 129.4 23.9 L 131.3 26.2 M 131.3 26.2 M 131.3 26.2 M 131.3 26.2 L 133.2 28.5 M 133.2 28.5 L 135.9 29.8 M 133.2 28.5 M 129.4 23.9 L 133.3 28.5 M 133.3 28.5 L 141.5 32.3 M 141.5 32.3 M 141.5 32.3 M 141.5 32.3 L 144.2 33.6 M 144.2 33.6 L 147.2 33.6 M 144.2 33.6 M 133.3 28.5 L 134.1 31.4 M 134.1 31.4 M 134.1 31.4 M 134.1 31.4 L 134.9 34.3 M 134.9 34.3 L 136.8 36.6 M 134.9 34.3 M 125.5 19.3 L 133.2 28.5 M 133.2 28.5 L 149.5 36.1 M 149.5 36.1 L 151.4 38.4 M 151.4 38.4 M 151.4 38.4 M 151.4 38.4 L 153.3 40.7 M 153.3 40.7 L 156.0 42.0 M 153.3 40.7 M 149.5 36.1 L 152.2 37.4 M 152.2 37.4 M 152.2 37.4 M 152.2 37.4 L 154.9 38.7 M 154.9 38.7 L 157.9 38.7 M 154.9 38.7 M 149.5 36.1 L 154.9 38.6 M 154.9 38.6 L 163.9 38.6 M 163.9 38.6 M 163.9 38.6 M 163.9 38.6 L 166.9 38.6 M 166.9 38.6 L 169.6 37.3 M 166.9 38.6 M 154.9 38.6 L 156.8 40.9 M 156.8 40.9 M 156.8 40.9 M 156.8 40.9 L 158.7 43.2 M 158.7 43.2 L 161.4 44.5 M 158.7 43.2 M 133.2 28.5 L 134.8 34.3 M 134.8 34.3 L 134.3 37.3 M 134.3 37.3 M 134.3 37.3 M 134.3 37.3 L 133.8 40.3 M 133.8 40.3 L 134.6 43.2 M 133.8 40.3 M 134.8 34.3 L 135.6 37.2 M 135.6 37.2 M 135.6 37.2 M 135.6 37.2 L 136.4 40.1 M 136.4 40.1 L 138.3 42.4 M 136.4 40.1 M 134.8 34.3 L 136.4 40.1 M 136.4 40.1 L 142.2 47.0 M 142.2 47.0 M 142.2 47.0 M 142.2 47.0 L 144.1 49.3 M 144.1 49.3 L 146.8 50.6 M 144.1 49.3 M 136.4 40.1 L 135.9 43.1 M 135.9 43.1 M 135.9 43.1 M 135.9 43.1 L 135.4 46.1 M 135.4 46.1 L 136.2 49.0 M 135.4 46.1 M 117.8 10.1 L 128.7 15.2 M 128.7 15.2 L 132.6 19.8 M 132.6 19.8 L 133.4 22.7 M 133.4 22.7 M 133.4 22.7 M 133.4 22.7 L 134.2 25.6 M 134.2 25.6 L 136.1 27.9 M 134.2 25.6 M 132.6 19.8 L 134.5 22.1 M 134.5 22.1 M 134.5 22.1 M 134.5 22.1 L 136.4 24.4 M 136.4 24.4 L 139.1 25.7 M 136.4 24.4 M 132.6 19.8 L 136.5 24.4 M 136.5 24.4 L 144.7 28.2 M 144.7 28.2 M 144.7 28.2 M 144.7 28.2 L 147.4 29.5 M 147.4 29.5 L 150.4 29.5 M 147.4 29.5 M 136.5 24.4 L 137.3 27.3 M 137.3 27.3 M 137.3 27.3 M 137.3 27.3 L 138.1 30.2 M 138.1 30.2 L 140.0 32.5 M 138.1 30.2 M 128.7 15.2 L 134.1 17.7 M 134.1 17.7 L 136.0 20.0 M 136.0 20.0 M 136.0 20.0 M 136.0 20.0 L 137.9 22.3 M 137.9 22.3 L 140.6 23.6 M 137.9 22.3 M 134.1 17.7 L 136.8 19.0 M 136.8 19.0 M 136.8 19.0 M 136.8 19.0 L 139.5 20.3 M 139.5 20.3 L 142.5 20.3 M 139.5 20.3 M 134.1 17.7 L 139.5 20.2 M 139.5 20.2 L 148.5 20.2 M 148.5 20.2 M 148.5 20.2 M 148.5 20.2 L 151.5 20.2 M 151.5 20.2 L 154.2 18.9 M 151.5 20.2 M 139.5 20.2 L 141.4 22.5 M 141.4 22.5 M 141.4 22.5 M 141.4 22.5 L 143.3 24.8 M 143.3 24.8 L 146.0 26.1 M 143.3 24.8 M 128.7 15.2 L 139.6 20.3 M 139.6 20.3 L 157.6 20.3 M 157.6 20.3 L 160.3 21.6 M 160.3 21.6 M 160.3 21.6 M 160.3 21.6 L 163.0 22.9 M 163.0 22.9 L 166.0 22.9 M 163.0 22.9 M 157.6 20.3 L 160.6 20.3 M 160.6 20.3 M 160.6 20.3 M 160.6 20.3 L 163.6 20.3 M 163.6 20.3 L 166.3 19.0 M 163.6 20.3 M 157.6 20.3 L 163.6 20.3 M 163.6 20.3 L 171.8 16.5 M 171.8 16.5 M 171.8 16.5 M 171.8 16.5 L 174.5 15.2 M 174.5 15.2 L 176.4 12.9 M 174.5 15.2 M 163.6 20.3 L 166.3 21.6 M 166.3 21.6 M 166.3 21.6 M 166.3 21.6 L 169.0 22.9 M 169.0 22.9 L 172.0 22.9 M 169.0 22.9 M 139.6 20.3 L 143.5 24.9 M 143.5 24.9 L 144.3 27.8 M 144.3 27.8 M 144.3 27.8 M 144.3 27.8 L 145.1 30.7 M 145.1 30.7 L 147.0 33.0 M 145.1 30.7 M 143.5 24.9 L 145.4 27.2 M 145.4 27.2 M 145.4 27.2 M 145.4 27.2 L 147.3 29.5 M 147.3 29.5 L 150.0 30.8 M 147.3 29.5 M 143.5 24.9 L 147.4 29.5 M 147.4 29.5 L 155.6 33.3 M 155.6 33.3 M 155.6 33.3 M 155.6 33.3 L 158.3 34.6 M 158.3 34.6 L 161.3 34.6 M 158.3 34.6 M 147.4 29.5 L 148.2 32.4 M 148.2 32.4 M 148.2 32.4 M 148.2 32.4 L 149.0 35.3 M 149.0 35.3 L 150.9 37.6 M 149.0 35.3 M 117.8 10.1 L 139.6 20.2 M 139.6 20.2 L 175.6 20.2 M 175.6 20.2 L 181.0 22.7 M 181.0 22.7 L 182.9 25.0 M 182.9 25.0 M 182.9 25.0 M 182.9 25.0 L 184.8 27.3 M 184.8 27.3 L 187.5 28.6 M 184.8 27.3 M 181.0 22.7 L 183.7 24.0 M 183.7 24.0 M 183.7 24.0 M 183.7 24.0 L 186.4 25.3 M 186.4 25.3 L 189.4 25.3 M 186.4 25.3 M 181.0 22.7 L 186.4 25.2 M 186.4 25.2 L 195.4 25.2 M 195.4 25.2 M 195.4 25.2 M 195.4 25.2 L 198.4 25.2 M 198.4 25.2 L 201.1 23.9 M 198.4 25.2 M 186.4 25.2 L 188.3 27.5 M 188.3 27.5 M 188.3 27.5 M 188.3 27.5 L 190.2 29.8 M 190.2 29.8 L 192.9 31.1 M 190.2 29.8 M 175.6 20.2 L 181.6 20.2 M 181.6 20.2 L 184.3 21.5 M 184.3 21.5 M 184.3 21.5 M 184.3 21.5 L 187.0 22.8 M 187.0 22.8 L 190.0 22.8 M 187.0 22.8 M 181.6 20.2 L 184.6 20.2 M 184.6 20.2 M 184.6 20.2 M 184.6 20.2 L 187.6 20.2 M 187.6 20.2 L 190.3 18.9 M 187.6 20.2 M 181.6 20.2 L 187.6 20.2 M 187.6 20.2 L 195.8 16.4 M 195.8 16.4 M 195.8 16.4 M 195.8 16.4 L 198.5 15.1 M 198.5 15.1 L 200.4 12.8 M 198.5 15.1 M 187.6 20.2 L 190.3 21.5 M 190.3 21.5 M 190.3 21.5 M 190.3 21.5 L 193.0 22.8 M 193.0 22.8 L 196.0 22.8 M 193.0 22.8 M 175.6 20.2 L 187.6 20.2 M 187.6 20.2 L 203.9 12.6 M 203.9 12.6 L 206.9 12.6 M 206.9 12.6 M 206.9 12.6 M 206.9 12.6 L 209.9 12.6 M 209.9 12.6 L 212.6 11.3 M 209.9 12.6 M 203.9 12.6 L 206.6 11.3 M 206.6 11.3 M 206.6 11.3 M 206.6 11.3 L 209.3 10.0 M 209.3 10.0 L 211.2 7.7 M 209.3 10.0 M 203.9 12.6 L 209.3 10.1 M 209.3 10.1 L 215.1 3.2 M 215.1 3.2 M 215.1 3.2 M 215.1 3.2 L 217.0 0.9 M 217.0 0.9 L 217.8 -2.0 M 217.0 0.9 M 209.3 10.1 L 212.3 10.1 M 212.3 10.1 M 212.3 10.1 M 212.3 10.1 L 215.3 10.1 M 215.3 10.1 L 218.0 8.8 M 215.3 10.1 M 187.6 20.2 L 193.0 22.7 M 193.0 22.7 L 194.9 25.0 M 194.9 25.0 M 194.9 25.0 M 194.9 25.0 L 196.8 27.3 M 196.8 27.3 L 199.5 28.6 M 196.8 27.3 M 193.0 22.7 L 195.7 24.0 M 195.7 24.0 M 195.7 24.0 M 195.7 24.0 L 198.4 25.3 M 198.4 25.3 L 201.4 25.3 M 198.4 25.3 M 193.0 22.7 L 198.4 25.2 M 198.4 25.2 L 207.4 25.2 M 207.4 25.2 M 207.4 25.2 M 207.4 25.2 L 210.4 25.2 M 210.4 25.2 L 213.1 23.9 M 210.4 25.2 M 198.4 25.2 L 200.3 27.5 M 200.3 27.5 M 200.3 27.5 M 200.3 27.5 L 202.2 29.8 M 202.2 29.8 L 204.9 31.1 M 202.2 29.8 M 139.6 20.2 L 147.3 29.4 M 147.3 29.4 L 148.9 35.2 M 148.9 35.2 L 148.4 38.2 M 148.4 38.2 M 148.4 38.2 M 148.4 38.2 L 147.9 41.2 M 147.9 41.2 L 148.7 44.1 M 147.9 41.2 M 148.9 35.2 L 149.7 38.1 M 149.7 38.1 M 149.7 38.1 M 149.7 38.1 L 150.5 41.0 M 150.5 41.0 L 152.4 43.3 M 150.5 41.0 M 148.9 35.2 L 150.5 41.0 M 150.5 41.0 L 156.3 47.9 M 156.3 47.9 M 156.3 47.9 M 156.3 47.9 L 158.2 50.2 M 158.2 50.2 L 160.9 51.5 M 158.2 50.2 M 150.5 41.0 L 150.0 44.0 M 150.0 44.0 M 150.0 44.0 M 150.0 44.0 L 149.5 47.0 M 149.5 47.0 L 150.3 49.9 M 149.5 47.0 M 147.3 29.4 L 151.2 34.0 M 151.2 34.0 L 152.0 36.9 M 152.0 36.9 M 152.0 36.9 M 152.0 36.9 L 152.8 39.8 M 152.8 39.8 L 154.7 42.1 M 152.8 39.8 M 151.2 34.0 L 153.1 36.3 M 153.1 36.3 M 153.1 36.3 M 153.1 36.3 L 155.0 38.6 M 155.0 38.6 L 157.7 39.9 M 155.0 38.6 M 151.2 34.0 L 155.1 38.6 M 155.1 38.6 L 163.3 42.4 M 163.3 42.4 M 163.3 42.4 M 163.3 42.4 L 166.0 43.7 M 166.0 43.7 L 169.0 43.7 M 166.0 43.7 M 155.1 38.6 L 155.9 41.5 M 155.9 41.5 M 155.9 41.5 M 155.9 41.5 L 156.7 44.4 M 156.7 44.4 L 158.6 46.7 M 156.7 44.4 M 147.3 29.4 L 155.0 38.6 M 155.0 38.6 L 171.3 46.2 M 171.3 46.2 L 173.2 48.5 M 173.2 48.5 M 173.2 48.5 M 173.2 48.5 L 175.1 50.8 M 175.1 50.8 L 177.8 52.1 M 175.1 50.8 M 171.3 46.2 L 174.0 47.5 M 174.0 47.5 M 174.0 47.5 M 174.0 47.5 L 176.7 48.8 M 176.7 48.8 L 179.7 48.8 M 176.7 48.8 M 171.3 46.2 L 176.7 48.7 M 176.7 48.7 L 185.7 48.7 M 185.7 48.7 M 185.7 48.7 M 185.7 48.7 L 188.7 48.7 M 188.7 48.7 L 191.4 47.4 M 188.7 48.7 M 176.7 48.7 L 178.6 51.0 M 178.6 51.0 M 178.6 51.0 M 178.6 51.0 L 180.5 53.3 M 180.5 53.3 L 183.2 54.6 M 180.5 53.3 M 155.0 38.6 L 156.6 44.4 M 156.6 44.4 L 156.1 47.4 M 156.1 47.4 M 156.1 47.4 M 156.1 47.4 L 155.6 50.4 M 155.6 50.4 L 156.4 53.3 M 155.6 50.4 M 156.6 44.4 L 157.4 47.3 M 157.4 47.3 M 157.4 47.3 M 157.4 47.3 L 158.2 50.2 M 158.2 50.2 L 160.1 52.5 M 158.2 50.2 M 156.6 44.4 L 158.2 50.2 M 158.2 50.2 L 164.0 57.1 M 164.0 57.1 M 164.0 57.1 M 164.0 57.1 L 165.9 59.4 M 165.9 59.4 L 168.6 60.7 M 165.9 59.4 M 158.2 50.2 L 157.7 53.2 M 157.7 53.2 M 157.7 53.2 M 157.7 53.2 L 157.2 56.2 M 157.2 56.2 L 158.0 59.1 M 157.2 56.2" stroke-width="1" stroke="black" fill="none"/>
</svg>