<svg viewBox="-20 -157.7 779.0 293.0" xmlns="http://www.w3.org/2000/svg">
	<path d="M 0 0 L 3.0 0.0 M 3.0 0.0 L 5.7 1.3 M 3.0 0.0 L 6.0 0.0 M 6.0 0.0 L 8.7 -1.3 M 6.0 0.0 L 9.0 0.0 M 9.0 0.0 L 11.7 1.3 M 11.7 1.3 L 13.6 3.6 M 11.7 1.3 L 14.4 2.6 M 14.4 2.6 L 17.4 2.6 M 14.4 2.6 L 17.1 3.9 M 9.0 0.0 L 12.0 0.0 M 12.0 0.0 L 14.7 1.3 M 12.0 0.0 L 15.0 0.0 M 15.0 0.0 L 17.7 -1.3 M 15.0 0.0 L 18.0 0.0 M 18.0 0.0 L 20.7 -1.3 M 20.7 -1.3 L 23.7 -1.3 M 20.7 -1.3 L 23.4 -2.6 M 23.4 -2.6 L 25.3 -4.9 M 23.4 -2.6 L 26.1 -3.9 M 18.0 0.0 L 21.0 0.0 M 21.0 0.0 L 23.7 1.3 M 21.0 0.0 L 24.0 0.0 M 24.0 0.0 L 26.7 -1.3 M 24.0 0.0 L 27.0 0.0 M 27.0 0.0 L 29.7 1.3 M 29.7 1.3 L 31.6 3.6 M 29.7 1.3 L 32.4 2.6 M 32.4 2.6 L 35.4 2.6 M 32.4 2.6 L 35.1 3.9 M 35.1 3.9 L 37.0 6.2 M 37.0 6.2 L 37.7 9.1 M 37.0 6.2 L 38.9 8.5 M 38.9 8.5 L 41.6 9.8 M 38.9 8.5 L 40.8 10.8 M 35.1 3.9 L 37.8 5.2 M 37.8 5.2 L 39.7 7.5 M 37.8 5.2 L 40.5 6.5 M 40.5 6.5 L 43.5 6.5 M 40.5 6.5 L 43.2 7.8 M 43.2 7.8 L 46.2 7.8 M 46.2 7.8 L 48.9 9.1 M 46.2 7.8 L 49.2 7.8 M 49.2 7.8 L 51.9 6.5 M 49.2 7.8 L 52.2 7.8 M 43.2 7.8 L 45.9 9.1 M 45.9 9.1 L 47.8 11.4 M 45.9 9.1 L 48.6 10.4 M 48.6 10.4 L 51.6 10.4 M 48.6 10.4 L 51.3 11.7 M 27.0 0.0 L 30.0 0.0 M 30.0 0.0 L 32.7 1.3 M 30.0 0.0 L 33.0 0.0 M 33.0 0.0 L 35.7 -1.3 M 33.0 0.0 L 36.0 0.0 M 36.0 0.0 L 38.7 1.3 M 38.7 1.3 L 40.6 3.6 M 38.7 1.3 L 41.4 2.6 M 41.4 2.6 L 44.4 2.6 M 41.4 2.6 L 44.1 3.9 M 36.0 0.0 L 39.0 0.0 M 39.0 0.0 L 41.7 1.3 M 39.0 0.0 L 42.0 0.0 M 42.0 0.0 L 44.7 -1.3 M 42.0 0.0 L 45.0 0.0 M 45.0 0.0 L 47.7 -1.3 M 47.7 -1.3 L 50.7 -1.3 M 47.7 -1.3 L 50.4 -2.6 M 50.4 -2.6 L 52.3 -4.9 M 50.4 -2.6 L 53.1 -3.9 M 45.0 0.0 L 48.0 0.0 M 48.0 0.0 L 50.7 1.3 M 48.0 0.0 L 51.0 0.0 M 51.0 0.0 L 53.7 -1.3 M 51.0 0.0 L 54.0 0.0 M 54.0 0.0 L 56.7 -1.3 M 56.7 -1.3 L 59.7 -1.3 M 56.7 -1.3 L 59.4 -2.6 M 59.4 -2.6 L 61.3 -4.9 M 59.4 -2.6 L 62.1 -3.9 M 62.1 -3.9 L 65.1 -3.9 M 65.1 -3.9 L 67.8 -2.6 M 65.1 -3.9 L 68.1 -3.9 M 68.1 -3.9 L 70.8 -5.2 M 68.1 -3.9 L 71.1 -3.9 M 62.1 -3.9 L 64.8 -5.2 M 64.8 -5.2 L 67.8 -5.2 M 64.8 -5.2 L 67.5 -6.5 M 67.5 -6.5 L 69.4 -8.8 M 67.5 -6.5 L 70.2 -7.8 M 70.2 -7.8 L 72.1 -10.1 M 72.1 -10.1 L 74.8 -11.4 M 72.1 -10.1 L 74.0 -12.4 M 74.0 -12.4 L 74.7 -15.3 M 74.0 -12.4 L 75.9 -14.7 M 70.2 -7.8 L 72.9 -9.1 M 72.9 -9.1 L 75.9 -9.1 M 72.9 -9.1 L 75.6 -10.4 M 75.6 -10.4 L 77.5 -12.7 M 75.6 -10.4 L 78.3 -11.7 M 54.0 0.0 L 57.0 0.0 M 57.0 0.0 L 59.7 1.3 M 57.0 0.0 L 60.0 0.0 M 60.0 0.0 L 62.7 -1.3 M 60.0 0.0 L 63.0 0.0 M 63.0 0.0 L 65.7 1.3 M 65.7 1.3 L 67.6 3.6 M 65.7 1.3 L 68.4 2.6 M 68.4 2.6 L 71.4 2.6 M 68.4 2.6 L 71.1 3.9 M 63.0 0.0 L 66.0 0.0 M 66.0 0.0 L 68.7 1.3 M 66.0 0.0 L 69.0 0.0 M 69.0 0.0 L 71.7 -1.3 M 69.0 0.0 L 72.0 0.0 M 72.0 0.0 L 74.7 -1.3 M 74.7 -1.3 L 77.7 -1.3 M 74.7 -1.3 L 77.4 -2.6 M 77.4 -2.6 L 79.3 -4.9 M 77.4 -2.6 L 80.1 -3.9 M 72.0 0.0 L 75.0 0.0 M 75.0 0.0 L 77.7 1.3 M 75.0 0.0 L 78.0 0.0 M 78.0 0.0 L 80.7 -1.3 M 78.0 0.0 L 81.0 0.0 M 81.0 0.0 L 83.7 1.3 M 83.7 1.3 L 85.6 3.6 M 83.7 1.3 L 86.4 2.6 M 86.4 2.6 L 89.4 2.6 M 86.4 2.6 L 89.1 3.9 M 89.1 3.9 L 91.0 6.2 M 91.0 6.2 L 91.7 9.1 M 91.0 6.2 L 92.9 8.5 M 92.9 8.5 L 95.6 9.8 M 92.9 8.5 L 94.8 10.8 M 89.1 3.9 L 91.8 5.2 M 91.8 5.2 L 93.7 7.5 M 91.8 5.2 L 94.5 6.5 M 94.5 6.5 L 97.5 6.5 M 94.5 6.5 L 97.2 7.8 M 97.2 7.8 L 100.2 7.8 M 100.2 7.8 L 102.9 9.1 M 100.2 7.8 L 103.2 7.8 M 103.2 7.8 L 105.9 6.5 M 103.2 7.8 L 106.2 7.8 M 97.2 7.8 L 99.9 9.1 M 99.9 9.1 L 101.8 11.4 M 99.9 9.1 L 102.6 10.4 M 102.6 10.4 L 105.6 10.4 M 102.6 10.4 L 105.3 11.7 M 105.3 11.7 L 107.2 14.0 M 107.2 14.0 L 107.9 16.9 M 107.2 14.0 L 109.1 16.3 M 109.1 16.3 L 111.8 17.6 M 109.1 16.3 L 111.0 18.6 M 111.0 18.6 L 111.7 21.5 M 111.7 21.5 L 111.0 24.4 M 111.7 21.5 L 112.4 24.4 M 112.4 24.4 L 114.3 26.7 M 112.4 24.4 L 113.1 27.3 M 111.0 18.6 L 112.9 20.9 M 112.9 20.9 L 113.6 23.8 M 112.9 20.9 L 114.8 23.2 M 114.8 23.2 L 117.5 24.5 M 114.8 23.2 L 116.7 25.5 M 116.7 25.5 L 119.4 26.8 M 119.4 26.8 L 121.3 29.1 M 119.4 26.8 L 122.1 28.1 M 122.1 28.1 L 125.1 28.1 M 122.1 28.1 L 124.8 29.4 M 116.7 25.5 L 118.6 27.8 M 118.6 27.8 L 119.3 30.7 M 118.6 27.8 L 120.5 30.1 M 120.5 30.1 L 123.2 31.4 M 120.5 30.1 L 122.4 32.4 M 105.3 11.7 L 108.0 13.0 M 108.0 13.0 L 109.9 15.3 M 108.0 13.0 L 110.7 14.3 M 110.7 14.3 L 113.7 14.3 M 110.7 14.3 L 113.4 15.6 M 113.4 15.6 L 115.3 17.9 M 115.3 17.9 L 116.0 20.8 M 115.3 17.9 L 117.2 20.2 M 117.2 20.2 L 119.9 21.5 M 117.2 20.2 L 119.1 22.5 M 113.4 15.6 L 116.1 16.9 M 116.1 16.9 L 118.0 19.2 M 116.1 16.9 L 118.8 18.2 M 118.8 18.2 L 121.8 18.2 M 118.8 18.2 L 121.5 19.5 M 121.5 19.5 L 124.5 19.5 M 124.5 19.5 L 127.2 20.8 M 124.5 19.5 L 127.5 19.5 M 127.5 19.5 L 130.2 18.2 M 127.5 19.5 L 130.5 19.5 M 121.5 19.5 L 124.2 20.8 M 124.2 20.8 L 126.1 23.1 M 124.2 20.8 L 126.9 22.1 M 126.9 22.1 L 129.9 22.1 M 126.9 22.1 L 129.6 23.4 M 129.6 23.4 L 132.6 23.4 M 132.6 23.4 L 135.3 24.7 M 132.6 23.4 L 135.6 23.4 M 135.6 23.4 L 138.3 22.1 M 135.6 23.4 L 138.6 23.4 M 138.6 23.4 L 141.3 24.7 M 141.3 24.7 L 143.2 27.0 M 141.3 24.7 L 144.0 26.0 M 144.0 26.0 L 147.0 26.0 M 144.0 26.0 L 146.7 27.3 M 138.6 23.4 L 141.6 23.4 M 141.6 23.4 L 144.3 24.7 M 141.6 23.4 L 144.6 23.4 M 144.6 23.4 L 147.3 22.1 M 144.6 23.4 L 147.6 23.4 M 147.6 23.4 L 150.3 22.1 M 150.3 22.1 L 153.3 22.1 M 150.3 22.1 L 153.0 20.8 M 153.0 20.8 L 154.9 18.5 M 153.0 20.8 L 155.7 19.5 M 147.6 23.4 L 150.6 23.4 M 150.6 23.4 L 153.3 24.7 M 150.6 23.4 L 153.6 23.4 M 153.6 23.4 L 156.3 22.1 M 153.6 23.4 L 156.6 23.4 M 129.6 23.4 L 132.3 24.7 M 132.3 24.7 L 134.2 27.0 M 132.3 24.7 L 135.0 26.0 M 135.0 26.0 L 138.0 26.0 M 135.0 26.0 L 137.7 27.3 M 137.7 27.3 L 139.6 29.6 M 139.6 29.6 L 140.3 32.5 M 139.6 29.6 L 141.5 31.9 M 141.5 31.9 L 144.2 33.2 M 141.5 31.9 L 143.4 34.2 M 137.7 27.3 L 140.4 28.6 M 140.4 28.6 L 142.3 30.9 M 140.4 28.6 L 143.1 29.9 M 143.1 29.9 L 146.1 29.9 M 143.1 29.9 L 145.8 31.2 M 145.8 31.2 L 148.8 31.2 M 148.8 31.2 L 151.5 32.5 M 148.8 31.2 L 151.8 31.2 M 151.8 31.2 L 154.5 29.9 M 151.8 31.2 L 154.8 31.2 M 145.8 31.2 L 148.5 32.5 M 148.5 32.5 L 150.4 34.8 M 148.5 32.5 L 151.2 33.8 M 151.2 33.8 L 154.2 33.8 M 151.2 33.8 L 153.9 35.1 M 81.0 0.0 L 84.0 0.0 M 84.0 0.0 L 86.7 1.3 M 84.0 0.0 L 87.0 0.0 M 87.0 0.0 L 89.7 -1.3 M 87.0 0.0 L 90.0 0.0 M 90.0 0.0 L 92.7 1.3 M 92.7 1.3 L 94.6 3.6 M 92.7 1.3 L 95.4 2.6 M 95.4 2.6 L 98.4 2.6 M 95.4 2.6 L 98.1 3.9 M 90.0 0.0 L 93.0 0.0 M 93.0 0.0 L 95.7 1.3 M 93.0 0.0 L 96.0 0.0 M 96.0 0.0 L 98.7 -1.3 M 96.0 0.0 L 99.0 0.0 M 99.0 0.0 L 101.7 -1.3 M 101.7 -1.3 L 104.7 -1.3 M 101.7 -1.3 L 104.4 -2.6 M 104.4 -2.6 L 106.3 -4.9 M 104.4 -2.6 L 107.1 -3.9 M 99.0 0.0 L 102.0 0.0 M 102.0 0.0 L 104.7 1.3 M 102.0 0.0 L 105.0 0.0 M 105.0 0.0 L 107.7 -1.3 M 105.0 0.0 L 108.0 0.0 M 108.0 0.0 L 110.7 1.3 M 110.7 1.3 L 112.6 3.6 M 110.7 1.3 L 113.4 2.6 M 113.4 2.6 L 116.4 2.6 M 113.4 2.6 L 116.1 3.9 M 116.1 3.9 L 118.0 6.2 M 118.0 6.2 L 118.7 9.1 M 118.0 6.2 L 119.9 8.5 M 119.9 8.5 L 122.6 9.8 M 119.9 8.5 L 121.8 10.8 M 116.1 3.9 L 118.8 5.2 M 118.8 5.2 L 120.7 7.5 M 118.8 5.2 L 121.5 6.5 M 121.5 6.5 L 124.5 6.5 M 121.5 6.5 L 124.2 7.8 M 124.2 7.8 L 127.2 7.8 M 127.2 7.8 L 129.9 9.1 M 127.2 7.8 L 130.2 7.8 M 130.2 7.8 L 132.9 6.5 M 130.2 7.8 L 133.2 7.8 M 124.2 7.8 L 126.9 9.1 M 126.9 9.1 L 128.8 11.4 M 126.9 9.1 L 129.6 10.4 M 129.6 10.4 L 132.6 10.4 M 129.6 10.4 L 132.3 11.7 M 108.0 0.0 L 111.0 0.0 M 111.0 0.0 L 113.7 1.3 M 111.0 0.0 L 114.0 0.0 M 114.0 0.0 L 116.7 -1.3 M 114.0 0.0 L 117.0 0.0 M 117.0 0.0 L 119.7 1.3 M 119.7 1.3 L 121.6 3.6 M 119.7 1.3 L 122.4 2.6 M 122.4 2.6 L 125.4 2.6 M 122.4 2.6 L 125.1 3.9 M 117.0 0.0 L 120.0 0.0 M 120.0 0.0 L 122.7 1.3 M 120.0 0.0 L 123.0 0.0 M 123.0 0.0 L 125.7 -1.3 M 123.0 0.0 L 126.0 0.0 M 126.0 0.0 L 128.7 -1.3 M 128.7 -1.3 L 131.7 -1.3 M 128.7 -1.3 L 131.4 -2.6 M 131.4 -2.6 L 133.3 -4.9 M 131.4 -2.6 L 134.1 -3.9 M 126.0 0.0 L 129.0 0.0 M 129.0 0.0 L 131.7 1.3 M 129.0 0.0 L 132.0 0.0 M 132.0 0.0 L 134.7 -1.3 M 132.0 0.0 L 135.0 0.0 M 135.0 0.0 L 137.7 -1.3 M 137.7 -1.3 L 140.7 -1.3 M 137.7 -1.3 L 140.4 -2.6 M 140.4 -2.6 L 142.3 -4.9 M 140.4 -2.6 L 143.1 -3.9 M 143.1 -3.9 L 146.1 -3.9 M 146.1 -3.9 L 148.8 -2.6 M 146.1 -3.9 L 149.1 -3.9 M 149.1 -3.9 L 151.8 -5.2 M 149.1 -3.9 L 152.1 -3.9 M 143.1 -3.9 L 145.8 -5.2 M 145.8 -5.2 L 148.8 -5.2 M 145.8 -5.2 L 148.5 -6.5 M 148.5 -6.5 L 150.4 -8.8 M 148.5 -6.5 L 151.2 -7.8 M 151.2 -7.8 L 153.1 -10.1 M 153.1 -10.1 L 155.8 -11.4 M 153.1 -10.1 L 155.0 -12.4 M 155.0 -12.4 L 155.7 -15.3 M 155.0 -12.4 L 156.9 -14.7 M 151.2 -7.8 L 153.9 -9.1 M 153.9 -9.1 L 156.9 -9.1 M 153.9 -9.1 L 156.6 -10.4 M 156.6 -10.4 L 158.5 -12.7 M 156.6 -10.4 L 159.3 -11.7 M 135.0 0.0 L 138.0 0.0 M 138.0 0.0 L 140.7 1.3 M 138.0 0.0 L 141.0 0.0 M 141.0 0.0 L 143.7 -1.3 M 141.0 0.0 L 144.0 0.0 M 144.0 0.0 L 146.7 1.3 M 146.7 1.3 L 148.6 3.6 M 146.7 1.3 L 149.4 2.6 M 149.4 2.6 L 152.4 2.6 M 149.4 2.6 L 152.1 3.9 M 144.0 0.0 L 147.0 0.0 M 147.0 0.0 L 149.7 1.3 M 147.0 0.0 L 150.0 0.0 M 150.0 0.0 L 152.7 -1.3 M 150.0 0.0 L 153.0 0.0 M 153.0 0.0 L 155.7 -1.3 M 155.7 -1.3 L 158.7 -1.3 M 155.7 -1.3 L 158.4 -2.6 M 158.4 -2.6 L 160.3 -4.9 M 158.4 -2.6 L 161.1 -3.9 M 153.0 0.0 L 156.0 0.0 M 156.0 0.0 L 158.7 1.3 M 156.0 0.0 L 159.0 0.0 M 159.0 0.0 L 161.7 -1.3 M 159.0 0.0 L 162.0 0.0 M 162.0 0.0 L 164.7 -1.3 M 164.7 -1.3 L 167.7 -1.3 M 164.7 -1.3 L 167.4 -2.6 M 167.4 -2.6 L 169.3 -4.9 M 167.4 -2.6 L 170.1 -3.9 M 170.1 -3.9 L 173.1 -3.9 M 173.1 -3.9 L 175.8 -2.6 M 173.1 -3.9 L 176.1 -3.9 M 176.1 -3.9 L 178.8 -5.2 M 176.1 -3.9 L 179.1 -3.9 M 170.1 -3.9 L 172.8 -5.2 M 172.8 -5.2 L 175.8 -5.2 M 172.8 -5.2 L 175.5 -6.5 M 175.5 -6.5 L 177.4 -8.8 M 175.5 -6.5 L 178.2 -7.8 M 178.2 -7.8 L 180.1 -10.1 M 180.1 -10.1 L 182.8 -11.4 M 180.1 -10.1 L 182.0 -12.4 M 182.0 -12.4 L 182.7 -15.3 M 182.0 -12.4 L 183.9 -14.7 M 178.2 -7.8 L 180.9 -9.1 M 180.9 -9.1 L 183.9 -9.1 M 180.9 -9.1 L 183.6 -10.4 M 183.6 -10.4 L 185.5 -12.7 M 183.6 -10.4 L 186.3 -11.7 M 186.3 -11.7 L 189.3 -11.7 M 189.3 -11.7 L 192.0 -10.4 M 189.3 -11.7 L 192.3 -11.7 M 192.3 -11.7 L 195.0 -13.0 M 192.3 -11.7 L 195.3 -11.7 M 195.3 -11.7 L 198.0 -10.4 M 198.0 -10.4 L 199.9 -8.1 M 198.0 -10.4 L 200.7 -9.1 M 200.7 -9.1 L 203.7 -9.1 M 200.7 -9.1 L 203.4 -7.8 M 195.3 -11.7 L 198.3 -11.7 M 198.3 -11.7 L 201.0 -10.4 M 198.3 -11.7 L 201.3 -11.7 M 201.3 -11.7 L 204.0 -13.0 M 201.3 -11.7 L 204.3 -11.7 M 204.3 -11.7 L 207.0 -13.0 M 207.0 -13.0 L 210.0 -13.0 M 207.0 -13.0 L 209.7 -14.3 M 209.7 -14.3 L 211.6 -16.6 M 209.7 -14.3 L 212.4 -15.6 M 204.3 -11.7 L 207.3 -11.7 M 207.3 -11.7 L 210.0 -10.4 M 207.3 -11.7 L 210.3 -11.7 M 210.3 -11.7 L 213.0 -13.0 M 210.3 -11.7 L 213.3 -11.7 M 186.3 -11.7 L 189.0 -13.0 M 189.0 -13.0 L 192.0 -13.0 M 189.0 -13.0 L 191.7 -14.3 M 191.7 -14.3 L 193.6 -16.6 M 191.7 -14.3 L 194.4 -15.6 M 194.4 -15.6 L 197.4 -15.6 M 197.4 -15.6 L 200.1 -14.3 M 197.4 -15.6 L 200.4 -15.6 M 200.4 -15.6 L 203.1 -16.9 M 200.4 -15.6 L 203.4 -15.6 M 194.4 -15.6 L 197.1 -16.9 M 197.1 -16.9 L 200.1 -16.9 M 197.1 -16.9 L 199.8 -18.2 M 199.8 -18.2 L 201.7 -20.5 M 199.8 -18.2 L 202.5 -19.5 M 202.5 -19.5 L 204.4 -21.8 M 204.4 -21.8 L 207.1 -23.1 M 204.4 -21.8 L 206.3 -24.1 M 206.3 -24.1 L 207.0 -27.0 M 206.3 -24.1 L 208.2 -26.4 M 202.5 -19.5 L 205.2 -20.8 M 205.2 -20.8 L 208.2 -20.8 M 205.2 -20.8 L 207.9 -22.1 M 207.9 -22.1 L 209.8 -24.4 M 207.9 -22.1 L 210.6 -23.4 M 210.6 -23.4 L 212.5 -25.7 M 212.5 -25.7 L 215.2 -27.0 M 212.5 -25.7 L 214.4 -28.0 M 214.4 -28.0 L 215.1 -30.9 M 214.4 -28.0 L 216.3 -30.3 M 216.3 -30.3 L 219.0 -31.6 M 219.0 -31.6 L 222.0 -31.6 M 219.0 -31.6 L 221.7 -32.9 M 221.7 -32.9 L 223.6 -35.2 M 221.7 -32.9 L 224.4 -34.2 M 216.3 -30.3 L 218.2 -32.6 M 218.2 -32.6 L 220.9 -33.9 M 218.2 -32.6 L 220.1 -34.9 M 220.1 -34.9 L 220.8 -37.8 M 220.1 -34.9 L 222.0 -37.2 M 222.0 -37.2 L 222.7 -40.1 M 222.7 -40.1 L 224.6 -42.4 M 222.7 -40.1 L 223.4 -43.0 M 223.4 -43.0 L 222.7 -45.9 M 223.4 -43.0 L 224.1 -45.9 M 222.0 -37.2 L 223.9 -39.5 M 223.9 -39.5 L 226.6 -40.8 M 223.9 -39.5 L 225.8 -41.8 M 225.8 -41.8 L 226.5 -44.7 M 225.8 -41.8 L 227.7 -44.1 M 210.6 -23.4 L 213.3 -24.7 M 213.3 -24.7 L 216.3 -24.7 M 213.3 -24.7 L 216.0 -26.0 M 216.0 -26.0 L 217.9 -28.3 M 216.0 -26.0 L 218.7 -27.3 M 218.7 -27.3 L 221.7 -27.3 M 221.7 -27.3 L 224.4 -26.0 M 221.7 -27.3 L 224.7 -27.3 M 224.7 -27.3 L 227.4 -28.6 M 224.7 -27.3 L 227.7 -27.3 M 218.7 -27.3 L 221.4 -28.6 M 221.4 -28.6 L 224.4 -28.6 M 221.4 -28.6 L 224.1 -29.9 M 224.1 -29.9 L 226.0 -32.2 M 224.1 -29.9 L 226.8 -31.2 M 226.8 -31.2 L 228.7 -33.5 M 228.7 -33.5 L 231.4 -34.8 M 228.7 -33.5 L 230.6 -35.8 M 230.6 -35.8 L 231.3 -38.7 M 230.6 -35.8 L 232.5 -38.1 M 226.8 -31.2 L 229.5 -32.5 M 229.5 -32.5 L 232.5 -32.5 M 229.5 -32.5 L 232.2 -33.8 M 232.2 -33.8 L 234.1 -36.1 M 232.2 -33.8 L 234.9 -35.1 M 162.0 0.0 L 165.0 0.0 M 165.0 0.0 L 167.7 1.3 M 165.0 0.0 L 168.0 0.0 M 168.0 0.0 L 170.7 -1.3 M 168.0 0.0 L 171.0 0.0 M 171.0 0.0 L 173.7 1.3 M 173.7 1.3 L 175.6 3.6 M 173.7 1.3 L 176.4 2.6 M 176.4 2.6 L 179.4 2.6 M 176.4 2.6 L 179.1 3.9 M 171.0 0.0 L 174.0 0.0 M 174.0 0.0 L 176.7 1.3 M 174.0 0.0 L 177.0 0.0 M 177.0 0.0 L 179.7 -1.3 M 177.0 0.0 L 180.0 0.0 M 180.0 0.0 L 182.7 -1.3 M 182.7 -1.3 L 185.7 -1.3 M 182.7 -1.3 L 185.4 -2.6 M 185.4 -2.6 L 187.3 -4.9 M 185.4 -2.6 L 188.1 -3.9 M 180.0 0.0 L 183.0 0.0 M 183.0 0.0 L 185.7 1.3 M 183.0 0.0 L 186.0 0.0 M 186.0 0.0 L 188.7 -1.3 M 186.0 0.0 L 189.0 0.0 M 189.0 0.0 L 191.7 1.3 M 191.7 1.3 L 193.6 3.6 M 191.7 1.3 L 194.4 2.6 M 194.4 2.6 L 197.4 2.6 M 194.4 2.6 L 197.1 3.9 M 197.1 3.9 L 199.0 6.2 M 199.0 6.2 L 199.7 9.1 M 199.0 6.2 L 200.9 8.5 M 200.9 8.5 L 203.6 9.8 M 200.9 8.5 L 202.8 10.8 M 197.1 3.9 L 199.8 5.2 M 199.8 5.2 L 201.7 7.5 M 199.8 5.2 L 202.5 6.5 M 202.5 6.5 L 205.5 6.5 M 202.5 6.5 L 205.2 7.8 M 205.2 7.8 L 208.2 7.8 M 208.2 7.8 L 210.9 9.1 M 208.2 7.8 L 211.2 7.8 M 211.2 7.8 L 213.9 6.5 M 211.2 7.8 L 214.2 7.8 M 205.2 7.8 L 207.9 9.1 M 207.9 9.1 L 209.8 11.4 M 207.9 9.1 L 210.6 10.4 M 210.6 10.4 L 213.6 10.4 M 210.6 10.4 L 213.3 11.7 M 189.0 0.0 L 192.0 0.0 M 192.0 0.0 L 194.7 1.3 M 192.0 0.0 L 195.0 0.0 M 195.0 0.0 L 197.7 -1.3 M 195.0 0.0 L 198.0 0.0 M 198.0 0.0 L 200.7 1.3 M 200.7 1.3 L 202.6 3.6 M 200.7 1.3 L 203.4 2.6 M 203.4 2.6 L 206.4 2.6 M 203.4 2.6 L 206.1 3.9 M 198.0 0.0 L 201.0 0.0 M 201.0 0.0 L 203.7 1.3 M 201.0 0.0 L 204.0 0.0 M 204.0 0.0 L 206.7 -1.3 M 204.0 0.0 L 207.0 0.0 M 207.0 0.0 L 209.7 -1.3 M 209.7 -1.3 L 212.7 -1.3 M 209.7 -1.3 L 212.4 -2.6 M 212.4 -2.6 L 214.3 -4.9 M 212.4 -2.6 L 215.1 -3.9 M 207.0 0.0 L 210.0 0.0 M 210.0 0.0 L 212.7 1.3 M 210.0 0.0 L 213.0 0.0 M 213.0 0.0 L 215.7 -1.3 M 213.0 0.0 L 216.0 0.0 M 216.0 0.0 L 218.7 -1.3 M 218.7 -1.3 L 221.7 -1.3 M 218.7 -1.3 L 221.4 -2.6 M 221.4 -2.6 L 223.3 -4.9 M 221.4 -2.6 L 224.1 -3.9 M 224.1 -3.9 L 227.1 -3.9 M 227.1 -3.9 L 229.8 -2.6 M 227.1 -3.9 L 230.1 -3.9 M 230.1 -3.9 L 232.8 -5.2 M 230.1 -3.9 L 233.1 -3.9 M 224.1 -3.9 L 226.8 -5.2 M 226.8 -5.2 L 229.8 -5.2 M 226.8 -5.2 L 229.5 -6.5 M 229.5 -6.5 L 231.4 -8.8 M 229.5 -6.5 L 232.2 -7.8 M 232.2 -7.8 L 234.1 -10.1 M 234.1 -10.1 L 236.8 -11.4 M 234.1 -10.1 L 236.0 -12.4 M 236.0 -12.4 L 236.7 -15.3 M 236.0 -12.4 L 237.9 -14.7 M 232.2 -7.8 L 234.9 -9.1 M 234.9 -9.1 L 237.9 -9.1 M 234.9 -9.1 L 237.6 -10.4 M 237.6 -10.4 L 239.5 -12.7 M 237.6 -10.4 L 240.3 -11.7 M 216.0 0.0 L 219.0 0.0 M 219.0 0.0 L 221.7 1.3 M 219.0 0.0 L 222.0 0.0 M 222.0 0.0 L 224.7 -1.3 M 222.0 0.0 L 225.0 0.0 M 225.0 0.0 L 227.7 1.3 M 227.7 1.3 L 229.6 3.6 M 227.7 1.3 L 230.4 2.6 M 230.4 2.6 L 233.4 2.6 M 230.4 2.6 L 233.1 3.9 M 225.0 0.0 L 228.0 0.0 M 228.0 0.0 L 230.7 1.3 M 228.0 0.0 L 231.0 0.0 M 231.0 0.0 L 233.7 -1.3 M 231.0 0.0 L 234.0 0.0 M 234.0 0.0 L 236.7 -1.3 M 236.7 -1.3 L 239.7 -1.3 M 236.7 -1.3 L 239.4 -2.6 M 239.4 -2.6 L 241.3 -4.9 M 239.4 -2.6 L 242.1 -3.9 M 234.0 0.0 L 237.0 0.0 M 237.0 0.0 L 239.7 1.3 M 237.0 0.0 L 240.0 0.0 M 240.0 0.0 L 242.7 -1.3 M 240.0 0.0 L 243.0 0.0 M 243.0 0.0 L 245.7 1.3 M 245.7 1.3 L 247.6 3.6 M 245.7 1.3 L 248.4 2.6 M 248.4 2.6 L 251.4 2.6 M 248.4 2.6 L 251.1 3.9 M 251.1 3.9 L 253.0 6.2 M 253.0 6.2 L 253.7 9.1 M 253.0 6.2 L 254.9 8.5 M 254.9 8.5 L 257.6 9.8 M 254.9 8.5 L 256.8 10.8 M 251.1 3.9 L 253.8 5.2 M 253.8 5.2 L 255.7 7.5 M 253.8 5.2 L 256.5 6.5 M 256.5 6.5 L 259.5 6.5 M 256.5 6.5 L 259.2 7.8 M 259.2 7.8 L 262.2 7.8 M 262.2 7.8 L 264.9 9.1 M 262.2 7.8 L 265.2 7.8 M 265.2 7.8 L 267.9 6.5 M 265.2 7.8 L 268.2 7.8 M 259.2 7.8 L 261.9 9.1 M 261.9 9.1 L 263.8 11.4 M 261.9 9.1 L 264.6 10.4 M 264.6 10.4 L 267.6 10.4 M 264.6 10.4 L 267.3 11.7 M 267.3 11.7 L 269.2 14.0 M 269.2 14.0 L 269.9 16.9 M 269.2 14.0 L 271.1 16.3 M 271.1 16.3 L 273.8 17.6 M 271.1 16.3 L 273.0 18.6 M 273.0 18.6 L 273.7 21.5 M 273.7 21.5 L 273.0 24.4 M 273.7 21.5 L 274.4 24.4 M 274.4 24.4 L 276.3 26.7 M 274.4 24.4 L 275.1 27.3 M 273.0 18.6 L 274.9 20.9 M 274.9 20.9 L 275.6 23.8 M 274.9 20.9 L 276.8 23.2 M 276.8 23.2 L 279.5 24.5 M 276.8 23.2 L 278.7 25.5 M 278.7 25.5 L 281.4 26.8 M 281.4 26.8 L 283.3 29.1 M 281.4 26.8 L 284.1 28.1 M 284.1 28.1 L 287.1 28.1 M 284.1 28.1 L 286.8 29.4 M 278.7 25.5 L 280.6 27.8 M 280.6 27.8 L 281.3 30.7 M 280.6 27.8 L 282.5 30.1 M 282.5 30.1 L 285.2 31.4 M 282.5 30.1 L 284.4 32.4 M 267.3 11.7 L 270.0 13.0 M 270.0 13.0 L 271.9 15.3 M 270.0 13.0 L 272.7 14.3 M 272.7 14.3 L 275.7 14.3 M 272.7 14.3 L 275.4 15.6 M 275.4 15.6 L 277.3 17.9 M 277.3 17.9 L 278.0 20.8 M 277.3 17.9 L 279.2 20.2 M 279.2 20.2 L 281.9 21.5 M 279.2 20.2 L 281.1 22.5 M 275.4 15.6 L 278.1 16.9 M 278.1 16.9 L 280.0 19.2 M 278.1 16.9 L 280.8 18.2 M 280.8 18.2 L 283.8 18.2 M 280.8 18.2 L 283.5 19.5 M 283.5 19.5 L 286.5 19.5 M 286.5 19.5 L 289.2 20.8 M 286.5 19.5 L 289.5 19.5 M 289.5 19.5 L 292.2 18.2 M 289.5 19.5 L 292.5 19.5 M 283.5 19.5 L 286.2 20.8 M 286.2 20.8 L 288.1 23.1 M 286.2 20.8 L 288.9 22.1 M 288.9 22.1 L 291.9 22.1 M 288.9 22.1 L 291.6 23.4 M 291.6 23.4 L 294.6 23.4 M 294.6 23.4 L 297.3 24.7 M 294.6 23.4 L 297.6 23.4 M 297.6 23.4 L 300.3 22.1 M 297.6 23.4 L 300.6 23.4 M 300.6 23.4 L 303.3 24.7 M 303.3 24.7 L 305.2 27.0 M 303.3 24.7 L 306.0 26.0 M 306.0 26.0 L 309.0 26.0 M 306.0 26.0 L 308.7 27.3 M 300.6 23.4 L 303.6 23.4 M 303.6 23.4 L 306.3 24.7 M 303.6 23.4 L 306.6 23.4 M 306.6 23.4 L 309.3 22.1 M 306.6 23.4 L 309.6 23.4 M 309.6 23.4 L 312.3 22.1 M 312.3 22.1 L 315.3 22.1 M 312.3 22.1 L 315.0 20.8 M 315.0 20.8 L 316.9 18.5 M 315.0 20.8 L 317.7 19.5 M 309.6 23.4 L 312.6 23.4 M 312.6 23.4 L 315.3 24.7 M 312.6 23.4 L 315.6 23.4 M 315.6 23.4 L 318.3 22.1 M 315.6 23.4 L 318.6 23.4 M 291.6 23.4 L 294.3 24.7 M 294.3 24.7 L 296.2 27.0 M 294.3 24.7 L 297.0 26.0 M 297.0 26.0 L 300.0 26.0 M 297.0 26.0 L 299.7 27.3 M 299.7 27.3 L 301.6 29.6 M 301.6 29.6 L 302.3 32.5 M 301.6 29.6 L 303.5 31.9 M 303.5 31.9 L 306.2 33.2 M 303.5 31.9 L 305.4 34.2 M 299.7 27.3 L 302.4 28.6 M 302.4 28.6 L 304.3 30.9 M 302.4 28.6 L 305.1 29.9 M 305.1 29.9 L 308.1 29.9 M 305.1 29.9 L 307.8 31.2 M 307.8 31.2 L 310.8 31.2 M 310.8 31.2 L 313.5 32.5 M 310.8 31.2 L 313.8 31.2 M 313.8 31.2 L 316.5 29.9 M 313.8 31.2 L 316.8 31.2 M 307.8 31.2 L 310.5 32.5 M 310.5 32.5 L 312.4 34.8 M 310.5 32.5 L 313.2 33.8 M 313.2 33.8 L 316.2 33.8 M 313.2 33.8 L 315.9 35.1 M 315.9 35.1 L 317.8 37.4 M 317.8 37.4 L 318.5 40.3 M 317.8 37.4 L 319.7 39.7 M 319.7 39.7 L 322.4 41.0 M 319.7 39.7 L 321.6 42.0 M 321.6 42.0 L 322.3 44.9 M 322.3 44.9 L 321.6 47.8 M 322.3 44.9 L 323.0 47.8 M 323.0 47.8 L 324.9 50.1 M 323.0 47.8 L 323.7 50.7 M 321.6 42.0 L 323.5 44.3 M 323.5 44.3 L 324.2 47.2 M 323.5 44.3 L 325.4 46.6 M 325.4 46.6 L 328.1 47.9 M 325.4 46.6 L 327.3 48.9 M 327.3 48.9 L 330.0 50.2 M 330.0 50.2 L 331.9 52.5 M 330.0 50.2 L 332.7 51.5 M 332.7 51.5 L 335.7 51.5 M 332.7 51.5 L 335.4 52.8 M 327.3 48.9 L 329.2 51.2 M 329.2 51.2 L 329.9 54.1 M 329.2 51.2 L 331.1 53.5 M 331.1 53.5 L 333.8 54.8 M 331.1 53.5 L 333.0 55.8 M 333.0 55.8 L 333.7 58.7 M 333.7 58.7 L 333.0 61.6 M 333.7 58.7 L 334.4 61.6 M 334.4 61.6 L 336.3 63.9 M 334.4 61.6 L 335.1 64.5 M 335.1 64.5 L 334.4 67.4 M 334.4 67.4 L 332.5 69.7 M 334.4 67.4 L 333.7 70.3 M 333.7 70.3 L 334.4 73.2 M 333.7 70.3 L 333.0 73.2 M 335.1 64.5 L 335.8 67.4 M 335.8 67.4 L 335.1 70.3 M 335.8 67.4 L 336.5 70.3 M 336.5 70.3 L 338.4 72.6 M 336.5 70.3 L 337.2 73.2 M 337.2 73.2 L 339.1 75.5 M 339.1 75.5 L 339.8 78.4 M 339.1 75.5 L 341.0 77.8 M 341.0 77.8 L 343.7 79.1 M 341.0 77.8 L 342.9 80.1 M 337.2 73.2 L 337.9 76.1 M 337.9 76.1 L 337.2 79.0 M 337.9 76.1 L 338.6 79.0 M 338.6 79.0 L 340.5 81.3 M 338.6 79.0 L 339.3 81.9 M 333.0 55.8 L 334.9 58.1 M 334.9 58.1 L 335.6 61.0 M 334.9 58.1 L 336.8 60.4 M 336.8 60.4 L 339.5 61.7 M 336.8 60.4 L 338.7 62.7 M 338.7 62.7 L 339.4 65.6 M 339.4 65.6 L 338.7 68.5 M 339.4 65.6 L 340.1 68.5 M 340.1 68.5 L 342.0 70.8 M 340.1 68.5 L 340.8 71.4 M 338.7 62.7 L 340.6 65.0 M 340.6 65.0 L 341.3 67.9 M 340.6 65.0 L 342.5 67.3 M 342.5 67.3 L 345.2 68.6 M 342.5 67.3 L 344.4 69.6 M 344.4 69.6 L 347.1 70.9 M 347.1 70.9 L 349.0 73.2 M 347.1 70.9 L 349.8 72.2 M 349.8 72.2 L 352.8 72.2 M 349.8 72.2 L 352.5 73.5 M 344.4 69.6 L 346.3 71.9 M 346.3 71.9 L 347.0 74.8 M 346.3 71.9 L 348.2 74.2 M 348.2 74.2 L 350.9 75.5 M 348.2 74.2 L 350.1 76.5 M 350.1 76.5 L 352.8 77.8 M 352.8 77.8 L 354.7 80.1 M 352.8 77.8 L 355.5 79.1 M 355.5 79.1 L 358.5 79.1 M 355.5 79.1 L 358.2 80.4 M 358.2 80.4 L 360.1 82.7 M 360.1 82.7 L 360.8 85.6 M 360.1 82.7 L 362.0 85.0 M 362.0 85.0 L 364.7 86.3 M 362.0 85.0 L 363.9 87.3 M 358.2 80.4 L 360.9 81.7 M 360.9 81.7 L 362.8 84.0 M 360.9 81.7 L 363.6 83.0 M 363.6 83.0 L 366.6 83.0 M 363.6 83.0 L 366.3 84.3 M 366.3 84.3 L 369.3 84.3 M 369.3 84.3 L 372.0 85.6 M 369.3 84.3 L 372.3 84.3 M 372.3 84.3 L 375.0 83.0 M 372.3 84.3 L 375.3 84.3 M 366.3 84.3 L 369.0 85.6 M 369.0 85.6 L 370.9 87.9 M 369.0 85.6 L 371.7 86.9 M 371.7 86.9 L 374.7 86.9 M 371.7 86.9 L 374.4 88.2 M 350.1 76.5 L 352.0 78.8 M 352.0 78.8 L 352.7 81.7 M 352.0 78.8 L 353.9 81.1 M 353.9 81.1 L 356.6 82.4 M 353.9 81.1 L 355.8 83.4 M 355.8 83.4 L 356.5 86.3 M 356.5 86.3 L 355.8 89.2 M 356.5 86.3 L 357.2 89.2 M 357.2 89.2 L 359.1 91.5 M 357.2 89.2 L 357.9 92.1 M 355.8 83.4 L 357.7 85.7 M 357.7 85.7 L 358.4 88.6 M 357.7 85.7 L 359.6 88.0 M 359.6 88.0 L 362.3 89.3 M 359.6 88.0 L 361.5 90.3 M 361.5 90.3 L 364.2 91.6 M 364.2 91.6 L 366.1 93.9 M 364.2 91.6 L 366.9 92.9 M 366.9 92.9 L 369.9 92.9 M 366.9 92.9 L 369.6 94.2 M 361.5 90.3 L 363.4 92.6 M 363.4 92.6 L 364.1 95.5 M 363.4 92.6 L 365.3 94.9 M 365.3 94.9 L 368.0 96.2 M 365.3 94.9 L 367.2 97.2 M 315.9 35.1 L 318.6 36.4 M 318.6 36.4 L 320.5 38.7 M 318.6 36.4 L 321.3 37.7 M 321.3 37.7 L 324.3 37.7 M 321.3 37.7 L 324.0 39.0 M 324.0 39.0 L 325.9 41.3 M 325.9 41.3 L 326.6 44.2 M 325.9 41.3 L 327.8 43.6 M 327.8 43.6 L 330.5 44.9 M 327.8 43.6 L 329.7 45.9 M 324.0 39.0 L 326.7 40.3 M 326.7 40.3 L 328.6 42.6 M 326.7 40.3 L 329.4 41.6 M 329.4 41.6 L 332.4 41.6 M 329.4 41.6 L 332.1 42.9 M 332.1 42.9 L 335.1 42.9 M 335.1 42.9 L 337.8 44.2 M 335.1 42.9 L 338.1 42.9 M 338.1 42.9 L 340.8 41.6 M 338.1 42.9 L 341.1 42.9 M 332.1 42.9 L 334.8 44.2 M 334.8 44.2 L 336.7 46.5 M 334.8 44.2 L 337.5 45.5 M 337.5 45.5 L 340.5 45.5 M 337.5 45.5 L 340.2 46.8 M 340.2 46.8 L 342.1 49.1 M 342.1 49.1 L 342.8 52.0 M 342.1 49.1 L 344.0 51.4 M 344.0 51.4 L 346.7 52.7 M 344.0 51.4 L 345.9 53.7 M 345.9 53.7 L 346.6 56.6 M 346.6 56.6 L 345.9 59.5 M 346.6 56.6 L 347.3 59.5 M 347.3 59.5 L 349.2 61.8 M 347.3 59.5 L 348.0 62.4 M 345.9 53.7 L 347.8 56.0 M 347.8 56.0 L 348.5 58.9 M 347.8 56.0 L 349.7 58.3 M 349.7 58.3 L 352.4 59.6 M 349.7 58.3 L 351.6 60.6 M 351.6 60.6 L 354.3 61.9 M 354.3 61.9 L 356.2 64.2 M 354.3 61.9 L 357.0 63.2 M 357.0 63.2 L 360.0 63.2 M 357.0 63.2 L 359.7 64.5 M 351.6 60.6 L 353.5 62.9 M 353.5 62.9 L 354.2 65.8 M 353.5 62.9 L 355.4 65.2 M 355.4 65.2 L 358.1 66.5 M 355.4 65.2 L 357.3 67.5 M 340.2 46.8 L 342.9 48.1 M 342.9 48.1 L 344.8 50.4 M 342.9 48.1 L 345.6 49.4 M 345.6 49.4 L 348.6 49.4 M 345.6 49.4 L 348.3 50.7 M 348.3 50.7 L 350.2 53.0 M 350.2 53.0 L 350.9 55.9 M 350.2 53.0 L 352.1 55.3 M 352.1 55.3 L 354.8 56.6 M 352.1 55.3 L 354.0 57.6 M 348.3 50.7 L 351.0 52.0 M 351.0 52.0 L 352.9 54.3 M 351.0 52.0 L 353.7 53.3 M 353.7 53.3 L 356.7 53.3 M 353.7 53.3 L 356.4 54.6 M 356.4 54.6 L 359.4 54.6 M 359.4 54.6 L 362.1 55.9 M 359.4 54.6 L 362.4 54.6 M 362.4 54.6 L 365.1 53.3 M 362.4 54.6 L 365.4 54.6 M 356.4 54.6 L 359.1 55.9 M 359.1 55.9 L 361.0 58.2 M 359.1 55.9 L 361.8 57.2 M 361.8 57.2 L 364.8 57.2 M 361.8 57.2 L 364.5 58.5 M 364.5 58.5 L 367.5 58.5 M 367.5 58.5 L 370.2 59.8 M 367.5 58.5 L 370.5 58.5 M 370.5 58.5 L 373.2 57.2 M 370.5 58.5 L 373.5 58.5 M 373.5 58.5 L 376.2 59.8 M 376.2 59.8 L 378.1 62.1 M 376.2 59.8 L 378.9 61.1 M 378.9 61.1 L 381.9 61.1 M 378.9 61.1 L 381.6 62.4 M 373.5 58.5 L 376.5 58.5 M 376.5 58.5 L 379.2 59.8 M 376.5 58.5 L 379.5 58.5 M 379.5 58.5 L 382.2 57.2 M 379.5 58.5 L 382.5 58.5 M 382.5 58.5 L 385.2 57.2 M 385.2 57.2 L 388.2 57.2 M 385.2 57.2 L 387.9 55.9 M 387.9 55.9 L 389.8 53.6 M 387.9 55.9 L 390.6 54.6 M 382.5 58.5 L 385.5 58.5 M 385.5 58.5 L 388.2 59.8 M 385.5 58.5 L 388.5 58.5 M 388.5 58.5 L 391.2 57.2 M 388.5 58.5 L 391.5 58.5 M 364.5 58.5 L 367.2 59.8 M 367.2 59.8 L 369.1 62.1 M 367.2 59.8 L 369.9 61.1 M 369.9 61.1 L 372.9 61.1 M 369.9 61.1 L 372.6 62.4 M 372.6 62.4 L 374.5 64.7 M 374.5 64.7 L 375.2 67.6 M 374.5 64.7 L 376.4 67.0 M 376.4 67.0 L 379.1 68.3 M 376.4 67.0 L 378.3 69.3 M 372.6 62.4 L 375.3 63.7 M 375.3 63.7 L 377.2 66.0 M 375.3 63.7 L 378.0 65.0 M 378.0 65.0 L 381.0 65.0 M 378.0 65.0 L 380.7 66.3 M 380.7 66.3 L 383.7 66.3 M 383.7 66.3 L 386.4 67.6 M 383.7 66.3 L 386.7 66.3 M 386.7 66.3 L 389.4 65.0 M 386.7 66.3 L 389.7 66.3 M 380.7 66.3 L 383.4 67.6 M 383.4 67.6 L 385.3 69.9 M 383.4 67.6 L 386.1 68.9 M 386.1 68.9 L 389.1 68.9 M 386.1 68.9 L 388.8 70.2 M 388.8 70.2 L 391.8 70.2 M 391.8 70.2 L 394.5 71.5 M 391.8 70.2 L 394.8 70.2 M 394.8 70.2 L 397.5 68.9 M 394.8 70.2 L 397.8 70.2 M 397.8 70.2 L 400.5 71.5 M 400.5 71.5 L 402.4 73.8 M 400.5 71.5 L 403.2 72.8 M 403.2 72.8 L 406.2 72.8 M 403.2 72.8 L 405.9 74.1 M 397.8 70.2 L 400.8 70.2 M 400.8 70.2 L 403.5 71.5 M 400.8 70.2 L 403.8 70.2 M 403.8 70.2 L 406.5 68.9 M 403.8 70.2 L 406.8 70.2 M 406.8 70.2 L 409.5 68.9 M 409.5 68.9 L 412.5 68.9 M 409.5 68.9 L 412.2 67.6 M 412.2 67.6 L 414.1 65.3 M 412.2 67.6 L 414.9 66.3 M 406.8 70.2 L 409.8 70.2 M 409.8 70.2 L 412.5 71.5 M 409.8 70.2 L 412.8 70.2 M 412.8 70.2 L 415.5 68.9 M 412.8 70.2 L 415.8 70.2 M 415.8 70.2 L 418.5 71.5 M 418.5 71.5 L 420.4 73.8 M 418.5 71.5 L 421.2 72.8 M 421.2 72.8 L 424.2 72.8 M 421.2 72.8 L 423.9 74.1 M 423.9 74.1 L 425.8 76.4 M 425.8 76.4 L 426.5 79.3 M 425.8 76.4 L 427.7 78.7 M 427.7 78.7 L 430.4 80.0 M 427.7 78.7 L 429.6 81.0 M 423.9 74.1 L 426.6 75.4 M 426.6 75.4 L 428.5 77.7 M 426.6 75.4 L 429.3 76.7 M 429.3 76.7 L 432.3 76.7 M 429.3 76.7 L 432.0 78.0 M 432.0 78.0 L 435.0 78.0 M 435.0 78.0 L 437.7 79.3 M 435.0 78.0 L 438.0 78.0 M 438.0 78.0 L 440.7 76.7 M 438.0 78.0 L 441.0 78.0 M 432.0 78.0 L 434.7 79.3 M 434.7 79.3 L 436.6 81.6 M 434.7 79.3 L 437.4 80.6 M 437.4 80.6 L 440.4 80.6 M 437.4 80.6 L 440.1 81.9 M 415.8 70.2 L 418.8 70.2 M 418.8 70.2 L 421.5 71.5 M 418.8 70.2 L 421.8 70.2 M 421.8 70.2 L 424.5 68.9 M 421.8 70.2 L 424.8 70.2 M 424.8 70.2 L 427.5 71.5 M 427.5 71.5 L 429.4 73.8 M 427.5 71.5 L 430.2 72.8 M 430.2 72.8 L 433.2 72.8 M 430.2 72.8 L 432.9 74.1 M 424.8 70.2 L 427.8 70.2 M 427.8 70.2 L 430.5 71.5 M 427.8 70.2 L 430.8 70.2 M 430.8 70.2 L 433.5 68.9 M 430.8 70.2 L 433.8 70.2 M 433.8 70.2 L 436.5 68.9 M 436.5 68.9 L 439.5 68.9 M 436.5 68.9 L 439.2 67.6 M 439.2 67.6 L 441.1 65.3 M 439.2 67.6 L 441.9 66.3 M 433.8 70.2 L 436.8 70.2 M 436.8 70.2 L 439.5 71.5 M 436.8 70.2 L 439.8 70.2 M 439.8 70.2 L 442.5 68.9 M 439.8 70.2 L 442.8 70.2 M 442.8 70.2 L 445.5 68.9 M 445.5 68.9 L 448.5 68.9 M 445.5 68.9 L 448.2 67.6 M 448.2 67.6 L 450.1 65.3 M 448.2 67.6 L 450.9 66.3 M 450.9 66.3 L 453.9 66.3 M 453.9 66.3 L 456.6 67.6 M 453.9 66.3 L 456.9 66.3 M 456.9 66.3 L 459.6 65.0 M 456.9 66.3 L 459.9 66.3 M 450.9 66.3 L 453.6 65.0 M 453.6 65.0 L 456.6 65.0 M 453.6 65.0 L 456.3 63.7 M 456.3 63.7 L 458.2 61.4 M 456.3 63.7 L 459.0 62.4 M 459.0 62.4 L 460.9 60.1 M 460.9 60.1 L 463.6 58.8 M 460.9 60.1 L 462.8 57.8 M 462.8 57.8 L 463.5 54.9 M 462.8 57.8 L 464.7 55.5 M 459.0 62.4 L 461.7 61.1 M 461.7 61.1 L 464.7 61.1 M 461.7 61.1 L 464.4 59.8 M 464.4 59.8 L 466.3 57.5 M 464.4 59.8 L 467.1 58.5 M 442.8 70.2 L 445.8 70.2 M 445.8 70.2 L 448.5 71.5 M 445.8 70.2 L 448.8 70.2 M 448.8 70.2 L 451.5 68.9 M 448.8 70.2 L 451.8 70.2 M 451.8 70.2 L 454.5 71.5 M 454.5 71.5 L 456.4 73.8 M 454.5 71.5 L 457.2 72.8 M 457.2 72.8 L 460.2 72.8 M 457.2 72.8 L 459.9 74.1 M 451.8 70.2 L 454.8 70.2 M 454.8 70.2 L 457.5 71.5 M 454.8 70.2 L 457.8 70.2 M 457.8 70.2 L 460.5 68.9 M 457.8 70.2 L 460.8 70.2 M 460.8 70.2 L 463.5 68.9 M 463.5 68.9 L 466.5 68.9 M 463.5 68.9 L 466.2 67.6 M 466.2 67.6 L 468.1 65.3 M 466.2 67.6 L 468.9 66.3 M 460.8 70.2 L 463.8 70.2 M 463.8 70.2 L 466.5 71.5 M 463.8 70.2 L 466.8 70.2 M 466.8 70.2 L 469.5 68.9 M 466.8 70.2 L 469.8 70.2 M 388.8 70.2 L 391.5 71.5 M 391.5 71.5 L 393.4 73.8 M 391.5 71.5 L 394.2 72.8 M 394.2 72.8 L 397.2 72.8 M 394.2 72.8 L 396.9 74.1 M 396.9 74.1 L 398.8 76.4 M 398.8 76.4 L 399.5 79.3 M 398.8 76.4 L 400.7 78.7 M 400.7 78.7 L 403.4 80.0 M 400.7 78.7 L 402.6 81.0 M 396.9 74.1 L 399.6 75.4 M 399.6 75.4 L 401.5 77.7 M 399.6 75.4 L 402.3 76.7 M 402.3 76.7 L 405.3 76.7 M 402.3 76.7 L 405.0 78.0 M 405.0 78.0 L 408.0 78.0 M 408.0 78.0 L 410.7 79.3 M 408.0 78.0 L 411.0 78.0 M 411.0 78.0 L 413.7 76.7 M 411.0 78.0 L 414.0 78.0 M 405.0 78.0 L 407.7 79.3 M 407.7 79.3 L 409.6 81.6 M 407.7 79.3 L 410.4 80.6 M 410.4 80.6 L 413.4 80.6 M 410.4 80.6 L 413.1 81.9 M 413.1 81.9 L 415.0 84.2 M 415.0 84.2 L 415.7 87.1 M 415.0 84.2 L 416.9 86.5 M 416.9 86.5 L 419.6 87.8 M 416.9 86.5 L 418.8 88.8 M 418.8 88.8 L 419.5 91.7 M 419.5 91.7 L 418.8 94.6 M 419.5 91.7 L 420.2 94.6 M 420.2 94.6 L 422.1 96.9 M 420.2 94.6 L 420.9 97.5 M 418.8 88.8 L 420.7 91.1 M 420.7 91.1 L 421.4 94.0 M 420.7 91.1 L 422.6 93.4 M 422.6 93.4 L 425.3 94.7 M 422.6 93.4 L 424.5 95.7 M 424.5 95.7 L 427.2 97.0 M 427.2 97.0 L 429.1 99.3 M 427.2 97.0 L 429.9 98.3 M 429.9 98.3 L 432.9 98.3 M 429.9 98.3 L 432.6 99.6 M 424.5 95.7 L 426.4 98.0 M 426.4 98.0 L 427.1 100.9 M 426.4 98.0 L 428.3 100.3 M 428.3 100.3 L 431.0 101.6 M 428.3 100.3 L 430.2 102.6 M 413.1 81.9 L 415.8 83.2 M 415.8 83.2 L 417.7 85.5 M 415.8 83.2 L 418.5 84.5 M 418.5 84.5 L 421.5 84.5 M 418.5 84.5 L 421.2 85.8 M 421.2 85.8 L 423.1 88.1 M 423.1 88.1 L 423.8 91.0 M 423.1 88.1 L 425.0 90.4 M 425.0 90.4 L 427.7 91.7 M 425.0 90.4 L 426.9 92.7 M 421.2 85.8 L 423.9 87.1 M 423.9 87.1 L 425.8 89.4 M 423.9 87.1 L 426.6 88.4 M 426.6 88.4 L 429.6 88.4 M 426.6 88.4 L 429.3 89.7 M 429.3 89.7 L 432.3 89.7 M 432.3 89.7 L 435.0 91.0 M 432.3 89.7 L 435.3 89.7 M 435.3 89.7 L 438.0 88.4 M 435.3 89.7 L 438.3 89.7 M 429.3 89.7 L 432.0 91.0 M 432.0 91.0 L 433.9 93.3 M 432.0 91.0 L 434.7 92.3 M 434.7 92.3 L 437.7 92.3 M 434.7 92.3 L 437.4 93.6 M 437.4 93.6 L 440.4 93.6 M 440.4 93.6 L 443.1 94.9 M 440.4 93.6 L 443.4 93.6 M 443.4 93.6 L 446.1 92.3 M 443.4 93.6 L 446.4 93.6 M 446.4 93.6 L 449.1 94.9 M 449.1 94.9 L 451.0 97.2 M 449.1 94.9 L 451.8 96.2 M 451.8 96.2 L 454.8 96.2 M 451.8 96.2 L 454.5 97.5 M 446.4 93.6 L 449.4 93.6 M 449.4 93.6 L 452.1 94.9 M 449.4 93.6 L 452.4 93.6 M 452.4 93.6 L 455.1 92.3 M 452.4 93.6 L 455.4 93.6 M 455.4 93.6 L 458.1 92.3 M 458.1 92.3 L 461.1 92.3 M 458.1 92.3 L 460.8 91.0 M 460.8 91.0 L 462.7 88.7 M 460.8 91.0 L 463.5 89.7 M 455.4 93.6 L 458.4 93.6 M 458.4 93.6 L 461.1 94.9 M 458.4 93.6 L 461.4 93.6 M 461.4 93.6 L 464.1 92.3 M 461.4 93.6 L 464.4 93.6 M 437.4 93.6 L 440.1 94.9 M 440.1 94.9 L 442.0 97.2 M 440.1 94.9 L 442.8 96.2 M 442.8 96.2 L 445.8 96.2 M 442.8 96.2 L 445.5 97.5 M 445.5 97.5 L 447.4 99.8 M 447.4 99.8 L 448.1 102.7 M 447.4 99.8 L 449.3 102.1 M 449.3 102.1 L 452.0 103.4 M 449.3 102.1 L 451.2 104.4 M 445.5 97.5 L 448.2 98.8 M 448.2 98.8 L 450.1 101.1 M 448.2 98.8 L 450.9 100.1 M 450.9 100.1 L 453.9 100.1 M 450.9 100.1 L 453.6 101.4 M 453.6 101.4 L 456.6 101.4 M 456.6 101.4 L 459.3 102.7 M 456.6 101.4 L 459.6 101.4 M 459.6 101.4 L 462.3 100.1 M 459.6 101.4 L 462.6 101.4 M 453.6 101.4 L 456.3 102.7 M 456.3 102.7 L 458.2 105.0 M 456.3 102.7 L 459.0 104.0 M 459.0 104.0 L 462.0 104.0 M 459.0 104.0 L 461.7 105.3 M 243.0 0.0 L 246.0 0.0 M 246.0 0.0 L 248.7 1.3 M 246.0 0.0 L 249.0 0.0 M 249.0 0.0 L 251.7 -1.3 M 249.0 0.0 L 252.0 0.0 M 252.0 0.0 L 254.7 1.3 M 254.7 1.3 L 256.6 3.6 M 254.7 1.3 L 257.4 2.6 M 257.4 2.6 L 260.4 2.6 M 257.4 2.6 L 260.1 3.9 M 252.0 0.0 L 255.0 0.0 M 255.0 0.0 L 257.7 1.3 M 255.0 0.0 L 258.0 0.0 M 258.0 0.0 L 260.7 -1.3 M 258.0 0.0 L 261.0 0.0 M 261.0 0.0 L 263.7 -1.3 M 263.7 -1.3 L 266.7 -1.3 M 263.7 -1.3 L 266.4 -2.6 M 266.4 -2.6 L 268.3 -4.9 M 266.4 -2.6 L 269.1 -3.9 M 261.0 0.0 L 264.0 0.0 M 264.0 0.0 L 266.7 1.3 M 264.0 0.0 L 267.0 0.0 M 267.0 0.0 L 269.7 -1.3 M 267.0 0.0 L 270.0 0.0 M 270.0 0.0 L 272.7 1.3 M 272.7 1.3 L 274.6 3.6 M 272.7 1.3 L 275.4 2.6 M 275.4 2.6 L 278.4 2.6 M 275.4 2.6 L 278.1 3.9 M 278.1 3.9 L 280.0 6.2 M 280.0 6.2 L 280.7 9.1 M 280.0 6.2 L 281.9 8.5 M 281.9 8.5 L 284.6 9.8 M 281.9 8.5 L 283.8 10.8 M 278.1 3.9 L 280.8 5.2 M 280.8 5.2 L 282.7 7.5 M 280.8 5.2 L 283.5 6.5 M 283.5 6.5 L 286.5 6.5 M 283.5 6.5 L 286.2 7.8 M 286.2 7.8 L 289.2 7.8 M 289.2 7.8 L 291.9 9.1 M 289.2 7.8 L 292.2 7.8 M 292.2 7.8 L 294.9 6.5 M 292.2 7.8 L 295.2 7.8 M 286.2 7.8 L 288.9 9.1 M 288.9 9.1 L 290.8 11.4 M 288.9 9.1 L 291.6 10.4 M 291.6 10.4 L 294.6 10.4 M 291.6 10.4 L 294.3 11.7 M 270.0 0.0 L 273.0 0.0 M 273.0 0.0 L 275.7 1.3 M 273.0 0.0 L 276.0 0.0 M 276.0 0.0 L 278.7 -1.3 M 276.0 0.0 L 279.0 0.0 M 279.0 0.0 L 281.7 1.3 M 281.7 1.3 L 283.6 3.6 M 281.7 1.3 L 284.4 2.6 M 284.4 2.6 L 287.4 2.6 M 284.4 2.6 L 287.1 3.9 M 279.0 0.0 L 282.0 0.0 M 282.0 0.0 L 284.7 1.3 M 282.0 0.0 L 285.0 0.0 M 285.0 0.0 L 287.7 -1.3 M 285.0 0.0 L 288.0 0.0 M 288.0 0.0 L 290.7 -1.3 M 290.7 -1.3 L 293.7 -1.3 M 290.7 -1.3 L 293.4 -2.6 M 293.4 -2.6 L 295.3 -4.9 M 293.4 -2.6 L 296.1 -3.9 M 288.0 0.0 L 291.0 0.0 M 291.0 0.0 L 293.7 1.3 M 291.0 0.0 L 294.0 0.0 M 294.0 0.0 L 296.7 -1.3 M 294.0 0.0 L 297.0 0.0 M 297.0 0.0 L 299.7 -1.3 M 299.7 -1.3 L 302.7 -1.3 M 299.7 -1.3 L 302.4 -2.6 M 302.4 -2.6 L 304.3 -4.9 M 302.4 -2.6 L 305.1 -3.9 M 305.1 -3.9 L 308.1 -3.9 M 308.1 -3.9 L 310.8 -2.6 M 308.1 -3.9 L 311.1 -3.9 M 311.1 -3.9 L 313.8 -5.2 M 311.1 -3.9 L 314.1 -3.9 M 305.1 -3.9 L 307.8 -5.2 M 307.8 -5.2 L 310.8 -5.2 M 307.8 -5.2 L 310.5 -6.5 M 310.5 -6.5 L 312.4 -8.8 M 310.5 -6.5 L 313.2 -7.8 M 313.2 -7.8 L 315.1 -10.1 M 315.1 -10.1 L 317.8 -11.4 M 315.1 -10.1 L 317.0 -12.4 M 317.0 -12.4 L 317.7 -15.3 M 317.0 -12.4 L 318.9 -14.7 M 313.2 -7.8 L 315.9 -9.1 M 315.9 -9.1 L 318.9 -9.1 M 315.9 -9.1 L 318.6 -10.4 M 318.6 -10.4 L 320.5 -12.7 M 318.6 -10.4 L 321.3 -11.7 M 297.0 0.0 L 300.0 0.0 M 300.0 0.0 L 302.7 1.3 M 300.0 0.0 L 303.0 0.0 M 303.0 0.0 L 305.7 -1.3 M 303.0 0.0 L 306.0 0.0 M 306.0 0.0 L 308.7 1.3 M 308.7 1.3 L 310.6 3.6 M 308.7 1.3 L 311.4 2.6 M 311.4 2.6 L 314.4 2.6 M 311.4 2.6 L 314.1 3.9 M 306.0 0.0 L 309.0 0.0 M 309.0 0.0 L 311.7 1.3 M 309.0 0.0 L 312.0 0.0 M 312.0 0.0 L 314.7 -1.3 M 312.0 0.0 L 315.0 0.0 M 315.0 0.0 L 317.7 -1.3 M 317.7 -1.3 L 320.7 -1.3 M 317.7 -1.3 L 320.4 -2.6 M 320.4 -2.6 L 322.3 -4.9 M 320.4 -2.6 L 323.1 -3.9 M 315.0 0.0 L 318.0 0.0 M 318.0 0.0 L 320.7 1.3 M 318.0 0.0 L 321.0 0.0 M 321.0 0.0 L 323.7 -1.3 M 321.0 0.0 L 324.0 0.0 M 324.0 0.0 L 326.7 1.3 M 326.7 1.3 L 328.6 3.6 M 326.7 1.3 L 329.4 2.6 M 329.4 2.6 L 332.4 2.6 M 329.4 2.6 L 332.1 3.9 M 332.1 3.9 L 334.0 6.2 M 334.0 6.2 L 334.7 9.1 M 334.0 6.2 L 335.9 8.5 M 335.9 8.5 L 338.6 9.8 M 335.9 8.5 L 337.8 10.8 M 332.1 3.9 L 334.8 5.2 M 334.8 5.2 L 336.7 7.5 M 334.8 5.2 L 337.5 6.5 M 337.5 6.5 L 340.5 6.5 M 337.5 6.5 L 340.2 7.8 M 340.2 7.8 L 343.2 7.8 M 343.2 7.8 L 345.9 9.1 M 343.2 7.8 L 346.2 7.8 M 346.2 7.8 L 348.9 6.5 M 346.2 7.8 L 349.2 7.8 M 340.2 7.8 L 342.9 9.1 M 342.9 9.1 L 344.8 11.4 M 342.9 9.1 L 345.6 10.4 M 345.6 10.4 L 348.6 10.4 M 345.6 10.4 L 348.3 11.7 M 348.3 11.7 L 350.2 14.0 M 350.2 14.0 L 350.9 16.9 M 350.2 14.0 L 352.1 16.3 M 352.1 16.3 L 354.8 17.6 M 352.1 16.3 L 354.0 18.6 M 354.0 18.6 L 354.7 21.5 M 354.7 21.5 L 354.0 24.4 M 354.7 21.5 L 355.4 24.4 M 355.4 24.4 L 357.3 26.7 M 355.4 24.4 L 356.1 27.3 M 354.0 18.6 L 355.9 20.9 M 355.9 20.9 L 356.6 23.8 M 355.9 20.9 L 357.8 23.2 M 357.8 23.2 L 360.5 24.5 M 357.8 23.2 L 359.7 25.5 M 359.7 25.5 L 362.4 26.8 M 362.4 26.8 L 364.3 29.1 M 362.4 26.8 L 365.1 28.1 M 365.1 28.1 L 368.1 28.1 M 365.1 28.1 L 367.8 29.4 M 359.7 25.5 L 361.6 27.8 M 361.6 27.8 L 362.3 30.7 M 361.6 27.8 L 363.5 30.1 M 363.5 30.1 L 366.2 31.4 M 363.5 30.1 L 365.4 32.4 M 348.3 11.7 L 351.0 13.0 M 351.0 13.0 L 352.9 15.3 M 351.0 13.0 L 353.7 14.3 M 353.7 14.3 L 356.7 14.3 M 353.7 14.3 L 356.4 15.6 M 356.4 15.6 L 358.3 17.9 M 358.3 17.9 L 359.0 20.8 M 358.3 17.9 L 360.2 20.2 M 360.2 20.2 L 362.9 21.5 M 360.2 20.2 L 362.1 22.5 M 356.4 15.6 L 359.1 16.9 M 359.1 16.9 L 361.0 19.2 M 359.1 16.9 L 361.8 18.2 M 361.8 18.2 L 364.8 18.2 M 361.8 18.2 L 364.5 19.5 M 364.5 19.5 L 367.5 19.5 M 367.5 19.5 L 370.2 20.8 M 367.5 19.5 L 370.5 19.5 M 370.5 19.5 L 373.2 18.2 M 370.5 19.5 L 373.5 19.5 M 364.5 19.5 L 367.2 20.8 M 367.2 20.8 L 369.1 23.1 M 367.2 20.8 L 369.9 22.1 M 369.9 22.1 L 372.9 22.1 M 369.9 22.1 L 372.6 23.4 M 372.6 23.4 L 375.6 23.4 M 375.6 23.4 L 378.3 24.7 M 375.6 23.4 L 378.6 23.4 M 378.6 23.4 L 381.3 22.1 M 378.6 23.4 L 381.6 23.4 M 381.6 23.4 L 384.3 24.7 M 384.3 24.7 L 386.2 27.0 M 384.3 24.7 L 387.0 26.0 M 387.0 26.0 L 390.0 26.0 M 387.0 26.0 L 389.7 27.3 M 381.6 23.4 L 384.6 23.4 M 384.6 23.4 L 387.3 24.7 M 384.6 23.4 L 387.6 23.4 M 387.6 23.4 L 390.3 22.1 M 387.6 23.4 L 390.6 23.4 M 390.6 23.4 L 393.3 22.1 M 393.3 22.1 L 396.3 22.1 M 393.3 22.1 L 396.0 20.8 M 396.0 20.8 L 397.9 18.5 M 396.0 20.8 L 398.7 19.5 M 390.6 23.4 L 393.6 23.4 M 393.6 23.4 L 396.3 24.7 M 393.6 23.4 L 396.6 23.4 M 396.6 23.4 L 399.3 22.1 M 396.6 23.4 L 399.6 23.4 M 372.6 23.4 L 375.3 24.7 M 375.3 24.7 L 377.2 27.0 M 375.3 24.7 L 378.0 26.0 M 378.0 26.0 L 381.0 26.0 M 378.0 26.0 L 380.7 27.3 M 380.7 27.3 L 382.6 29.6 M 382.6 29.6 L 383.3 32.5 M 382.6 29.6 L 384.5 31.9 M 384.5 31.9 L 387.2 33.2 M 384.5 31.9 L 386.4 34.2 M 380.7 27.3 L 383.4 28.6 M 383.4 28.6 L 385.3 30.9 M 383.4 28.6 L 386.1 29.9 M 386.1 29.9 L 389.1 29.9 M 386.1 29.9 L 388.8 31.2 M 388.8 31.2 L 391.8 31.2 M 391.8 31.2 L 394.5 32.5 M 391.8 31.2 L 394.8 31.2 M 394.8 31.2 L 397.5 29.9 M 394.8 31.2 L 397.8 31.2 M 388.8 31.2 L 391.5 32.5 M 391.5 32.5 L 393.4 34.8 M 391.5 32.5 L 394.2 33.8 M 394.2 33.8 L 397.2 33.8 M 394.2 33.8 L 396.9 35.1 M 324.0 0.0 L 327.0 0.0 M 327.0 0.0 L 329.7 1.3 M 327.0 0.0 L 330.0 0.0 M 330.0 0.0 L 332.7 -1.3 M 330.0 0.0 L 333.0 0.0 M 333.0 0.0 L 335.7 1.3 M 335.7 1.3 L 337.6 3.6 M 335.7 1.3 L 338.4 2.6 M 338.4 2.6 L 341.4 2.6 M 338.4 2.6 L 341.1 3.9 M 333.0 0.0 L 336.0 0.0 M 336.0 0.0 L 338.7 1.3 M 336.0 0.0 L 339.0 0.0 M 339.0 0.0 L 341.7 -1.3 M 339.0 0.0 L 342.0 0.0 M 342.0 0.0 L 344.7 -1.3 M 344.7 -1.3 L 347.7 -1.3 M 344.7 -1.3 L 347.4 -2.6 M 347.4 -2.6 L 349.3 -4.9 M 347.4 -2.6 L 350.1 -3.9 M 342.0 0.0 L 345.0 0.0 M 345.0 0.0 L 347.7 1.3 M 345.0 0.0 L 348.0 0.0 M 348.0 0.0 L 350.7 -1.3 M 348.0 0.0 L 351.0 0.0 M 351.0 0.0 L 353.7 1.3 M 353.7 1.3 L 355.6 3.6 M 353.7 1.3 L 356.4 2.6 M 356.4 2.6 L 359.4 2.6 M 356.4 2.6 L 359.1 3.9 M 359.1 3.9 L 361.0 6.2 M 361.0 6.2 L 361.7 9.1 M 361.0 6.2 L 362.9 8.5 M 362.9 8.5 L 365.6 9.8 M 362.9 8.5 L 364.8 10.8 M 359.1 3.9 L 361.8 5.2 M 361.8 5.2 L 363.7 7.5 M 361.8 5.2 L 364.5 6.5 M 364.5 6.5 L 367.5 6.5 M 364.5 6.5 L 367.2 7.8 M 367.2 7.8 L 370.2 7.8 M 370.2 7.8 L 372.9 9.1 M 370.2 7.8 L 373.2 7.8 M 373.2 7.8 L 375.9 6.5 M 373.2 7.8 L 376.2 7.8 M 367.2 7.8 L 369.9 9.1 M 369.9 9.1 L 371.8 11.4 M 369.9 9.1 L 372.6 10.4 M 372.6 10.4 L 375.6 10.4 M 372.6 10.4 L 375.3 11.7 M 351.0 0.0 L 354.0 0.0 M 354.0 0.0 L 356.7 1.3 M 354.0 0.0 L 357.0 0.0 M 357.0 0.0 L 359.7 -1.3 M 357.0 0.0 L 360.0 0.0 M 360.0 0.0 L 362.7 1.3 M 362.7 1.3 L 364.6 3.6 M 362.7 1.3 L 365.4 2.6 M 365.4 2.6 L 368.4 2.6 M 365.4 2.6 L 368.1 3.9 M 360.0 0.0 L 363.0 0.0 M 363.0 0.0 L 365.7 1.3 M 363.0 0.0 L 366.0 0.0 M 366.0 0.0 L 368.7 -1.3 M 366.0 0.0 L 369.0 0.0 M 369.0 0.0 L 371.7 -1.3 M 371.7 -1.3 L 374.7 -1.3 M 371.7 -1.3 L 374.4 -2.6 M 374.4 -2.6 L 376.3 -4.9 M 374.4 -2.6 L 377.1 -3.9 M 369.0 0.0 L 372.0 0.0 M 372.0 0.0 L 374.7 1.3 M 372.0 0.0 L 375.0 0.0 M 375.0 0.0 L 377.7 -1.3 M 375.0 0.0 L 378.0 0.0 M 378.0 0.0 L 380.7 -1.3 M 380.7 -1.3 L 383.7 -1.3 M 380.7 -1.3 L 383.4 -2.6 M 383.4 -2.6 L 385.3 -4.9 M 383.4 -2.6 L 386.1 -3.9 M 386.1 -3.9 L 389.1 -3.9 M 389.1 -3.9 L 391.8 -2.6 M 389.1 -3.9 L 392.1 -3.9 M 392.1 -3.9 L 394.8 -5.2 M 392.1 -3.9 L 395.1 -3.9 M 386.1 -3.9 L 388.8 -5.2 M 388.8 -5.2 L 391.8 -5.2 M 388.8 -5.2 L 391.5 -6.5 M 391.5 -6.5 L 393.4 -8.8 M 391.5 -6.5 L 394.2 -7.8 M 394.2 -7.8 L 396.1 -10.1 M 396.1 -10.1 L 398.8 -11.4 M 396.1 -10.1 L 398.0 -12.4 M 398.0 -12.4 L 398.7 -15.3 M 398.0 -12.4 L 399.9 -14.7 M 394.2 -7.8 L 396.9 -9.1 M 396.9 -9.1 L 399.9 -9.1 M 396.9 -9.1 L 399.6 -10.4 M 399.6 -10.4 L 401.5 -12.7 M 399.6 -10.4 L 402.3 -11.7 M 378.0 0.0 L 381.0 0.0 M 381.0 0.0 L 383.7 1.3 M 381.0 0.0 L 384.0 0.0 M 384.0 0.0 L 386.7 -1.3 M 384.0 0.0 L 387.0 0.0 M 387.0 0.0 L 389.7 1.3 M 389.7 1.3 L 391.6 3.6 M 389.7 1.3 L 392.4 2.6 M 392.4 2.6 L 395.4 2.6 M 392.4 2.6 L 395.1 3.9 M 387.0 0.0 L 390.0 0.0 M 390.0 0.0 L 392.7 1.3 M 390.0 0.0 L 393.0 0.0 M 393.0 0.0 L 395.7 -1.3 M 393.0 0.0 L 396.0 0.0 M 396.0 0.0 L 398.7 -1.3 M 398.7 -1.3 L 401.7 -1.3 M 398.7 -1.3 L 401.4 -2.6 M 401.4 -2.6 L 403.3 -4.9 M 401.4 -2.6 L 404.1 -3.9 M 396.0 0.0 L 399.0 0.0 M 399.0 0.0 L 401.7 1.3 M 399.0 0.0 L 402.0 0.0 M 402.0 0.0 L 404.7 -1.3 M 402.0 0.0 L 405.0 0.0 M 405.0 0.0 L 407.7 -1.3 M 407.7 -1.3 L 410.7 -1.3 M 407.7 -1.3 L 410.4 -2.6 M 410.4 -2.6 L 412.3 -4.9 M 410.4 -2.6 L 413.1 -3.9 M 413.1 -3.9 L 416.1 -3.9 M 416.1 -3.9 L 418.8 -2.6 M 416.1 -3.9 L 419.1 -3.9 M 419.1 -3.9 L 421.8 -5.2 M 419.1 -3.9 L 422.1 -3.9 M 413.1 -3.9 L 415.8 -5.2 M 415.8 -5.2 L 418.8 -5.2 M 415.8 -5.2 L 418.5 -6.5 M 418.5 -6.5 L 420.4 -8.8 M 418.5 -6.5 L 421.2 -7.8 M 421.2 -7.8 L 423.1 -10.1 M 423.1 -10.1 L 425.8 -11.4 M 423.1 -10.1 L 425.0 -12.4 M 425.0 -12.4 L 425.7 -15.3 M 425.0 -12.4 L 426.9 -14.7 M 421.2 -7.8 L 423.9 -9.1 M 423.9 -9.1 L 426.9 -9.1 M 423.9 -9.1 L 426.6 -10.4 M 426.6 -10.4 L 428.5 -12.7 M 426.6 -10.4 L 429.3 -11.7 M 429.3 -11.7 L 432.3 -11.7 M 432.3 -11.7 L 435.0 -10.4 M 432.3 -11.7 L 435.3 -11.7 M 435.3 -11.7 L 438.0 -13.0 M 435.3 -11.7 L 438.3 -11.7 M 438.3 -11.7 L 441.0 -10.4 M 441.0 -10.4 L 442.9 -8.1 M 441.0 -10.4 L 443.7 -9.1 M 443.7 -9.1 L 446.7 -9.1 M 443.7 -9.1 L 446.4 -7.8 M 438.3 -11.7 L 441.3 -11.7 M 441.3 -11.7 L 444.0 -10.4 M 441.3 -11.7 L 444.3 -11.7 M 444.3 -11.7 L 447.0 -13.0 M 444.3 -11.7 L 447.3 -11.7 M 447.3 -11.7 L 450.0 -13.0 M 450.0 -13.0 L 453.0 -13.0 M 450.0 -13.0 L 452.7 -14.3 M 452.7 -14.3 L 454.6 -16.6 M 452.7 -14.3 L 455.4 -15.6 M 447.3 -11.7 L 450.3 -11.7 M 450.3 -11.7 L 453.0 -10.4 M 450.3 -11.7 L 453.3 -11.7 M 453.3 -11.7 L 456.0 -13.0 M 453.3 -11.7 L 456.3 -11.7 M 429.3 -11.7 L 432.0 -13.0 M 432.0 -13.0 L 435.0 -13.0 M 432.0 -13.0 L 434.7 -14.3 M 434.7 -14.3 L 436.6 -16.6 M 434.7 -14.3 L 437.4 -15.6 M 437.4 -15.6 L 440.4 -15.6 M 440.4 -15.6 L 443.1 -14.3 M 440.4 -15.6 L 443.4 -15.6 M 443.4 -15.6 L 446.1 -16.9 M 443.4 -15.6 L 446.4 -15.6 M 437.4 -15.6 L 440.1 -16.9 M 440.1 -16.9 L 443.1 -16.9 M 440.1 -16.9 L 442.8 -18.2 M 442.8 -18.2 L 444.7 -20.5 M 442.8 -18.2 L 445.5 -19.5 M 445.5 -19.5 L 447.4 -21.8 M 447.4 -21.8 L 450.1 -23.1 M 447.4 -21.8 L 449.3 -24.1 M 449.3 -24.1 L 450.0 -27.0 M 449.3 -24.1 L 451.2 -26.4 M 445.5 -19.5 L 448.2 -20.8 M 448.2 -20.8 L 451.2 -20.8 M 448.2 -20.8 L 450.9 -22.1 M 450.9 -22.1 L 452.8 -24.4 M 450.9 -22.1 L 453.6 -23.4 M 453.6 -23.4 L 455.5 -25.7 M 455.5 -25.7 L 458.2 -27.0 M 455.5 -25.7 L 457.4 -28.0 M 457.4 -28.0 L 458.1 -30.9 M 457.4 -28.0 L 459.3 -30.3 M 459.3 -30.3 L 462.0 -31.6 M 462.0 -31.6 L 465.0 -31.6 M 462.0 -31.6 L 464.7 -32.9 M 464.7 -32.9 L 466.6 -35.2 M 464.7 -32.9 L 467.4 -34.2 M 459.3 -30.3 L 461.2 -32.6 M 461.2 -32.6 L 463.9 -33.9 M 461.2 -32.6 L 463.1 -34.9 M 463.1 -34.9 L 463.8 -37.8 M 463.1 -34.9 L 465.0 -37.2 M 465.0 -37.2 L 465.7 -40.1 M 465.7 -40.1 L 467.6 -42.4 M 465.7 -40.1 L 466.4 -43.0 M 466.4 -43.0 L 465.7 -45.9 M 466.4 -43.0 L 467.1 -45.9 M 465.0 -37.2 L 466.9 -39.5 M 466.9 -39.5 L 469.6 -40.8 M 466.9 -39.5 L 468.8 -41.8 M 468.8 -41.8 L 469.5 -44.7 M 468.8 -41.8 L 470.7 -44.1 M 453.6 -23.4 L 456.3 -24.7 M 456.3 -24.7 L 459.3 -24.7 M 456.3 -24.7 L 459.0 -26.0 M 459.0 -26.0 L 460.9 -28.3 M 459.0 -26.0 L 461.7 -27.3 M 461.7 -27.3 L 464.7 -27.3 M 464.7 -27.3 L 467.4 -26.0 M 464.7 -27.3 L 467.7 -27.3 M 467.7 -27.3 L 470.4 -28.6 M 467.7 -27.3 L 470.7 -27.3 M 461.7 -27.3 L 464.4 -28.6 M 464.4 -28.6 L 467.4 -28.6 M 464.4 -28.6 L 467.1 -29.9 M 467.1 -29.9 L 469.0 -32.2 M 467.1 -29.9 L 469.8 -31.2 M 469.8 -31.2 L 471.7 -33.5 M 471.7 -33.5 L 474.4 -34.8 M 471.7 -33.5 L 473.6 -35.8 M 473.6 -35.8 L 474.3 -38.7 M 473.6 -35.8 L 475.5 -38.1 M 469.8 -31.2 L 472.5 -32.5 M 472.5 -32.5 L 475.5 -32.5 M 472.5 -32.5 L 475.2 -33.8 M 475.2 -33.8 L 477.1 -36.1 M 475.2 -33.8 L 477.9 -35.1 M 405.0 0.0 L 408.0 0.0 M 408.0 0.0 L 410.7 1.3 M 408.0 0.0 L 411.0 0.0 M 411.0 0.0 L 413.7 -1.3 M 411.0 0.0 L 414.0 0.0 M 414.0 0.0 L 416.7 1.3 M 416.7 1.3 L 418.6 3.6 M 416.7 1.3 L 419.4 2.6 M 419.4 2.6 L 422.4 2.6 M 419.4 2.6 L 422.1 3.9 M 414.0 0.0 L 417.0 0.0 M 417.0 0.0 L 419.7 1.3 M 417.0 0.0 L 420.0 0.0 M 420.0 0.0 L 422.7 -1.3 M 420.0 0.0 L 423.0 0.0 M 423.0 0.0 L 425.7 -1.3 M 425.7 -1.3 L 428.7 -1.3 M 425.7 -1.3 L 428.4 -2.6 M 428.4 -2.6 L 430.3 -4.9 M 428.4 -2.6 L 431.1 -3.9 M 423.0 0.0 L 426.0 0.0 M 426.0 0.0 L 428.7 1.3 M 426.0 0.0 L 429.0 0.0 M 429.0 0.0 L 431.7 -1.3 M 429.0 0.0 L 432.0 0.0 M 432.0 0.0 L 434.7 1.3 M 434.7 1.3 L 436.6 3.6 M 434.7 1.3 L 437.4 2.6 M 437.4 2.6 L 440.4 2.6 M 437.4 2.6 L 440.1 3.9 M 440.1 3.9 L 442.0 6.2 M 442.0 6.2 L 442.7 9.1 M 442.0 6.2 L 443.9 8.5 M 443.9 8.5 L 446.6 9.8 M 443.9 8.5 L 445.8 10.8 M 440.1 3.9 L 442.8 5.2 M 442.8 5.2 L 444.7 7.5 M 442.8 5.2 L 445.5 6.5 M 445.5 6.5 L 448.5 6.5 M 445.5 6.5 L 448.2 7.8 M 448.2 7.8 L 451.2 7.8 M 451.2 7.8 L 453.9 9.1 M 451.2 7.8 L 454.2 7.8 M 454.2 7.8 L 456.9 6.5 M 454.2 7.8 L 457.2 7.8 M 448.2 7.8 L 450.9 9.1 M 450.9 9.1 L 452.8 11.4 M 450.9 9.1 L 453.6 10.4 M 453.6 10.4 L 456.6 10.4 M 453.6 10.4 L 456.3 11.7 M 432.0 0.0 L 435.0 0.0 M 435.0 0.0 L 437.7 1.3 M 435.0 0.0 L 438.0 0.0 M 438.0 0.0 L 440.7 -1.3 M 438.0 0.0 L 441.0 0.0 M 441.0 0.0 L 443.7 1.3 M 443.7 1.3 L 445.6 3.6 M 443.7 1.3 L 446.4 2.6 M 446.4 2.6 L 449.4 2.6 M 446.4 2.6 L 449.1 3.9 M 441.0 0.0 L 444.0 0.0 M 444.0 0.0 L 446.7 1.3 M 444.0 0.0 L 447.0 0.0 M 447.0 0.0 L 449.7 -1.3 M 447.0 0.0 L 450.0 0.0 M 450.0 0.0 L 452.7 -1.3 M 452.7 -1.3 L 455.7 -1.3 M 452.7 -1.3 L 455.4 -2.6 M 455.4 -2.6 L 457.3 -4.9 M 455.4 -2.6 L 458.1 -3.9 M 450.0 0.0 L 453.0 0.0 M 453.0 0.0 L 455.7 1.3 M 453.0 0.0 L 456.0 0.0 M 456.0 0.0 L 458.7 -1.3 M 456.0 0.0 L 459.0 0.0 M 459.0 0.0 L 461.7 -1.3 M 461.7 -1.3 L 464.7 -1.3 M 461.7 -1.3 L 464.4 -2.6 M 464.4 -2.6 L 466.3 -4.9 M 464.4 -2.6 L 467.1 -3.9 M 467.1 -3.9 L 470.1 -3.9 M 470.1 -3.9 L 472.8 -2.6 M 470.1 -3.9 L 473.1 -3.9 M 473.1 -3.9 L 475.8 -5.2 M 473.1 -3.9 L 476.1 -3.9 M 467.1 -3.9 L 469.8 -5.2 M 469.8 -5.2 L 472.8 -5.2 M 469.8 -5.2 L 472.5 -6.5 M 472.5 -6.5 L 474.4 -8.8 M 472.5 -6.5 L 475.2 -7.8 M 475.2 -7.8 L 477.1 -10.1 M 477.1 -10.1 L 479.8 -11.4 M 477.1 -10.1 L 479.0 -12.4 M 479.0 -12.4 L 479.7 -15.3 M 479.0 -12.4 L 480.9 -14.7 M 475.2 -7.8 L 477.9 -9.1 M 477.9 -9.1 L 480.9 -9.1 M 477.9 -9.1 L 480.6 -10.4 M 480.6 -10.4 L 482.5 -12.7 M 480.6 -10.4 L 483.3 -11.7 M 459.0 0.0 L 462.0 0.0 M 462.0 0.0 L 464.7 1.3 M 462.0 0.0 L 465.0 0.0 M 465.0 0.0 L 467.7 -1.3 M 465.0 0.0 L 468.0 0.0 M 468.0 0.0 L 470.7 1.3 M 470.7 1.3 L 472.6 3.6 M 470.7 1.3 L 473.4 2.6 M 473.4 2.6 L 476.4 2.6 M 473.4 2.6 L 476.1 3.9 M 468.0 0.0 L 471.0 0.0 M 471.0 0.0 L 473.7 1.3 M 471.0 0.0 L 474.0 0.0 M 474.0 0.0 L 476.7 -1.3 M 474.0 0.0 L 477.0 0.0 M 477.0 0.0 L 479.7 -1.3 M 479.7 -1.3 L 482.7 -1.3 M 479.7 -1.3 L 482.4 -2.6 M 482.4 -2.6 L 484.3 -4.9 M 482.4 -2.6 L 485.1 -3.9 M 477.0 0.0 L 480.0 0.0 M 480.0 0.0 L 482.7 1.3 M 480.0 0.0 L 483.0 0.0 M 483.0 0.0 L 485.7 -1.3 M 483.0 0.0 L 486.0 0.0 M 486.0 0.0 L 488.7 -1.3 M 488.7 -1.3 L 491.7 -1.3 M 488.7 -1.3 L 491.4 -2.6 M 491.4 -2.6 L 493.3 -4.9 M 491.4 -2.6 L 494.1 -3.9 M 494.1 -3.9 L 497.1 -3.9 M 497.1 -3.9 L 499.8 -2.6 M 497.1 -3.9 L 500.1 -3.9 M 500.1 -3.9 L 502.8 -5.2 M 500.1 -3.9 L 503.1 -3.9 M 494.1 -3.9 L 496.8 -5.2 M 496.8 -5.2 L 499.8 -5.2 M 496.8 -5.2 L 499.5 -6.5 M 499.5 -6.5 L 501.4 -8.8 M 499.5 -6.5 L 502.2 -7.8 M 502.2 -7.8 L 504.1 -10.1 M 504.1 -10.1 L 506.8 -11.4 M 504.1 -10.1 L 506.0 -12.4 M 506.0 -12.4 L 506.7 -15.3 M 506.0 -12.4 L 507.9 -14.7 M 502.2 -7.8 L 504.9 -9.1 M 504.9 -9.1 L 507.9 -9.1 M 504.9 -9.1 L 507.6 -10.4 M 507.6 -10.4 L 509.5 -12.7 M 507.6 -10.4 L 510.3 -11.7 M 510.3 -11.7 L 513.3 -11.7 M 513.3 -11.7 L 516.0 -10.4 M 513.3 -11.7 L 516.3 -11.7 M 516.3 -11.7 L 519.0 -13.0 M 516.3 -11.7 L 519.3 -11.7 M 519.3 -11.7 L 522.0 -10.4 M 522.0 -10.4 L 523.9 -8.1 M 522.0 -10.4 L 524.7 -9.1 M 524.7 -9.1 L 527.7 -9.1 M 524.7 -9.1 L 527.4 -7.8 M 519.3 -11.7 L 522.3 -11.7 M 522.3 -11.7 L 525.0 -10.4 M 522.3 -11.7 L 525.3 -11.7 M 525.3 -11.7 L 528.0 -13.0 M 525.3 -11.7 L 528.3 -11.7 M 528.3 -11.7 L 531.0 -13.0 M 531.0 -13.0 L 534.0 -13.0 M 531.0 -13.0 L 533.7 -14.3 M 533.7 -14.3 L 535.6 -16.6 M 533.7 -14.3 L 536.4 -15.6 M 528.3 -11.7 L 531.3 -11.7 M 531.3 -11.7 L 534.0 -10.4 M 531.3 -11.7 L 534.3 -11.7 M 534.3 -11.7 L 537.0 -13.0 M 534.3 -11.7 L 537.3 -11.7 M 510.3 -11.7 L 513.0 -13.0 M 513.0 -13.0 L 516.0 -13.0 M 513.0 -13.0 L 515.7 -14.3 M 515.7 -14.3 L 517.6 -16.6 M 515.7 -14.3 L 518.4 -15.6 M 518.4 -15.6 L 521.4 -15.6 M 521.4 -15.6 L 524.1 -14.3 M 521.4 -15.6 L 524.4 -15.6 M 524.4 -15.6 L 527.1 -16.9 M 524.4 -15.6 L 527.4 -15.6 M 518.4 -15.6 L 521.1 -16.9 M 521.1 -16.9 L 524.1 -16.9 M 521.1 -16.9 L 523.8 -18.2 M 523.8 -18.2 L 525.7 -20.5 M 523.8 -18.2 L 526.5 -19.5 M 526.5 -19.5 L 528.4 -21.8 M 528.4 -21.8 L 531.1 -23.1 M 528.4 -21.8 L 530.3 -24.1 M 530.3 -24.1 L 531.0 -27.0 M 530.3 -24.1 L 532.2 -26.4 M 526.5 -19.5 L 529.2 -20.8 M 529.2 -20.8 L 532.2 -20.8 M 529.2 -20.8 L 531.9 -22.1 M 531.9 -22.1 L 533.8 -24.4 M 531.9 -22.1 L 534.6 -23.4 M 534.6 -23.4 L 536.5 -25.7 M 536.5 -25.7 L 539.2 -27.0 M 536.5 -25.7 L 538.4 -28.0 M 538.4 -28.0 L 539.1 -30.9 M 538.4 -28.0 L 540.3 -30.3 M 540.3 -30.3 L 543.0 -31.6 M 543.0 -31.6 L 546.0 -31.6 M 543.0 -31.6 L 545.7 -32.9 M 545.7 -32.9 L 547.6 -35.2 M 545.7 -32.9 L 548.4 -34.2 M 540.3 -30.3 L 542.2 -32.6 M 542.2 -32.6 L 544.9 -33.9 M 542.2 -32.6 L 544.1 -34.9 M 544.1 -34.9 L 544.8 -37.8 M 544.1 -34.9 L 546.0 -37.2 M 546.0 -37.2 L 546.7 -40.1 M 546.7 -40.1 L 548.6 -42.4 M 546.7 -40.1 L 547.4 -43.0 M 547.4 -43.0 L 546.7 -45.9 M 547.4 -43.0 L 548.1 -45.9 M 546.0 -37.2 L 547.9 -39.5 M 547.9 -39.5 L 550.6 -40.8 M 547.9 -39.5 L 549.8 -41.8 M 549.8 -41.8 L 550.5 -44.7 M 549.8 -41.8 L 551.7 -44.1 M 534.6 -23.4 L 537.3 -24.7 M 537.3 -24.7 L 540.3 -24.7 M 537.3 -24.7 L 540.0 -26.0 M 540.0 -26.0 L 541.9 -28.3 M 540.0 -26.0 L 542.7 -27.3 M 542.7 -27.3 L 545.7 -27.3 M 545.7 -27.3 L 548.4 -26.0 M 545.7 -27.3 L 548.7 -27.3 M 548.7 -27.3 L 551.4 -28.6 M 548.7 -27.3 L 551.7 -27.3 M 542.7 -27.3 L 545.4 -28.6 M 545.4 -28.6 L 548.4 -28.6 M 545.4 -28.6 L 548.1 -29.9 M 548.1 -29.9 L 550.0 -32.2 M 548.1 -29.9 L 550.8 -31.2 M 550.8 -31.2 L 552.7 -33.5 M 552.7 -33.5 L 555.4 -34.8 M 552.7 -33.5 L 554.6 -35.8 M 554.6 -35.8 L 555.3 -38.7 M 554.6 -35.8 L 556.5 -38.1 M 550.8 -31.2 L 553.5 -32.5 M 553.5 -32.5 L 556.5 -32.5 M 553.5 -32.5 L 556.2 -33.8 M 556.2 -33.8 L 558.1 -36.1 M 556.2 -33.8 L 558.9 -35.1 M 558.9 -35.1 L 561.9 -35.1 M 561.9 -35.1 L 564.6 -33.8 M 561.9 -35.1 L 564.9 -35.1 M 564.9 -35.1 L 567.6 -36.4 M 564.9 -35.1 L 567.9 -35.1 M 567.9 -35.1 L 570.6 -33.8 M 570.6 -33.8 L 572.5 -31.5 M 570.6 -33.8 L 573.3 -32.5 M 573.3 -32.5 L 576.3 -32.5 M 573.3 -32.5 L 576.0 -31.2 M 567.9 -35.1 L 570.9 -35.1 M 570.9 -35.1 L 573.6 -33.8 M 570.9 -35.1 L 573.9 -35.1 M 573.9 -35.1 L 576.6 -36.4 M 573.9 -35.1 L 576.9 -35.1 M 576.9 -35.1 L 579.6 -36.4 M 579.6 -36.4 L 582.6 -36.4 M 579.6 -36.4 L 582.3 -37.7 M 582.3 -37.7 L 584.2 -40.0 M 582.3 -37.7 L 585.0 -39.0 M 576.9 -35.1 L 579.9 -35.1 M 579.9 -35.1 L 582.6 -33.8 M 579.9 -35.1 L 582.9 -35.1 M 582.9 -35.1 L 585.6 -36.4 M 582.9 -35.1 L 585.9 -35.1 M 585.9 -35.1 L 588.6 -33.8 M 588.6 -33.8 L 590.5 -31.5 M 588.6 -33.8 L 591.3 -32.5 M 591.3 -32.5 L 594.3 -32.5 M 591.3 -32.5 L 594.0 -31.2 M 594.0 -31.2 L 595.9 -28.9 M 595.9 -28.9 L 596.6 -26.0 M 595.9 -28.9 L 597.8 -26.6 M 597.8 -26.6 L 600.5 -25.3 M 597.8 -26.6 L 599.7 -24.3 M 594.0 -31.2 L 596.7 -29.9 M 596.7 -29.9 L 598.6 -27.6 M 596.7 -29.9 L 599.4 -28.6 M 599.4 -28.6 L 602.4 -28.6 M 599.4 -28.6 L 602.1 -27.3 M 602.1 -27.3 L 605.1 -27.3 M 605.1 -27.3 L 607.8 -26.0 M 605.1 -27.3 L 608.1 -27.3 M 608.1 -27.3 L 610.8 -28.6 M 608.1 -27.3 L 611.1 -27.3 M 602.1 -27.3 L 604.8 -26.0 M 604.8 -26.0 L 606.7 -23.7 M 604.8 -26.0 L 607.5 -24.7 M 607.5 -24.7 L 610.5 -24.7 M 607.5 -24.7 L 610.2 -23.4 M 585.9 -35.1 L 588.9 -35.1 M 588.9 -35.1 L 591.6 -33.8 M 588.9 -35.1 L 591.9 -35.1 M 591.9 -35.1 L 594.6 -36.4 M 591.9 -35.1 L 594.9 -35.1 M 594.9 -35.1 L 597.6 -33.8 M 597.6 -33.8 L 599.5 -31.5 M 597.6 -33.8 L 600.3 -32.5 M 600.3 -32.5 L 603.3 -32.5 M 600.3 -32.5 L 603.0 -31.2 M 594.9 -35.1 L 597.9 -35.1 M 597.9 -35.1 L 600.6 -33.8 M 597.9 -35.1 L 600.9 -35.1 M 600.9 -35.1 L 603.6 -36.4 M 600.9 -35.1 L 603.9 -35.1 M 603.9 -35.1 L 606.6 -36.4 M 606.6 -36.4 L 609.6 -36.4 M 606.6 -36.4 L 609.3 -37.7 M 609.3 -37.7 L 611.2 -40.0 M 609.3 -37.7 L 612.0 -39.0 M 603.9 -35.1 L 606.9 -35.1 M 606.9 -35.1 L 609.6 -33.8 M 606.9 -35.1 L 609.9 -35.1 M 609.9 -35.1 L 612.6 -36.4 M 609.9 -35.1 L 612.9 -35.1 M 612.9 -35.1 L 615.6 -36.4 M 615.6 -36.4 L 618.6 -36.4 M 615.6 -36.4 L 618.3 -37.7 M 618.3 -37.7 L 620.2 -40.0 M 618.3 -37.7 L 621.0 -39.0 M 621.0 -39.0 L 624.0 -39.0 M 624.0 -39.0 L 626.7 -37.7 M 624.0 -39.0 L 627.0 -39.0 M 627.0 -39.0 L 629.7 -40.3 M 627.0 -39.0 L 630.0 -39.0 M 621.0 -39.0 L 623.7 -40.3 M 623.7 -40.3 L 626.7 -40.3 M 623.7 -40.3 L 626.4 -41.6 M 626.4 -41.6 L 628.3 -43.9 M 626.4 -41.6 L 629.1 -42.9 M 629.1 -42.9 L 631.0 -45.2 M 631.0 -45.2 L 633.7 -46.5 M 631.0 -45.2 L 632.9 -47.5 M 632.9 -47.5 L 633.6 -50.4 M 632.9 -47.5 L 634.8 -49.8 M 629.1 -42.9 L 631.8 -44.2 M 631.8 -44.2 L 634.8 -44.2 M 631.8 -44.2 L 634.5 -45.5 M 634.5 -45.5 L 636.4 -47.8 M 634.5 -45.5 L 637.2 -46.8 M 612.9 -35.1 L 615.9 -35.1 M 615.9 -35.1 L 618.6 -33.8 M 615.9 -35.1 L 618.9 -35.1 M 618.9 -35.1 L 621.6 -36.4 M 618.9 -35.1 L 621.9 -35.1 M 621.9 -35.1 L 624.6 -33.8 M 624.6 -33.8 L 626.5 -31.5 M 624.6 -33.8 L 627.3 -32.5 M 627.3 -32.5 L 630.3 -32.5 M 627.3 -32.5 L 630.0 -31.2 M 621.9 -35.1 L 624.9 -35.1 M 624.9 -35.1 L 627.6 -33.8 M 624.9 -35.1 L 627.9 -35.1 M 627.9 -35.1 L 630.6 -36.4 M 627.9 -35.1 L 630.9 -35.1 M 630.9 -35.1 L 633.6 -36.4 M 633.6 -36.4 L 636.6 -36.4 M 633.6 -36.4 L 636.3 -37.7 M 636.3 -37.7 L 638.2 -40.0 M 636.3 -37.7 L 639.0 -39.0 M 630.9 -35.1 L 633.9 -35.1 M 633.9 -35.1 L 636.6 -33.8 M 633.9 -35.1 L 636.9 -35.1 M 636.9 -35.1 L 639.6 -36.4 M 636.9 -35.1 L 639.9 -35.1 M 558.9 -35.1 L 561.6 -36.4 M 561.6 -36.4 L 564.6 -36.4 M 561.6 -36.4 L 564.3 -37.7 M 564.3 -37.7 L 566.2 -40.0 M 564.3 -37.7 L 567.0 -39.0 M 567.0 -39.0 L 570.0 -39.0 M 570.0 -39.0 L 572.7 -37.7 M 570.0 -39.0 L 573.0 -39.0 M 573.0 -39.0 L 575.7 -40.3 M 573.0 -39.0 L 576.0 -39.0 M 567.0 -39.0 L 569.7 -40.3 M 569.7 -40.3 L 572.7 -40.3 M 569.7 -40.3 L 572.4 -41.6 M 572.4 -41.6 L 574.3 -43.9 M 572.4 -41.6 L 575.1 -42.9 M 575.1 -42.9 L 577.0 -45.2 M 577.0 -45.2 L 579.7 -46.5 M 577.0 -45.2 L 578.9 -47.5 M 578.9 -47.5 L 579.6 -50.4 M 578.9 -47.5 L 580.8 -49.8 M 575.1 -42.9 L 577.8 -44.2 M 577.8 -44.2 L 580.8 -44.2 M 577.8 -44.2 L 580.5 -45.5 M 580.5 -45.5 L 582.4 -47.8 M 580.5 -45.5 L 583.2 -46.8 M 583.2 -46.8 L 586.2 -46.8 M 586.2 -46.8 L 588.9 -45.5 M 586.2 -46.8 L 589.2 -46.8 M 589.2 -46.8 L 591.9 -48.1 M 589.2 -46.8 L 592.2 -46.8 M 592.2 -46.8 L 594.9 -45.5 M 594.9 -45.5 L 596.8 -43.2 M 594.9 -45.5 L 597.6 -44.2 M 597.6 -44.2 L 600.6 -44.2 M 597.6 -44.2 L 600.3 -42.9 M 592.2 -46.8 L 595.2 -46.8 M 595.2 -46.8 L 597.9 -45.5 M 595.2 -46.8 L 598.2 -46.8 M 598.2 -46.8 L 600.9 -48.1 M 598.2 -46.8 L 601.2 -46.8 M 601.2 -46.8 L 603.9 -48.1 M 603.9 -48.1 L 606.9 -48.1 M 603.9 -48.1 L 606.6 -49.4 M 606.6 -49.4 L 608.5 -51.7 M 606.6 -49.4 L 609.3 -50.7 M 601.2 -46.8 L 604.2 -46.8 M 604.2 -46.8 L 606.9 -45.5 M 604.2 -46.8 L 607.2 -46.8 M 607.2 -46.8 L 609.9 -48.1 M 607.2 -46.8 L 610.2 -46.8 M 583.2 -46.8 L 585.9 -48.1 M 585.9 -48.1 L 588.9 -48.1 M 585.9 -48.1 L 588.6 -49.4 M 588.6 -49.4 L 590.5 -51.7 M 588.6 -49.4 L 591.3 -50.7 M 591.3 -50.7 L 594.3 -50.7 M 594.3 -50.7 L 597.0 -49.4 M 594.3 -50.7 L 597.3 -50.7 M 597.3 -50.7 L 600.0 -52.0 M 597.3 -50.7 L 600.3 -50.7 M 591.3 -50.7 L 594.0 -52.0 M 594.0 -52.0 L 597.0 -52.0 M 594.0 -52.0 L 596.7 -53.3 M 596.7 -53.3 L 598.6 -55.6 M 596.7 -53.3 L 599.4 -54.6 M 599.4 -54.6 L 601.3 -56.9 M 601.3 -56.9 L 604.0 -58.2 M 601.3 -56.9 L 603.2 -59.2 M 603.2 -59.2 L 603.9 -62.1 M 603.2 -59.2 L 605.1 -61.5 M 599.4 -54.6 L 602.1 -55.9 M 602.1 -55.9 L 605.1 -55.9 M 602.1 -55.9 L 604.8 -57.2 M 604.8 -57.2 L 606.7 -59.5 M 604.8 -57.2 L 607.5 -58.5 M 607.5 -58.5 L 609.4 -60.8 M 609.4 -60.8 L 612.1 -62.1 M 609.4 -60.8 L 611.3 -63.1 M 611.3 -63.1 L 612.0 -66.0 M 611.3 -63.1 L 613.2 -65.4 M 613.2 -65.4 L 615.9 -66.7 M 615.9 -66.7 L 618.9 -66.7 M 615.9 -66.7 L 618.6 -68.0 M 618.6 -68.0 L 620.5 -70.3 M 618.6 -68.0 L 621.3 -69.3 M 613.2 -65.4 L 615.1 -67.7 M 615.1 -67.7 L 617.8 -69.0 M 615.1 -67.7 L 617.0 -70.0 M 617.0 -70.0 L 617.7 -72.9 M 617.0 -70.0 L 618.9 -72.3 M 618.9 -72.3 L 619.6 -75.2 M 619.6 -75.2 L 621.5 -77.5 M 619.6 -75.2 L 620.3 -78.1 M 620.3 -78.1 L 619.6 -81.0 M 620.3 -78.1 L 621.0 -81.0 M 618.9 -72.3 L 620.8 -74.6 M 620.8 -74.6 L 623.5 -75.9 M 620.8 -74.6 L 622.7 -76.9 M 622.7 -76.9 L 623.4 -79.8 M 622.7 -76.9 L 624.6 -79.2 M 607.5 -58.5 L 610.2 -59.8 M 610.2 -59.8 L 613.2 -59.8 M 610.2 -59.8 L 612.9 -61.1 M 612.9 -61.1 L 614.8 -63.4 M 612.9 -61.1 L 615.6 -62.4 M 615.6 -62.4 L 618.6 -62.4 M 618.6 -62.4 L 621.3 -61.1 M 618.6 -62.4 L 621.6 -62.4 M 621.6 -62.4 L 624.3 -63.7 M 621.6 -62.4 L 624.6 -62.4 M 615.6 -62.4 L 618.3 -63.7 M 618.3 -63.7 L 621.3 -63.7 M 618.3 -63.7 L 621.0 -65.0 M 621.0 -65.0 L 622.9 -67.3 M 621.0 -65.0 L 623.7 -66.3 M 623.7 -66.3 L 625.6 -68.6 M 625.6 -68.6 L 628.3 -69.9 M 625.6 -68.6 L 627.5 -70.9 M 627.5 -70.9 L 628.2 -73.8 M 627.5 -70.9 L 629.4 -73.2 M 623.7 -66.3 L 626.4 -67.6 M 626.4 -67.6 L 629.4 -67.6 M 626.4 -67.6 L 629.1 -68.9 M 629.1 -68.9 L 631.0 -71.2 M 629.1 -68.9 L 631.8 -70.2 M 631.8 -70.2 L 633.7 -72.5 M 633.7 -72.5 L 636.4 -73.8 M 633.7 -72.5 L 635.6 -74.8 M 635.6 -74.8 L 636.3 -77.7 M 635.6 -74.8 L 637.5 -77.1 M 637.5 -77.1 L 640.2 -78.4 M 640.2 -78.4 L 643.2 -78.4 M 640.2 -78.4 L 642.9 -79.7 M 642.9 -79.7 L 644.8 -82.0 M 642.9 -79.7 L 645.6 -81.0 M 637.5 -77.1 L 639.4 -79.4 M 639.4 -79.4 L 642.1 -80.7 M 639.4 -79.4 L 641.3 -81.7 M 641.3 -81.7 L 642.0 -84.6 M 641.3 -81.7 L 643.2 -84.0 M 643.2 -84.0 L 643.9 -86.9 M 643.9 -86.9 L 645.8 -89.2 M 643.9 -86.9 L 644.6 -89.8 M 644.6 -89.8 L 643.9 -92.7 M 644.6 -89.8 L 645.3 -92.7 M 643.2 -84.0 L 645.1 -86.3 M 645.1 -86.3 L 647.8 -87.6 M 645.1 -86.3 L 647.0 -88.6 M 647.0 -88.6 L 647.7 -91.5 M 647.0 -88.6 L 648.9 -90.9 M 648.9 -90.9 L 651.6 -92.2 M 651.6 -92.2 L 654.6 -92.2 M 651.6 -92.2 L 654.3 -93.5 M 654.3 -93.5 L 656.2 -95.8 M 654.3 -93.5 L 657.0 -94.8 M 657.0 -94.8 L 660.0 -94.8 M 660.0 -94.8 L 662.7 -93.5 M 660.0 -94.8 L 663.0 -94.8 M 663.0 -94.8 L 665.7 -96.1 M 663.0 -94.8 L 666.0 -94.8 M 657.0 -94.8 L 659.7 -96.1 M 659.7 -96.1 L 662.7 -96.1 M 659.7 -96.1 L 662.4 -97.4 M 662.4 -97.4 L 664.3 -99.7 M 662.4 -97.4 L 665.1 -98.7 M 665.1 -98.7 L 667.0 -101.0 M 667.0 -101.0 L 669.7 -102.3 M 667.0 -101.0 L 668.9 -103.3 M 668.9 -103.3 L 669.6 -106.2 M 668.9 -103.3 L 670.8 -105.6 M 665.1 -98.7 L 667.8 -100.0 M 667.8 -100.0 L 670.8 -100.0 M 667.8 -100.0 L 670.5 -101.3 M 670.5 -101.3 L 672.4 -103.6 M 670.5 -101.3 L 673.2 -102.6 M 648.9 -90.9 L 650.8 -93.2 M 650.8 -93.2 L 653.5 -94.5 M 650.8 -93.2 L 652.7 -95.5 M 652.7 -95.5 L 653.4 -98.4 M 652.7 -95.5 L 654.6 -97.8 M 654.6 -97.8 L 657.3 -99.1 M 657.3 -99.1 L 660.3 -99.1 M 657.3 -99.1 L 660.0 -100.4 M 660.0 -100.4 L 661.9 -102.7 M 660.0 -100.4 L 662.7 -101.7 M 654.6 -97.8 L 656.5 -100.1 M 656.5 -100.1 L 659.2 -101.4 M 656.5 -100.1 L 658.4 -102.4 M 658.4 -102.4 L 659.1 -105.3 M 658.4 -102.4 L 660.3 -104.7 M 660.3 -104.7 L 661.0 -107.6 M 661.0 -107.6 L 662.9 -109.9 M 661.0 -107.6 L 661.7 -110.5 M 661.7 -110.5 L 661.0 -113.4 M 661.7 -110.5 L 662.4 -113.4 M 660.3 -104.7 L 662.2 -107.0 M 662.2 -107.0 L 664.9 -108.3 M 662.2 -107.0 L 664.1 -109.3 M 664.1 -109.3 L 664.8 -112.2 M 664.1 -109.3 L 666.0 -111.6 M 666.0 -111.6 L 666.7 -114.5 M 666.7 -114.5 L 668.6 -116.8 M 666.7 -114.5 L 667.4 -117.4 M 667.4 -117.4 L 666.7 -120.3 M 667.4 -117.4 L 668.1 -120.3 M 668.1 -120.3 L 670.0 -122.6 M 670.0 -122.6 L 672.7 -123.9 M 670.0 -122.6 L 671.9 -124.9 M 671.9 -124.9 L 672.6 -127.8 M 671.9 -124.9 L 673.8 -127.2 M 668.1 -120.3 L 668.8 -123.2 M 668.8 -123.2 L 670.7 -125.5 M 668.8 -123.2 L 669.5 -126.1 M 669.5 -126.1 L 668.8 -129.0 M 669.5 -126.1 L 670.2 -129.0 M 670.2 -129.0 L 669.5 -131.9 M 669.5 -131.9 L 670.2 -134.8 M 669.5 -131.9 L 668.8 -134.8 M 668.8 -134.8 L 666.9 -137.1 M 668.8 -134.8 L 668.1 -137.7 M 670.2 -129.0 L 670.9 -131.9 M 670.9 -131.9 L 672.8 -134.2 M 670.9 -131.9 L 671.6 -134.8 M 671.6 -134.8 L 670.9 -137.7 M 671.6 -134.8 L 672.3 -137.7 M 666.0 -111.6 L 667.9 -113.9 M 667.9 -113.9 L 670.6 -115.2 M 667.9 -113.9 L 669.8 -116.2 M 669.8 -116.2 L 670.5 -119.1 M 669.8 -116.2 L 671.7 -118.5 M 671.7 -118.5 L 674.4 -119.8 M 674.4 -119.8 L 677.4 -119.8 M 674.4 -119.8 L 677.1 -121.1 M 677.1 -121.1 L 679.0 -123.4 M 677.1 -121.1 L 679.8 -122.4 M 671.7 -118.5 L 673.6 -120.8 M 673.6 -120.8 L 676.3 -122.1 M 673.6 -120.8 L 675.5 -123.1 M 675.5 -123.1 L 676.2 -126.0 M 675.5 -123.1 L 677.4 -125.4 M 677.4 -125.4 L 678.1 -128.3 M 678.1 -128.3 L 680.0 -130.6 M 678.1 -128.3 L 678.8 -131.2 M 678.8 -131.2 L 678.1 -134.1 M 678.8 -131.2 L 679.5 -134.1 M 677.4 -125.4 L 679.3 -127.7 M 679.3 -127.7 L 682.0 -129.0 M 679.3 -127.7 L 681.2 -130.0 M 681.2 -130.0 L 681.9 -132.9 M 681.2 -130.0 L 683.1 -132.3 M 631.8 -70.2 L 634.5 -71.5 M 634.5 -71.5 L 637.5 -71.5 M 634.5 -71.5 L 637.2 -72.8 M 637.2 -72.8 L 639.1 -75.1 M 637.2 -72.8 L 639.9 -74.1 M 639.9 -74.1 L 642.9 -74.1 M 642.9 -74.1 L 645.6 -72.8 M 642.9 -74.1 L 645.9 -74.1 M 645.9 -74.1 L 648.6 -75.4 M 645.9 -74.1 L 648.9 -74.1 M 639.9 -74.1 L 642.6 -75.4 M 642.6 -75.4 L 645.6 -75.4 M 642.6 -75.4 L 645.3 -76.7 M 645.3 -76.7 L 647.2 -79.0 M 645.3 -76.7 L 648.0 -78.0 M 648.0 -78.0 L 649.9 -80.3 M 649.9 -80.3 L 652.6 -81.6 M 649.9 -80.3 L 651.8 -82.6 M 651.8 -82.6 L 652.5 -85.5 M 651.8 -82.6 L 653.7 -84.9 M 648.0 -78.0 L 650.7 -79.3 M 650.7 -79.3 L 653.7 -79.3 M 650.7 -79.3 L 653.4 -80.6 M 653.4 -80.6 L 655.3 -82.9 M 653.4 -80.6 L 656.1 -81.9 M 656.1 -81.9 L 659.1 -81.9 M 659.1 -81.9 L 661.8 -80.6 M 659.1 -81.9 L 662.1 -81.9 M 662.1 -81.9 L 664.8 -83.2 M 662.1 -81.9 L 665.1 -81.9 M 665.1 -81.9 L 667.8 -80.6 M 667.8 -80.6 L 669.7 -78.3 M 667.8 -80.6 L 670.5 -79.3 M 670.5 -79.3 L 673.5 -79.3 M 670.5 -79.3 L 673.2 -78.0 M 665.1 -81.9 L 668.1 -81.9 M 668.1 -81.9 L 670.8 -80.6 M 668.1 -81.9 L 671.1 -81.9 M 671.1 -81.9 L 673.8 -83.2 M 671.1 -81.9 L 674.1 -81.9 M 674.1 -81.9 L 676.8 -83.2 M 676.8 -83.2 L 679.8 -83.2 M 676.8 -83.2 L 679.5 -84.5 M 679.5 -84.5 L 681.4 -86.8 M 679.5 -84.5 L 682.2 -85.8 M 674.1 -81.9 L 677.1 -81.9 M 677.1 -81.9 L 679.8 -80.6 M 677.1 -81.9 L 680.1 -81.9 M 680.1 -81.9 L 682.8 -83.2 M 680.1 -81.9 L 683.1 -81.9 M 656.1 -81.9 L 658.8 -83.2 M 658.8 -83.2 L 661.8 -83.2 M 658.8 -83.2 L 661.5 -84.5 M 661.5 -84.5 L 663.4 -86.8 M 661.5 -84.5 L 664.2 -85.8 M 664.2 -85.8 L 667.2 -85.8 M 667.2 -85.8 L 669.9 -84.5 M 667.2 -85.8 L 670.2 -85.8 M 670.2 -85.8 L 672.9 -87.1 M 670.2 -85.8 L 673.2 -85.8 M 664.2 -85.8 L 666.9 -87.1 M 666.9 -87.1 L 669.9 -87.1 M 666.9 -87.1 L 669.6 -88.4 M 669.6 -88.4 L 671.5 -90.7 M 669.6 -88.4 L 672.3 -89.7 M 672.3 -89.7 L 674.2 -92.0 M 674.2 -92.0 L 676.9 -93.3 M 674.2 -92.0 L 676.1 -94.3 M 676.1 -94.3 L 676.8 -97.2 M 676.1 -94.3 L 678.0 -96.6 M 672.3 -89.7 L 675.0 -91.0 M 675.0 -91.0 L 678.0 -91.0 M 675.0 -91.0 L 677.7 -92.3 M 677.7 -92.3 L 679.6 -94.6 M 677.7 -92.3 L 680.4 -93.6 M 680.4 -93.6 L 682.3 -95.9 M 682.3 -95.9 L 685.0 -97.2 M 682.3 -95.9 L 684.2 -98.2 M 684.2 -98.2 L 684.9 -101.1 M 684.2 -98.2 L 686.1 -100.5 M 686.1 -100.5 L 688.8 -101.8 M 688.8 -101.8 L 691.8 -101.8 M 688.8 -101.8 L 691.5 -103.1 M 691.5 -103.1 L 693.4 -105.4 M 691.5 -103.1 L 694.2 -104.4 M 686.1 -100.5 L 688.0 -102.8 M 688.0 -102.8 L 690.7 -104.1 M 688.0 -102.8 L 689.9 -105.1 M 689.9 -105.1 L 690.6 -108.0 M 689.9 -105.1 L 691.8 -107.4 M 691.8 -107.4 L 692.5 -110.3 M 692.5 -110.3 L 694.4 -112.6 M 692.5 -110.3 L 693.2 -113.2 M 693.2 -113.2 L 692.5 -116.1 M 693.2 -113.2 L 693.9 -116.1 M 691.8 -107.4 L 693.7 -109.7 M 693.7 -109.7 L 696.4 -111.0 M 693.7 -109.7 L 695.6 -112.0 M 695.6 -112.0 L 696.3 -114.9 M 695.6 -112.0 L 697.5 -114.3 M 680.4 -93.6 L 683.1 -94.9 M 683.1 -94.9 L 686.1 -94.9 M 683.1 -94.9 L 685.8 -96.2 M 685.8 -96.2 L 687.7 -98.5 M 685.8 -96.2 L 688.5 -97.5 M 688.5 -97.5 L 691.5 -97.5 M 691.5 -97.5 L 694.2 -96.2 M 691.5 -97.5 L 694.5 -97.5 M 694.5 -97.5 L 697.2 -98.8 M 694.5 -97.5 L 697.5 -97.5 M 688.5 -97.5 L 691.2 -98.8 M 691.2 -98.8 L 694.2 -98.8 M 691.2 -98.8 L 693.9 -100.1 M 693.9 -100.1 L 695.8 -102.4 M 693.9 -100.1 L 696.6 -101.4 M 696.6 -101.4 L 698.5 -103.7 M 698.5 -103.7 L 701.2 -105.0 M 698.5 -103.7 L 700.4 -106.0 M 700.4 -106.0 L 701.1 -108.9 M 700.4 -106.0 L 702.3 -108.3 M 696.6 -101.4 L 699.3 -102.7 M 699.3 -102.7 L 702.3 -102.7 M 699.3 -102.7 L 702.0 -104.0 M 702.0 -104.0 L 703.9 -106.3 M 702.0 -104.0 L 704.7 -105.3 M 486.0 0.0 L 489.0 0.0 M 489.0 0.0 L 491.7 1.3 M 489.0 0.0 L 492.0 0.0 M 492.0 0.0 L 494.7 -1.3 M 492.0 0.0 L 495.0 0.0 M 495.0 0.0 L 497.7 1.3 M 497.7 1.3 L 499.6 3.6 M 497.7 1.3 L 500.4 2.6 M 500.4 2.6 L 503.4 2.6 M 500.4 2.6 L 503.1 3.9 M 495.0 0.0 L 498.0 0.0 M 498.0 0.0 L 500.7 1.3 M 498.0 0.0 L 501.0 0.0 M 501.0 0.0 L 503.7 -1.3 M 501.0 0.0 L 504.0 0.0 M 504.0 0.0 L 506.7 -1.3 M 506.7 -1.3 L 509.7 -1.3 M 506.7 -1.3 L 509.4 -2.6 M 509.4 -2.6 L 511.3 -4.9 M 509.4 -2.6 L 512.1 -3.9 M 504.0 0.0 L 507.0 0.0 M 507.0 0.0 L 509.7 1.3 M 507.0 0.0 L 510.0 0.0 M 510.0 0.0 L 512.7 -1.3 M 510.0 0.0 L 513.0 0.0 M 513.0 0.0 L 515.7 1.3 M 515.7 1.3 L 517.6 3.6 M 515.7 1.3 L 518.4 2.6 M 518.4 2.6 L 521.4 2.6 M 518.4 2.6 L 521.1 3.9 M 521.1 3.9 L 523.0 6.2 M 523.0 6.2 L 523.7 9.1 M 523.0 6.2 L 524.9 8.5 M 524.9 8.5 L 527.6 9.8 M 524.9 8.5 L 526.8 10.8 M 521.1 3.9 L 523.8 5.2 M 523.8 5.2 L 525.7 7.5 M 523.8 5.2 L 526.5 6.5 M 526.5 6.5 L 529.5 6.5 M 526.5 6.5 L 529.2 7.8 M 529.2 7.8 L 532.2 7.8 M 532.2 7.8 L 534.9 9.1 M 532.2 7.8 L 535.2 7.8 M 535.2 7.8 L 537.9 6.5 M 535.2 7.8 L 538.2 7.8 M 529.2 7.8 L 531.9 9.1 M 531.9 9.1 L 533.8 11.4 M 531.9 9.1 L 534.6 10.4 M 534.6 10.4 L 537.6 10.4 M 534.6 10.4 L 537.3 11.7 M 513.0 0.0 L 516.0 0.0 M 516.0 0.0 L 518.7 1.3 M 516.0 0.0 L 519.0 0.0 M 519.0 0.0 L 521.7 -1.3 M 519.0 0.0 L 522.0 0.0 M 522.0 0.0 L 524.7 1.3 M 524.7 1.3 L 526.6 3.6 M 524.7 1.3 L 527.4 2.6 M 527.4 2.6 L 530.4 2.6 M 527.4 2.6 L 530.1 3.9 M 522.0 0.0 L 525.0 0.0 M 525.0 0.0 L 527.7 1.3 M 525.0 0.0 L 528.0 0.0 M 528.0 0.0 L 530.7 -1.3 M 528.0 0.0 L 531.0 0.0 M 531.0 0.0 L 533.7 -1.3 M 533.7 -1.3 L 536.7 -1.3 M 533.7 -1.3 L 536.4 -2.6 M 536.4 -2.6 L 538.3 -4.9 M 536.4 -2.6 L 539.1 -3.9 M 531.0 0.0 L 534.0 0.0 M 534.0 0.0 L 536.7 1.3 M 534.0 0.0 L 537.0 0.0 M 537.0 0.0 L 539.7 -1.3 M 537.0 0.0 L 540.0 0.0 M 540.0 0.0 L 542.7 -1.3 M 542.7 -1.3 L 545.7 -1.3 M 542.7 -1.3 L 545.4 -2.6 M 545.4 -2.6 L 547.3 -4.9 M 545.4 -2.6 L 548.1 -3.9 M 548.1 -3.9 L 551.1 -3.9 M 551.1 -3.9 L 553.8 -2.6 M 551.1 -3.9 L 554.1 -3.9 M 554.1 -3.9 L 556.8 -5.2 M 554.1 -3.9 L 557.1 -3.9 M 548.1 -3.9 L 550.8 -5.2 M 550.8 -5.2 L 553.8 -5.2 M 550.8 -5.2 L 553.5 -6.5 M 553.5 -6.5 L 555.4 -8.8 M 553.5 -6.5 L 556.2 -7.8 M 556.2 -7.8 L 558.1 -10.1 M 558.1 -10.1 L 560.8 -11.4 M 558.1 -10.1 L 560.0 -12.4 M 560.0 -12.4 L 560.7 -15.3 M 560.0 -12.4 L 561.9 -14.7 M 556.2 -7.8 L 558.9 -9.1 M 558.9 -9.1 L 561.9 -9.1 M 558.9 -9.1 L 561.6 -10.4 M 561.6 -10.4 L 563.5 -12.7 M 561.6 -10.4 L 564.3 -11.7 M 540.0 0.0 L 543.0 0.0 M 543.0 0.0 L 545.7 1.3 M 543.0 0.0 L 546.0 0.0 M 546.0 0.0 L 548.7 -1.3 M 546.0 0.0 L 549.0 0.0 M 549.0 0.0 L 551.7 1.3 M 551.7 1.3 L 553.6 3.6 M 551.7 1.3 L 554.4 2.6 M 554.4 2.6 L 557.4 2.6 M 554.4 2.6 L 557.1 3.9 M 549.0 0.0 L 552.0 0.0 M 552.0 0.0 L 554.7 1.3 M 552.0 0.0 L 555.0 0.0 M 555.0 0.0 L 557.7 -1.3 M 555.0 0.0 L 558.0 0.0 M 558.0 0.0 L 560.7 -1.3 M 560.7 -1.3 L 563.7 -1.3 M 560.7 -1.3 L 563.4 -2.6 M 563.4 -2.6 L 565.3 -4.9 M 563.4 -2.6 L 566.1 -3.9 M 558.0 0.0 L 561.0 0.0 M 561.0 0.0 L 563.7 1.3 M 561.0 0.0 L 564.0 0.0 M 564.0 0.0 L 566.7 -1.3 M 564.0 0.0 L 567.0 0.0 M 567.0 0.0 L 569.7 1.3 M 569.7 1.3 L 571.6 3.6 M 569.7 1.3 L 572.4 2.6 M 572.4 2.6 L 575.4 2.6 M 572.4 2.6 L 575.1 3.9 M 575.1 3.9 L 577.0 6.2 M 577.0 6.2 L 577.7 9.1 M 577.0 6.2 L 578.9 8.5 M 578.9 8.5 L 581.6 9.8 M 578.9 8.5 L 580.8 10.8 M 575.1 3.9 L 577.8 5.2 M 577.8 5.2 L 579.7 7.5 M 577.8 5.2 L 580.5 6.5 M 580.5 6.5 L 583.5 6.5 M 580.5 6.5 L 583.2 7.8 M 583.2 7.8 L 586.2 7.8 M 586.2 7.8 L 588.9 9.1 M 586.2 7.8 L 589.2 7.8 M 589.2 7.8 L 591.9 6.5 M 589.2 7.8 L 592.2 7.8 M 583.2 7.8 L 585.9 9.1 M 585.9 9.1 L 587.8 11.4 M 585.9 9.1 L 588.6 10.4 M 588.6 10.4 L 591.6 10.4 M 588.6 10.4 L 591.3 11.7 M 591.3 11.7 L 593.2 14.0 M 593.2 14.0 L 593.9 16.9 M 593.2 14.0 L 595.1 16.3 M 595.1 16.3 L 597.8 17.6 M 595.1 16.3 L 597.0 18.6 M 597.0 18.6 L 597.7 21.5 M 597.7 21.5 L 597.0 24.4 M 597.7 21.5 L 598.4 24.4 M 598.4 24.4 L 600.3 26.7 M 598.4 24.4 L 599.1 27.3 M 597.0 18.6 L 598.9 20.9 M 598.9 20.9 L 599.6 23.8 M 598.9 20.9 L 600.8 23.2 M 600.8 23.2 L 603.5 24.5 M 600.8 23.2 L 602.7 25.5 M 602.7 25.5 L 605.4 26.8 M 605.4 26.8 L 607.3 29.1 M 605.4 26.8 L 608.1 28.1 M 608.1 28.1 L 611.1 28.1 M 608.1 28.1 L 610.8 29.4 M 602.7 25.5 L 604.6 27.8 M 604.6 27.8 L 605.3 30.7 M 604.6 27.8 L 606.5 30.1 M 606.5 30.1 L 609.2 31.4 M 606.5 30.1 L 608.4 32.4 M 591.3 11.7 L 594.0 13.0 M 594.0 13.0 L 595.9 15.3 M 594.0 13.0 L 596.7 14.3 M 596.7 14.3 L 599.7 14.3 M 596.7 14.3 L 599.4 15.6 M 599.4 15.6 L 601.3 17.9 M 601.3 17.9 L 602.0 20.8 M 601.3 17.9 L 603.2 20.2 M 603.2 20.2 L 605.9 21.5 M 603.2 20.2 L 605.1 22.5 M 599.4 15.6 L 602.1 16.9 M 602.1 16.9 L 604.0 19.2 M 602.1 16.9 L 604.8 18.2 M 604.8 18.2 L 607.8 18.2 M 604.8 18.2 L 607.5 19.5 M 607.5 19.5 L 610.5 19.5 M 610.5 19.5 L 613.2 20.8 M 610.5 19.5 L 613.5 19.5 M 613.5 19.5 L 616.2 18.2 M 613.5 19.5 L 616.5 19.5 M 607.5 19.5 L 610.2 20.8 M 610.2 20.8 L 612.1 23.1 M 610.2 20.8 L 612.9 22.1 M 612.9 22.1 L 615.9 22.1 M 612.9 22.1 L 615.6 23.4 M 615.6 23.4 L 618.6 23.4 M 618.6 23.4 L 621.3 24.7 M 618.6 23.4 L 621.6 23.4 M 621.6 23.4 L 624.3 22.1 M 621.6 23.4 L 624.6 23.4 M 624.6 23.4 L 627.3 24.7 M 627.3 24.7 L 629.2 27.0 M 627.3 24.7 L 630.0 26.0 M 630.0 26.0 L 633.0 26.0 M 630.0 26.0 L 632.7 27.3 M 624.6 23.4 L 627.6 23.4 M 627.6 23.4 L 630.3 24.7 M 627.6 23.4 L 630.6 23.4 M 630.6 23.4 L 633.3 22.1 M 630.6 23.4 L 633.6 23.4 M 633.6 23.4 L 636.3 22.1 M 636.3 22.1 L 639.3 22.1 M 636.3 22.1 L 639.0 20.8 M 639.0 20.8 L 640.9 18.5 M 639.0 20.8 L 641.7 19.5 M 633.6 23.4 L 636.6 23.4 M 636.6 23.4 L 639.3 24.7 M 636.6 23.4 L 639.6 23.4 M 639.6 23.4 L 642.3 22.1 M 639.6 23.4 L 642.6 23.4 M 615.6 23.4 L 618.3 24.7 M 618.3 24.7 L 620.2 27.0 M 618.3 24.7 L 621.0 26.0 M 621.0 26.0 L 624.0 26.0 M 621.0 26.0 L 623.7 27.3 M 623.7 27.3 L 625.6 29.6 M 625.6 29.6 L 626.3 32.5 M 625.6 29.6 L 627.5 31.9 M 627.5 31.9 L 630.2 33.2 M 627.5 31.9 L 629.4 34.2 M 623.7 27.3 L 626.4 28.6 M 626.4 28.6 L 628.3 30.9 M 626.4 28.6 L 629.1 29.9 M 629.1 29.9 L 632.1 29.9 M 629.1 29.9 L 631.8 31.2 M 631.8 31.2 L 634.8 31.2 M 634.8 31.2 L 637.5 32.5 M 634.8 31.2 L 637.8 31.2 M 637.8 31.2 L 640.5 29.9 M 637.8 31.2 L 640.8 31.2 M 631.8 31.2 L 634.5 32.5 M 634.5 32.5 L 636.4 34.8 M 634.5 32.5 L 637.2 33.8 M 637.2 33.8 L 640.2 33.8 M 637.2 33.8 L 639.9 35.1 M 567.0 0.0 L 570.0 0.0 M 570.0 0.0 L 572.7 1.3 M 570.0 0.0 L 573.0 0.0 M 573.0 0.0 L 575.7 -1.3 M 573.0 0.0 L 576.0 0.0 M 576.0 0.0 L 578.7 1.3 M 578.7 1.3 L 580.6 3.6 M 578.7 1.3 L 581.4 2.6 M 581.4 2.6 L 584.4 2.6 M 581.4 2.6 L 584.1 3.9 M 576.0 0.0 L 579.0 0.0 M 579.0 0.0 L 581.7 1.3 M 579.0 0.0 L 582.0 0.0 M 582.0 0.0 L 584.7 -1.3 M 582.0 0.0 L 585.0 0.0 M 585.0 0.0 L 587.7 -1.3 M 587.7 -1.3 L 590.7 -1.3 M 587.7 -1.3 L 590.4 -2.6 M 590.4 -2.6 L 592.3 -4.9 M 590.4 -2.6 L 593.1 -3.9 M 585.0 0.0 L 588.0 0.0 M 588.0 0.0 L 590.7 1.3 M 588.0 0.0 L 591.0 0.0 M 591.0 0.0 L 593.7 -1.3 M 591.0 0.0 L 594.0 0.0 M 594.0 0.0 L 596.7 1.3 M 596.7 1.3 L 598.6 3.6 M 596.7 1.3 L 599.4 2.6 M 599.4 2.6 L 602.4 2.6 M 599.4 2.6 L 602.1 3.9 M 602.1 3.9 L 604.0 6.2 M 604.0 6.2 L 604.7 9.1 M 604.0 6.2 L 605.9 8.5 M 605.9 8.5 L 608.6 9.8 M 605.9 8.5 L 607.8 10.8 M 602.1 3.9 L 604.8 5.2 M 604.8 5.2 L 606.7 7.5 M 604.8 5.2 L 607.5 6.5 M 607.5 6.5 L 610.5 6.5 M 607.5 6.5 L 610.2 7.8 M 610.2 7.8 L 613.2 7.8 M 613.2 7.8 L 615.9 9.1 M 613.2 7.8 L 616.2 7.8 M 616.2 7.8 L 618.9 6.5 M 616.2 7.8 L 619.2 7.8 M 610.2 7.8 L 612.9 9.1 M 612.9 9.1 L 614.8 11.4 M 612.9 9.1 L 615.6 10.4 M 615.6 10.4 L 618.6 10.4 M 615.6 10.4 L 618.3 11.7 M 594.0 0.0 L 597.0 0.0 M 597.0 0.0 L 599.7 1.3 M 597.0 0.0 L 600.0 0.0 M 600.0 0.0 L 602.7 -1.3 M 600.0 0.0 L 603.0 0.0 M 603.0 0.0 L 605.7 1.3 M 605.7 1.3 L 607.6 3.6 M 605.7 1.3 L 608.4 2.6 M 608.4 2.6 L 611.4 2.6 M 608.4 2.6 L 611.1 3.9 M 603.0 0.0 L 606.0 0.0 M 606.0 0.0 L 608.7 1.3 M 606.0 0.0 L 609.0 0.0 M 609.0 0.0 L 611.7 -1.3 M 609.0 0.0 L 612.0 0.0 M 612.0 0.0 L 614.7 -1.3 M 614.7 -1.3 L 617.7 -1.3 M 614.7 -1.3 L 617.4 -2.6 M 617.4 -2.6 L 619.3 -4.9 M 617.4 -2.6 L 620.1 -3.9 M 612.0 0.0 L 615.0 0.0 M 615.0 0.0 L 617.7 1.3 M 615.0 0.0 L 618.0 0.0 M 618.0 0.0 L 620.7 -1.3 M 618.0 0.0 L 621.0 0.0 M 621.0 0.0 L 623.7 -1.3 M 623.7 -1.3 L 626.7 -1.3 M 623.7 -1.3 L 626.4 -2.6 M 626.4 -2.6 L 628.3 -4.9 M 626.4 -2.6 L 629.1 -3.9 M 629.1 -3.9 L 632.1 -3.9 M 632.1 -3.9 L 634.8 -2.6 M 632.1 -3.9 L 635.1 -3.9 M 635.1 -3.9 L 637.8 -5.2 M 635.1 -3.9 L 638.1 -3.9 M 629.1 -3.9 L 631.8 -5.2 M 631.8 -5.2 L 634.8 -5.2 M 631.8 -5.2 L 634.5 -6.5 M 634.5 -6.5 L 636.4 -8.8 M 634.5 -6.5 L 637.2 -7.8 M 637.2 -7.8 L 639.1 -10.1 M 639.1 -10.1 L 641.8 -11.4 M 639.1 -10.1 L 641.0 -12.4 M 641.0 -12.4 L 641.7 -15.3 M 641.0 -12.4 L 642.9 -14.7 M 637.2 -7.8 L 639.9 -9.1 M 639.9 -9.1 L 642.9 -9.1 M 639.9 -9.1 L 642.6 -10.4 M 642.6 -10.4 L 644.5 -12.7 M 642.6 -10.4 L 645.3 -11.7 M 621.0 0.0 L 624.0 0.0 M 624.0 0.0 L 626.7 1.3 M 624.0 0.0 L 627.0 0.0 M 627.0 0.0 L 629.7 -1.3 M 627.0 0.0 L 630.0 0.0 M 630.0 0.0 L 632.7 1.3 M 632.7 1.3 L 634.6 3.6 M 632.7 1.3 L 635.4 2.6 M 635.4 2.6 L 638.4 2.6 M 635.4 2.6 L 638.1 3.9 M 630.0 0.0 L 633.0 0.0 M 633.0 0.0 L 635.7 1.3 M 633.0 0.0 L 636.0 0.0 M 636.0 0.0 L 638.7 -1.3 M 636.0 0.0 L 639.0 0.0 M 639.0 0.0 L 641.7 -1.3 M 641.7 -1.3 L 644.7 -1.3 M 641.7 -1.3 L 644.4 -2.6 M 644.4 -2.6 L 646.3 -4.9 M 644.4 -2.6 L 647.1 -3.9 M 639.0 0.0 L 642.0 0.0 M 642.0 0.0 L 644.7 1.3 M 642.0 0.0 L 645.0 0.0 M 645.0 0.0 L 647.7 -1.3 M 645.0 0.0 L 648.0 0.0 M 648.0 0.0 L 650.7 -1.3 M 650.7 -1.3 L 653.7 -1.3 M 650.7 -1.3 L 653.4 -2.6 M 653.4 -2.6 L 655.3 -4.9 M 653.4 -2.6 L 656.1 -3.9 M 656.1 -3.9 L 659.1 -3.9 M 659.1 -3.9 L 661.8 -2.6 M 659.1 -3.9 L 662.1 -3.9 M 662.1 -3.9 L 664.8 -5.2 M 662.1 -3.9 L 665.1 -3.9 M 656.1 -3.9 L 658.8 -5.2 M 658.8 -5.2 L 661.8 -5.2 M 658.8 -5.2 L 661.5 -6.5 M 661.5 -6.5 L 663.4 -8.8 M 661.5 -6.5 L 664.2 -7.8 M 664.2 -7.8 L 666.1 -10.1 M 666.1 -10.1 L 668.8 -11.4 M 666.1 -10.1 L 668.0 -12.4 M 668.0 -12.4 L 668.7 -15.3 M 668.0 -12.4 L 669.9 -14.7 M 664.2 -7.8 L 666.9 -9.1 M 666.9 -9.1 L 669.9 -9.1 M 666.9 -9.1 L 669.6 -10.4 M 669.6 -10.4 L 671.5 -12.7 M 669.6 -10.4 L 672.3 -11.7 M 672.3 -11.7 L 675.3 -11.7 M 675.3 -11.7 L 678.0 -10.4 M 675.3 -11.7 L 678.3 -11.7 M 678.3 -11.7 L 681.0 -13.0 M 678.3 -11.7 L 681.3 -11.7 M 681.3 -11.7 L 684.0 -10.4 M 684.0 -10.4 L 685.9 -8.1 M 684.0 -10.4 L 686.7 -9.1 M 686.7 -9.1 L 689.7 -9.1 M 686.7 -9.1 L 689.4 -7.8 M 681.3 -11.7 L 684.3 -11.7 M 684.3 -11.7 L 687.0 -10.4 M 684.3 -11.7 L 687.3 -11.7 M 687.3 -11.7 L 690.0 -13.0 M 687.3 -11.7 L 690.3 -11.7 M 690.3 -11.7 L 693.0 -13.0 M 693.0 -13.0 L 696.0 -13.0 M 693.0 -13.0 L 695.7 -14.3 M 695.7 -14.3 L 697.6 -16.6 M 695.7 -14.3 L 698.4 -15.6 M 690.3 -11.7 L 693.3 -11.7 M 693.3 -11.7 L 696.0 -10.4 M 693.3 -11.7 L 696.3 -11.7 M 696.3 -11.7 L 699.0 -13.0 M 696.3 -11.7 L 699.3 -11.7 M 672.3 -11.7 L 675.0 -13.0 M 675.0 -13.0 L 678.0 -13.0 M 675.0 -13.0 L 677.7 -14.3 M 677.7 -14.3 L 679.6 -16.6 M 677.7 -14.3 L 680.4 -15.6 M 680.4 -15.6 L 683.4 -15.6 M 683.4 -15.6 L 686.1 -14.3 M 683.4 -15.6 L 686.4 -15.6 M 686.4 -15.6 L 689.1 -16.9 M 686.4 -15.6 L 689.4 -15.6 M 680.4 -15.6 L 683.1 -16.9 M 683.1 -16.9 L 686.1 -16.9 M 683.1 -16.9 L 685.8 -18.2 M 685.8 -18.2 L 687.7 -20.5 M 685.8 -18.2 L 688.5 -19.5 M 688.5 -19.5 L 690.4 -21.8 M 690.4 -21.8 L 693.1 -23.1 M 690.4 -21.8 L 692.3 -24.1 M 692.3 -24.1 L 693.0 -27.0 M 692.3 -24.1 L 694.2 -26.4 M 688.5 -19.5 L 691.2 -20.8 M 691.2 -20.8 L 694.2 -20.8 M 691.2 -20.8 L 693.9 -22.1 M 693.9 -22.1 L 695.8 -24.4 M 693.9 -22.1 L 696.6 -23.4 M 696.6 -23.4 L 698.5 -25.7 M 698.5 -25.7 L 701.2 -27.0 M 698.5 -25.7 L 700.4 -28.0 M 700.4 -28.0 L 701.1 -30.9 M 700.4 -28.0 L 702.3 -30.3 M 702.3 -30.3 L 705.0 -31.6 M 705.0 -31.6 L 708.0 -31.6 M 705.0 -31.6 L 707.7 -32.9 M 707.7 -32.9 L 709.6 -35.2 M 707.7 -32.9 L 710.4 -34.2 M 702.3 -30.3 L 704.2 -32.6 M 704.2 -32.6 L 706.9 -33.9 M 704.2 -32.6 L 706.1 -34.9 M 706.1 -34.9 L 706.8 -37.8 M 706.1 -34.9 L 708.0 -37.2 M 708.0 -37.2 L 708.7 -40.1 M 708.7 -40.1 L 710.6 -42.4 M 708.7 -40.1 L 709.4 -43.0 M 709.4 -43.0 L 708.7 -45.9 M 709.4 -43.0 L 710.1 -45.9 M 708.0 -37.2 L 709.9 -39.5 M 709.9 -39.5 L 712.6 -40.8 M 709.9 -39.5 L 711.8 -41.8 M 711.8 -41.8 L 712.5 -44.7 M 711.8 -41.8 L 713.7 -44.1 M 696.6 -23.4 L 699.3 -24.7 M 699.3 -24.7 L 702.3 -24.7 M 699.3 -24.7 L 702.0 -26.0 M 702.0 -26.0 L 703.9 -28.3 M 702.0 -26.0 L 704.7 -27.3 M 704.7 -27.3 L 707.7 -27.3 M 707.7 -27.3 L 710.4 -26.0 M 707.7 -27.3 L 710.7 -27.3 M 710.7 -27.3 L 713.4 -28.6 M 710.7 -27.3 L 713.7 -27.3 M 704.7 -27.3 L 707.4 -28.6 M 707.4 -28.6 L 710.4 -28.6 M 707.4 -28.6 L 710.1 -29.9 M 710.1 -29.9 L 712.0 -32.2 M 710.1 -29.9 L 712.8 -31.2 M 712.8 -31.2 L 714.7 -33.5 M 714.7 -33.5 L 717.4 -34.8 M 714.7 -33.5 L 716.6 -35.8 M 716.6 -35.8 L 717.3 -38.7 M 716.6 -35.8 L 718.5 -38.1 M 712.8 -31.2 L 715.5 -32.5 M 715.5 -32.5 L 718.5 -32.5 M 715.5 -32.5 L 718.2 -33.8 M 718.2 -33.8 L 720.1 -36.1 M 718.2 -33.8 L 720.9 -35.1 M 648.0 0.0 L 651.0 0.0 M 651.0 0.0 L 653.7 1.3 M 651.0 0.0 L 654.0 0.0 M 654.0 0.0 L 656.7 -1.3 M 654.0 0.0 L 657.0 0.0 M 657.0 0.0 L 659.7 1.3 M 659.7 1.3 L 661.6 3.6 M 659.7 1.3 L 662.4 2.6 M 662.4 2.6 L 665.4 2.6 M 662.4 2.6 L 665.1 3.9 M 657.0 0.0 L 660.0 0.0 M 660.0 0.0 L 662.7 1.3 M 660.0 0.0 L 663.0 0.0 M 663.0 0.0 L 665.7 -1.3 M 663.0 0.0 L 666.0 0.0 M 666.0 0.0 L 668.7 -1.3 M 668.7 -1.3 L 671.7 -1.3 M 668.7 -1.3 L 671.4 -2.6 M 671.4 -2.6 L 673.3 -4.9 M 671.4 -2.6 L 674.1 -3.9 M 666.0 0.0 L 669.0 0.0 M 669.0 0.0 L 671.7 1.3 M 669.0 0.0 L 672.0 0.0 M 672.0 0.0 L 674.7 -1.3 M 672.0 0.0 L 675.0 0.0 M 675.0 0.0 L 677.7 1.3 M 677.7 1.3 L 679.6 3.6 M 677.7 1.3 L 680.4 2.6 M 680.4 2.6 L 683.4 2.6 M 680.4 2.6 L 683.1 3.9 M 683.1 3.9 L 685.0 6.2 M 685.0 6.2 L 685.7 9.1 M 685.0 6.2 L 686.9 8.5 M 686.9 8.5 L 689.6 9.8 M 686.9 8.5 L 688.8 10.8 M 683.1 3.9 L 685.8 5.2 M 685.8 5.2 L 687.7 7.5 M 685.8 5.2 L 688.5 6.5 M 688.5 6.5 L 691.5 6.5 M 688.5 6.5 L 691.2 7.8 M 691.2 7.8 L 694.2 7.8 M 694.2 7.8 L 696.9 9.1 M 694.2 7.8 L 697.2 7.8 M 697.2 7.8 L 699.9 6.5 M 697.2 7.8 L 700.2 7.8 M 691.2 7.8 L 693.9 9.1 M 693.9 9.1 L 695.8 11.4 M 693.9 9.1 L 696.6 10.4 M 696.6 10.4 L 699.6 10.4 M 696.6 10.4 L 699.3 11.7 M 675.0 0.0 L 678.0 0.0 M 678.0 0.0 L 680.7 1.3 M 678.0 0.0 L 681.0 0.0 M 681.0 0.0 L 683.7 -1.3 M 681.0 0.0 L 684.0 0.0 M 684.0 0.0 L 686.7 1.3 M 686.7 1.3 L 688.6 3.6 M 686.7 1.3 L 689.4 2.6 M 689.4 2.6 L 692.4 2.6 M 689.4 2.6 L 692.1 3.9 M 684.0 0.0 L 687.0 0.0 M 687.0 0.0 L 689.7 1.3 M 687.0 0.0 L 690.0 0.0 M 690.0 0.0 L 692.7 -1.3 M 690.0 0.0 L 693.0 0.0 M 693.0 0.0 L 695.7 -1.3 M 695.7 -1.3 L 698.7 -1.3 M 695.7 -1.3 L 698.4 -2.6 M 698.4 -2.6 L 700.3 -4.9 M 698.4 -2.6 L 701.1 -3.9 M 693.0 0.0 L 696.0 0.0 M 696.0 0.0 L 698.7 1.3 M 696.0 0.0 L 699.0 0.0 M 699.0 0.0 L 701.7 -1.3 M 699.0 0.0 L 702.0 0.0 M 702.0 0.0 L 704.7 -1.3 M 704.7 -1.3 L 707.7 -1.3 M 704.7 -1.3 L 707.4 -2.6 M 707.4 -2.6 L 709.3 -4.9 M 707.4 -2.6 L 710.1 -3.9 M 710.1 -3.9 L 713.1 -3.9 M 713.1 -3.9 L 715.8 -2.6 M 713.1 -3.9 L 716.1 -3.9 M 716.1 -3.9 L 718.8 -5.2 M 716.1 -3.9 L 719.1 -3.9 M 710.1 -3.9 L 712.8 -5.2 M 712.8 -5.2 L 715.8 -5.2 M 712.8 -5.2 L 715.5 -6.5 M 715.5 -6.5 L 717.4 -8.8 M 715.5 -6.5 L 718.2 -7.8 M 718.2 -7.8 L 720.1 -10.1 M 720.1 -10.1 L 722.8 -11.4 M 720.1 -10.1 L 722.0 -12.4 M 722.0 -12.4 L 722.7 -15.3 M 722.0 -12.4 L 723.9 -14.7 M 718.2 -7.8 L 720.9 -9.1 M 720.9 -9.1 L 723.9 -9.1 M 720.9 -9.1 L 723.6 -10.4 M 723.6 -10.4 L 725.5 -12.7 M 723.6 -10.4 L 726.3 -11.7 M 702.0 0.0 L 705.0 0.0 M 705.0 0.0 L 707.7 1.3 M 705.0 0.0 L 708.0 0.0 M 708.0 0.0 L 710.7 -1.3 M 708.0 0.0 L 711.0 0.0 M 711.0 0.0 L 713.7 1.3 M 713.7 1.3 L 715.6 3.6 M 713.7 1.3 L 716.4 2.6 M 716.4 2.6 L 719.4 2.6 M 716.4 2.6 L 719.1 3.9 M 711.0 0.0 L 714.0 0.0 M 714.0 0.0 L 716.7 1.3 M 714.0 0.0 L 717.0 0.0 M 717.0 0.0 L 719.7 -1.3 M 717.0 0.0 L 720.0 0.0 M 720.0 0.0 L 722.7 -1.3 M 722.7 -1.3 L 725.7 -1.3 M 722.7 -1.3 L 725.4 -2.6 M 725.4 -2.6 L 727.3 -4.9 M 725.4 -2.6 L 728.1 -3.9 M 720.0 0.0 L 723.0 0.0 M 723.0 0.0 L 725.7 1.3 M 723.0 0.0 L 726.0 0.0 M 726.0 0.0 L 728.7 -1.3 M 726.0 0.0 L 729.0 0.0" stroke-width="1" stroke="black" fill="none"/>
</svg>