<svg viewBox="-20 -63.2 236.0 136.4" xmlns="http://www.w3.org/2000/svg">
	<path d="M 0 0 L 48.0 0.0 M 48.0 0.0 L 69.6 10.4 M 69.6 10.4 L 77.1 19.8 M 77.1 19.8 L 78.4 25.6 M 78.4 25.6 L 77.7 28.5 M 77.7 28.5 M 77.7 28.5 M 77.7 28.5 M 77.7 28.5 L 77.0 31.4 M 78.4 25.6 M 78.4 25.6 L 80.3 27.9 M 80.3 27.9 M 80.3 27.9 M 80.3 27.9 M 80.3 27.9 L 82.2 30.2 M 78.4 25.6 L 80.4 34.4 M 80.4 34.4 M 80.4 34.4 M 80.4 34.4 M 80.4 34.4 L 81.1 37.3 M 77.1 19.8 M 77.1 19.8 L 82.5 22.4 M 82.5 22.4 L 84.4 24.7 M 84.4 24.7 M 84.4 24.7 M 84.4 24.7 M 84.4 24.7 L 86.3 27.0 M 82.5 22.4 M 82.5 22.4 L 85.5 22.4 M 85.5 22.4 M 85.5 22.4 M 85.5 22.4 M 85.5 22.4 L 88.5 22.4 M 82.5 22.4 L 90.6 26.3 M 90.6 26.3 M 90.6 26.3 M 90.6 26.3 M 90.6 26.3 L 93.3 27.6 M 77.1 19.8 L 88.3 33.9 M 88.3 33.9 L 89.0 36.8 M 89.0 36.8 M 89.0 36.8 M 89.0 36.8 M 89.0 36.8 L 89.7 39.7 M 88.3 33.9 M 88.3 33.9 L 91.0 35.2 M 91.0 35.2 M 91.0 35.2 M 91.0 35.2 M 91.0 35.2 L 93.7 36.5 M 88.3 33.9 L 93.9 40.9 M 93.9 40.9 M 93.9 40.9 M 93.9 40.9 M 93.9 40.9 L 95.8 43.2 M 69.6 10.4 M 69.6 10.4 L 81.6 10.4 M 81.6 10.4 L 87.0 13.0 M 87.0 13.0 L 88.9 15.3 M 88.9 15.3 M 88.9 15.3 M 88.9 15.3 M 88.9 15.3 L 90.8 17.6 M 87.0 13.0 M 87.0 13.0 L 90.0 13.0 M 90.0 13.0 M 90.0 13.0 M 90.0 13.0 M 90.0 13.0 L 93.0 13.0 M 87.0 13.0 L 95.1 16.9 M 95.1 16.9 M 95.1 16.9 M 95.1 16.9 M 95.1 16.9 L 97.8 18.2 M 81.6 10.4 M 81.6 10.4 L 87.0 7.8 M 87.0 7.8 L 90.0 7.8 M 90.0 7.8 M 90.0 7.8 M 90.0 7.8 M 90.0 7.8 L 93.0 7.8 M 87.0 7.8 M 87.0 7.8 L 88.9 5.5 M 88.9 5.5 M 88.9 5.5 M 88.9 5.5 M 88.9 5.5 L 90.8 3.2 M 87.0 7.8 L 95.1 3.9 M 95.1 3.9 M 95.1 3.9 M 95.1 3.9 M 95.1 3.9 L 97.8 2.6 M 81.6 10.4 L 99.6 10.4 M 99.6 10.4 L 102.3 11.7 M 102.3 11.7 M 102.3 11.7 M 102.3 11.7 M 102.3 11.7 L 105.0 13.0 M 99.6 10.4 M 99.6 10.4 L 102.3 9.1 M 102.3 9.1 M 102.3 9.1 M 102.3 9.1 M 102.3 9.1 L 105.0 7.8 M 99.6 10.4 L 108.6 10.4 M 108.6 10.4 M 108.6 10.4 M 108.6 10.4 M 108.6 10.4 L 111.6 10.4 M 69.6 10.4 L 102.0 26.0 M 102.0 26.0 L 105.7 30.7 M 105.7 30.7 L 106.4 33.6 M 106.4 33.6 M 106.4 33.6 M 106.4 33.6 M 106.4 33.6 L 107.1 36.5 M 105.7 30.7 M 105.7 30.7 L 108.4 32.0 M 108.4 32.0 M 108.4 32.0 M 108.4 32.0 M 108.4 32.0 L 111.1 33.3 M 105.7 30.7 L 111.3 37.7 M 111.3 37.7 M 111.3 37.7 M 111.3 37.7 M 111.3 37.7 L 113.2 40.0 M 102.0 26.0 M 102.0 26.0 L 108.0 26.0 M 108.0 26.0 L 110.7 27.3 M 110.7 27.3 M 110.7 27.3 M 110.7 27.3 M 110.7 27.3 L 113.4 28.6 M 108.0 26.0 M 108.0 26.0 L 110.7 24.7 M 110.7 24.7 M 110.7 24.7 M 110.7 24.7 M 110.7 24.7 L 113.4 23.4 M 108.0 26.0 L 117.0 26.0 M 117.0 26.0 M 117.0 26.0 M 117.0 26.0 M 117.0 26.0 L 120.0 26.0 M 102.0 26.0 L 118.2 33.8 M 118.2 33.8 L 120.1 36.1 M 120.1 36.1 M 120.1 36.1 M 120.1 36.1 M 120.1 36.1 L 122.0 38.4 M 118.2 33.8 M 118.2 33.8 L 121.2 33.8 M 121.2 33.8 M 121.2 33.8 M 121.2 33.8 M 121.2 33.8 L 124.2 33.8 M 118.2 33.8 L 126.3 37.7 M 126.3 37.7 M 126.3 37.7 M 126.3 37.7 M 126.3 37.7 L 129.0 39.0 M 48.0 0.0 M 48.0 0.0 L 69.6 -10.4 M 69.6 -10.4 L 81.6 -10.4 M 81.6 -10.4 L 87.0 -7.8 M 87.0 -7.8 L 88.9 -5.5 M 88.9 -5.5 M 88.9 -5.5 M 88.9 -5.5 M 88.9 -5.5 L 90.8 -3.2 M 87.0 -7.8 M 87.0 -7.8 L 90.0 -7.8 M 90.0 -7.8 M 90.0 -7.8 M 90.0 -7.8 M 90.0 -7.8 L 93.0 -7.8 M 87.0 -7.8 L 95.1 -3.9 M 95.1 -3.9 M 95.1 -3.9 M 95.1 -3.9 M 95.1 -3.9 L 97.8 -2.6 M 81.6 -10.4 M 81.6 -10.4 L 87.0 -13.0 M 87.0 -13.0 L 90.0 -13.0 M 90.0 -13.0 M 90.0 -13.0 M 90.0 -13.0 M 90.0 -13.0 L 93.0 -13.0 M 87.0 -13.0 M 87.0 -13.0 L 88.9 -15.3 M 88.9 -15.3 M 88.9 -15.3 M 88.9 -15.3 M 88.9 -15.3 L 90.8 -17.6 M 87.0 -13.0 L 95.1 -16.9 M 95.1 -16.9 M 95.1 -16.9 M 95.1 -16.9 M 95.1 -16.9 L 97.8 -18.2 M 81.6 -10.4 L 99.6 -10.4 M 99.6 -10.4 L 102.3 -9.1 M 102.3 -9.1 M 102.3 -9.1 M 102.3 -9.1 M 102.3 -9.1 L 105.0 -7.8 M 99.6 -10.4 M 99.6 -10.4 L 102.3 -11.7 M 102.3 -11.7 M 102.3 -11.7 M 102.3 -11.7 M 102.3 -11.7 L 105.0 -13.0 M 99.6 -10.4 L 108.6 -10.4 M 108.6 -10.4 M 108.6 -10.4 M 108.6 -10.4 M 108.6 -10.4 L 111.6 -10.4 M 69.6 -10.4 M 69.6 -10.4 L 77.1 -19.8 M 77.1 -19.8 L 82.5 -22.4 M 82.5 -22.4 L 85.5 -22.4 M 85.5 -22.4 M 85.5 -22.4 M 85.5 -22.4 M 85.5 -22.4 L 88.5 -22.4 M 82.5 -22.4 M 82.5 -22.4 L 84.4 -24.7 M 84.4 -24.7 M 84.4 -24.7 M 84.4 -24.7 M 84.4 -24.7 L 86.3 -27.0 M 82.5 -22.4 L 90.6 -26.3 M 90.6 -26.3 M 90.6 -26.3 M 90.6 -26.3 M 90.6 -26.3 L 93.3 -27.6 M 77.1 -19.8 M 77.1 -19.8 L 78.4 -25.6 M 78.4 -25.6 L 80.3 -27.9 M 80.3 -27.9 M 80.3 -27.9 M 80.3 -27.9 M 80.3 -27.9 L 82.2 -30.2 M 78.4 -25.6 M 78.4 -25.6 L 77.7 -28.5 M 77.7 -28.5 M 77.7 -28.5 M 77.7 -28.5 M 77.7 -28.5 L 77.0 -31.4 M 78.4 -25.6 L 80.4 -34.4 M 80.4 -34.4 M 80.4 -34.4 M 80.4 -34.4 M 80.4 -34.4 L 81.1 -37.3 M 77.1 -19.8 L 88.3 -33.9 M 88.3 -33.9 L 91.0 -35.2 M 91.0 -35.2 M 91.0 -35.2 M 91.0 -35.2 M 91.0 -35.2 L 93.7 -36.5 M 88.3 -33.9 M 88.3 -33.9 L 89.0 -36.8 M 89.0 -36.8 M 89.0 -36.8 M 89.0 -36.8 M 89.0 -36.8 L 89.7 -39.7 M 88.3 -33.9 L 93.9 -40.9 M 93.9 -40.9 M 93.9 -40.9 M 93.9 -40.9 M 93.9 -40.9 L 95.8 -43.2 M 69.6 -10.4 L 102.0 -26.0 M 102.0 -26.0 L 108.0 -26.0 M 108.0 -26.0 L 110.7 -24.7 M 110.7 -24.7 M 110.7 -24.7 M 110.7 -24.7 M 110.7 -24.7 L 113.4 -23.4 M 108.0 -26.0 M 108.0 -26.0 L 110.7 -27.3 M 110.7 -27.3 M 110.7 -27.3 M 110.7 -27.3 M 110.7 -27.3 L 113.4 -28.6 M 108.0 -26.0 L 117.0 -26.0 M 117.0 -26.0 M 117.0 -26.0 M 117.0 -26.0 M 117.0 -26.0 L 120.0 -26.0 M 102.0 -26.0 M 102.0 -26.0 L 105.7 -30.7 M 105.7 -30.7 L 108.4 -32.0 M 108.4 -32.0 M 108.4 -32.0 M 108.4 -32.0 M 108.4 -32.0 L 111.1 -33.3 M 105.7 -30.7 M 105.7 -30.7 L 106.4 -33.6 M 106.4 -33.6 M 106.4 -33.6 M 106.4 -33.6 M 106.4 -33.6 L 107.1 -36.5 M 105.7 -30.7 L 111.3 -37.7 M 111.3 -37.7 M 111.3 -37.7 M 111.3 -37.7 M 111.3 -37.7 L 113.2 -40.0 M 102.0 -26.0 L 118.2 -33.8 M 118.2 -33.8 L 121.2 -33.8 M 121.2 -33.8 M 121.2 -33.8 M 121.2 -33.8 M 121.2 -33.8 L 124.2 -33.8 M 118.2 -33.8 M 118.2 -33.8 L 120.1 -36.1 M 120.1 -36.1 M 120.1 -36.1 M 120.1 -36.1 M 120.1 -36.1 L 122.0 -38.4 M 118.2 -33.8 L 126.3 -37.7 M 126.3 -37.7 M 126.3 -37.7 M 126.3 -37.7 M 126.3 -37.7 L 129.0 -39.0 M 48.0 0.0 L 120.0 0.0 M 120.0 0.0 L 130.8 5.2 M 130.8 5.2 L 134.5 9.9 M 134.5 9.9 L 135.2 12.8 M 135.2 12.8 M 135.2 12.8 M 135.2 12.8 M 135.2 12.8 L 135.9 15.7 M 134.5 9.9 M 134.5 9.9 L 137.2 11.2 M 137.2 11.2 M 137.2 11.2 M 137.2 11.2 M 137.2 11.2 L 139.9 12.5 M 134.5 9.9 L 140.1 16.9 M 140.1 16.9 M 140.1 16.9 M 140.1 16.9 M 140.1 16.9 L 142.0 19.2 M 130.8 5.2 M 130.8 5.2 L 136.8 5.2 M 136.8 5.2 L 139.5 6.5 M 139.5 6.5 M 139.5 6.5 M 139.5 6.5 M 139.5 6.5 L 142.2 7.8 M 136.8 5.2 M 136.8 5.2 L 139.5 3.9 M 139.5 3.9 M 139.5 3.9 M 139.5 3.9 M 139.5 3.9 L 142.2 2.6 M 136.8 5.2 L 145.8 5.2 M 145.8 5.2 M 145.8 5.2 M 145.8 5.2 M 145.8 5.2 L 148.8 5.2 M 130.8 5.2 L 147.0 13.0 M 147.0 13.0 L 148.9 15.3 M 148.9 15.3 M 148.9 15.3 M 148.9 15.3 M 148.9 15.3 L 150.8 17.6 M 147.0 13.0 M 147.0 13.0 L 150.0 13.0 M 150.0 13.0 M 150.0 13.0 M 150.0 13.0 M 150.0 13.0 L 153.0 13.0 M 147.0 13.0 L 155.1 16.9 M 155.1 16.9 M 155.1 16.9 M 155.1 16.9 M 155.1 16.9 L 157.8 18.2 M 120.0 0.0 M 120.0 0.0 L 130.8 -5.2 M 130.8 -5.2 L 136.8 -5.2 M 136.8 -5.2 L 139.5 -3.9 M 139.5 -3.9 M 139.5 -3.9 M 139.5 -3.9 M 139.5 -3.9 L 142.2 -2.6 M 136.8 -5.2 M 136.8 -5.2 L 139.5 -6.5 M 139.5 -6.5 M 139.5 -6.5 M 139.5 -6.5 M 139.5 -6.5 L 142.2 -7.8 M 136.8 -5.2 L 145.8 -5.2 M 145.8 -5.2 M 145.8 -5.2 M 145.8 -5.2 M 145.8 -5.2 L 148.8 -5.2 M 130.8 -5.2 M 130.8 -5.2 L 134.5 -9.9 M 134.5 -9.9 L 137.2 -11.2 M 137.2 -11.2 M 137.2 -11.2 M 137.2 -11.2 M 137.2 -11.2 L 139.9 -12.5 M 134.5 -9.9 M 134.5 -9.9 L 135.2 -12.8 M 135.2 -12.8 M 135.2 -12.8 M 135.2 -12.8 M 135.2 -12.8 L 135.9 -15.7 M 134.5 -9.9 L 140.1 -16.9 M 140.1 -16.9 M 140.1 -16.9 M 140.1 -16.9 M 140.1 -16.9 L 142.0 -19.2 M 130.8 -5.2 L 147.0 -13.0 M 147.0 -13.0 L 150.0 -13.0 M 150.0 -13.0 M 150.0 -13.0 M 150.0 -13.0 M 150.0 -13.0 L 153.0 -13.0 M 147.0 -13.0 M 147.0 -13.0 L 148.9 -15.3 M 148.9 -15.3 M 148.9 -15.3 M 148.9 -15.3 M 148.9 -15.3 L 150.8 -17.6 M 147.0 -13.0 L 155.1 -16.9 M 155.1 -16.9 M 155.1 -16.9 M 155.1 -16.9 M 155.1 -16.9 L 157.8 -18.2 M 120.0 0.0 L 156.0 0.0 M 156.0 0.0 L 161.4 2.6 M 161.4 2.6 L 163.3 4.9 M 163.3 4.9 M 163.3 4.9 M 163.3 4.9 M 163.3 4.9 L 165.2 7.2 M 161.4 2.6 M 161.4 2.6 L 164.4 2.6 M 164.4 2.6 M 164.4 2.6 M 164.4 2.6 M 164.4 2.6 L 167.4 2.6 M 161.4 2.6 L 169.5 6.5 M 169.5 6.5 M 169.5 6.5 M 169.5 6.5 M 169.5 6.5 L 172.2 7.8 M 156.0 0.0 M 156.0 0.0 L 161.4 -2.6 M 161.4 -2.6 L 164.4 -2.6 M 164.4 -2.6 M 164.4 -2.6 M 164.4 -2.6 M 164.4 -2.6 L 167.4 -2.6 M 161.4 -2.6 M 161.4 -2.6 L 163.3 -4.9 M 163.3 -4.9 M 163.3 -4.9 M 163.3 -4.9 M 163.3 -4.9 L 165.2 -7.2 M 161.4 -2.6 L 169.5 -6.5 M 169.5 -6.5 M 169.5 -6.5 M 169.5 -6.5 M 169.5 -6.5 L 172.2 -7.8 M 156.0 0.0 L 174.0 0.0 M 174.0 0.0 L 176.7 1.3 M 176.7 1.3 M 176.7 1.3 M 176.7 1.3 M 176.7 1.3 L 179.4 2.6 M 174.0 0.0 M 174.0 0.0 L 176.7 -1.3 M 176.7 -1.3 M 176.7 -1.3 M 176.7 -1.3 M 176.7 -1.3 L 179.4 -2.6 M 174.0 0.0 L 183.0 0.0 M 183.0 0.0 M 183.0 0.0 M 183.0 0.0 M 183.0 0.0 L 186.0 0.0" stroke-width="1" stroke="black" fill="none"/>
</svg>