<svg viewBox="-105.5 -174.7 117.2 62.3" xmlns="http://www.w3.org/2000/svg">
    <path d="L 6.3 -3.0 L 13.3 -3.0 L 19.6 0.0 L 25.9 -3.0 L 32.9 -3.0 L 51.9 5.9 L 60.9 16.6 L 65.4 22.0 L 67.2 28.8 L 66.0 35.7 L 64.8 42.6 L 60.8 48.3 L 54.7 51.8 L 46.7 63.3 L 48.5 70.1 L 47.3 77.0 L 43.3 82.7 L 45.1 89.5 L 43.9 96.4 L 31.9 113.6 L 19.8 120.6 L 13.7 124.1 L 6.7 124.7 L 0.1 122.3 L -6.5 119.9 L -11.4 115.0 L -13.8 108.4 L -43.5 78.7 L -53.1 52.4 L -55.5 45.8 L -54.9 38.8 L -51.4 32.7 L -53.8 26.1 L -53.2 19.1 L -42.7 0.9 L -31.2 -7.1 L -25.5 -11.1 L -18.6 -12.3 L -11.8 -10.5 L -5.0 -8.7 L 0.4 -4.2 L 3.4 2.1 L 14.1 11.1 L 19.5 15.6 L 22.5 21.9 L 22.5 28.9 L 27.9 33.4 L 30.9 39.7 L 30.9 60.7 L 25.0 73.4 L 22.0 79.7 L 16.6 84.2 L 9.8 86.0 L 3.0 87.8 L -3.9 86.6 L -9.6 82.6 L -23.4 80.2 L -50.4 87.4" stroke-width="5" stroke="black" fill="none"/>
</svg>