<svg viewBox="-51.5 -20 111.5 112.4" xmlns="http://www.w3.org/2000/svg">
	<path d="M 0 0 L 1.5 2.6 L -1.5 2.6 L -3.0 5.2 L 3.0 5.2 L 4.5 2.6 L 7.5 2.6 L 10.5 7.8 L 7.5 7.8 L 6.0 5.2 L 4.5 7.8 L 6.0 10.4 L 4.5 13.0 L -1.5 13.0 L 0.0 10.4 L 3.0 10.4 L 1.5 7.8 L -1.5 7.8 L -3.0 10.4 L -6.0 10.4 L -4.5 7.8 L -6.0 5.2 L -9.0 10.4 L -7.5 13.0 L -4.5 13.0 L -3.0 15.6 L -6.0 15.6 L -7.5 18.2 L -1.5 18.2 L 0.0 15.6 L 3.0 15.6 L 4.5 18.2 L 1.5 18.2 L 0.0 20.8 L 6.0 20.8 L 7.5 18.2 L 6.0 15.6 L 9.0 10.4 L 10.5 13.0 L 9.0 15.6 L 12.0 15.6 L 13.5 13.0 L 16.5 13.0 L 18.0 15.6 L 15.0 15.6 L 13.5 18.2 L 19.5 18.2 L 21.0 15.6 L 24.0 15.6 L 27.0 20.8 L 24.0 20.8 L 22.5 18.2 L 21.0 20.8 L 22.5 23.4 L 25.5 23.4 L 28.5 28.6 L 25.5 28.6 L 24.0 26.0 L 22.5 28.6 L 24.0 31.2 L 22.5 33.8 L 16.5 33.8 L 18.0 31.2 L 21.0 31.2 L 19.5 28.6 L 16.5 28.6 L 15.0 26.0 L 16.5 23.4 L 18.0 26.0 L 21.0 26.0 L 18.0 20.8 L 15.0 20.8 L 13.5 23.4 L 10.5 23.4 L 12.0 20.8 L 10.5 18.2 L 7.5 23.4 L 9.0 26.0 L 12.0 26.0 L 15.0 31.2 L 12.0 31.2 L 10.5 28.6 L 9.0 31.2 L 10.5 33.8 L 9.0 36.4 L 6.0 36.4 L 7.5 33.8 L 6.0 31.2 L 3.0 36.4 L 4.5 39.0 L 3.0 41.6 L -3.0 41.6 L -1.5 39.0 L 1.5 39.0 L -0.0 36.4 L -3.0 36.4 L -4.5 39.0 L -10.5 39.0 L -9.0 36.4 L -6.0 36.4 L -7.5 33.8 L -10.5 33.8 L -12.0 31.2 L -9.0 26.0 L -7.5 28.6 L -9.0 31.2 L -6.0 31.2 L -4.5 28.6 L -1.5 28.6 L -0.0 31.2 L -3.0 31.2 L -4.5 33.8 L 1.5 33.8 L 3.0 31.2 L 1.5 28.6 L 3.0 26.0 L 4.5 28.6 L 7.5 28.6 L 4.5 23.4 L 1.5 23.4 L 0.0 26.0 L -6.0 26.0 L -4.5 23.4 L -1.5 23.4 L -3.0 20.8 L -6.0 20.8 L -7.5 23.4 L -10.5 23.4 L -9.0 20.8 L -10.5 18.2 L -13.5 23.4 L -12.0 26.0 L -13.5 28.6 L -19.5 28.6 L -18.0 26.0 L -15.0 26.0 L -16.5 23.4 L -19.5 23.4 L -21.0 20.8 L -18.0 15.6 L -16.5 18.2 L -18.0 20.8 L -15.0 20.8 L -13.5 18.2 L -15.0 15.6 L -13.5 13.0 L -12.0 15.6 L -9.0 15.6 L -12.0 10.4 L -15.0 10.4 L -16.5 13.0 L -19.5 13.0 L -18.0 10.4 L -19.5 7.8 L -22.5 13.0 L -21.0 15.6 L -22.5 18.2 L -25.5 18.2 L -24.0 15.6 L -25.5 13.0 L -28.5 18.2 L -27.0 20.8 L -24.0 20.8 L -21.0 26.0 L -24.0 26.0 L -25.5 23.4 L -27.0 26.0 L -25.5 28.6 L -22.5 28.6 L -21.0 31.2 L -24.0 31.2 L -25.5 33.8 L -19.5 33.8 L -18.0 31.2 L -15.0 31.2 L -12.0 36.4 L -15.0 36.4 L -16.5 33.8 L -18.0 36.4 L -16.5 39.0 L -18.0 41.6 L -24.0 41.6 L -22.5 39.0 L -19.5 39.0 L -21.0 36.4 L -24.0 36.4 L -25.5 39.0 L -28.5 39.0 L -27.0 36.4 L -28.5 33.8 L -31.5 39.0 L -30.0 41.6 L -27.0 41.6 L -25.5 44.2 L -28.5 44.2 L -30.0 46.8 L -24.0 46.8 L -22.5 44.2 L -19.5 44.2 L -18.0 46.8 L -21.0 46.8 L -22.5 49.4 L -16.5 49.4 L -15.0 46.8 L -16.5 44.2 L -13.5 39.0 L -12.0 41.6 L -13.5 44.2 L -10.5 44.2 L -9.0 41.6 L -6.0 41.6 L -4.5 44.2 L -7.5 44.2 L -9.0 46.8 L -3.0 46.8 L -1.5 44.2 L 1.5 44.2 L 4.5 49.4 L 1.5 49.4 L -0.0 46.8 L -1.5 49.4 L 0.0 52.0 L -1.5 54.6 L -7.5 54.6 L -6.0 52.0 L -3.0 52.0 L -4.5 49.4 L -7.5 49.4 L -9.0 52.0 L -12.0 52.0 L -10.5 49.4 L -12.0 46.8 L -15.0 52.0 L -13.5 54.6 L -10.5 54.6 L -9.0 57.2 L -12.0 57.2 L -13.5 59.8 L -7.5 59.8 L -6.0 57.2 L -3.0 57.2 L -1.5 59.8 L -4.5 59.8 L -6.0 62.4 L 0.0 62.4 L 1.5 59.8 L 0.0 57.2 L 3.0 52.0 L 4.5 54.6 L 3.0 57.2 L 6.0 57.2 L 7.5 54.6 L 6.0 52.0 L 7.5 49.4 L 9.0 52.0 L 12.0 52.0 L 9.0 46.8 L 6.0 46.8 L 4.5 44.2 L 7.5 39.0 L 9.0 41.6 L 7.5 44.2 L 10.5 44.2 L 12.0 41.6 L 10.5 39.0 L 13.5 33.8 L 15.0 36.4 L 13.5 39.0 L 16.5 39.0 L 18.0 36.4 L 21.0 36.4 L 24.0 41.6 L 21.0 41.6 L 19.5 39.0 L 18.0 41.6 L 19.5 44.2 L 18.0 46.8 L 15.0 46.8 L 16.5 44.2 L 15.0 41.6 L 12.0 46.8 L 13.5 49.4 L 16.5 49.4 L 18.0 52.0 L 15.0 52.0 L 13.5 54.6 L 19.5 54.6 L 21.0 52.0 L 19.5 49.4 L 22.5 44.2 L 24.0 46.8 L 22.5 49.4 L 25.5 49.4 L 27.0 46.8 L 30.0 46.8" stroke-width="1" stroke="black" fill="none"/>
</svg>