<svg viewBox="-62.0 -62.0 242.0 242.0" xmlns="http://www.w3.org/2000/svg">
	<path d="M 0 0 L 3.0 0.0 M 3.0 3.0 L 9.0 3.0 L 9.0 6.0 L 3.0 6.0 L 3.0 3.0 M 3.0 0.0 L 9.0 -0.0 M 9.0 -3.0 L 15.0 -3.0 L 15.0 -6.0 L 9.0 -6.0 L 9.0 -3.0 M 9.0 0.0 L 18.0 0.0 M 18.0 18.0 L 21.0 18.0 M 21.0 21.0 L 27.0 21.0 L 27.0 24.0 L 21.0 24.0 L 21.0 21.0 M 21.0 18.0 L 27.0 18.0 M 27.0 15.0 L 33.0 15.0 L 33.0 12.0 L 27.0 12.0 L 27.0 15.0 M 27.0 18.0 L 39.0 18.0 M 39.0 21.0 L 45.0 21.0 L 45.0 24.0 L 39.0 24.0 L 39.0 21.0 M 39.0 18.0 L 45.0 18.0 M 45.0 15.0 L 51.0 15.0 L 51.0 12.0 L 45.0 12.0 L 45.0 15.0 M 45.0 18.0 L 54.0 18.0 L 54.0 21.0 M 51.0 21.0 L 51.0 27.0 L 48.0 27.0 L 48.0 21.0 L 51.0 21.0 M 54.0 21.0 L 54.0 27.0 M 57.0 27.0 L 57.0 33.0 L 60.0 33.0 L 60.0 27.0 L 57.0 27.0 M 54.0 27.0 L 54.0 36.0 L 51.0 36.0 M 51.0 33.0 L 45.0 33.0 L 45.0 30.0 L 51.0 30.0 L 51.0 33.0 M 51.0 36.0 L 45.0 36.0 M 45.0 39.0 L 39.0 39.0 L 39.0 42.0 L 45.0 42.0 L 45.0 39.0 M 45.0 36.0 L 33.0 36.0 M 33.0 33.0 L 27.0 33.0 L 27.0 30.0 L 33.0 30.0 L 33.0 33.0 M 33.0 36.0 L 27.0 36.0 M 27.0 39.0 L 21.0 39.0 L 21.0 42.0 L 27.0 42.0 L 27.0 39.0 M 27.0 36.0 L 18.0 36.0 L 18.0 33.0 M 21.0 33.0 L 21.0 27.0 L 24.0 27.0 L 24.0 33.0 L 21.0 33.0 M 18.0 33.0 L 18.0 27.0 M 15.0 27.0 L 15.0 21.0 L 12.0 21.0 L 12.0 27.0 L 15.0 27.0 M 18.0 27.0 L 18.0 18.0 M 18.0 0.0 L 21.0 -0.0 M 21.0 3.0 L 27.0 3.0 L 27.0 6.0 L 21.0 6.0 L 21.0 3.0 M 21.0 0.0 L 27.0 -0.0 M 27.0 -3.0 L 33.0 -3.0 L 33.0 -6.0 L 27.0 -6.0 L 27.0 -3.0 M 27.0 0.0 L 39.0 -0.0 M 39.0 3.0 L 45.0 3.0 L 45.0 6.0 L 39.0 6.0 L 39.0 3.0 M 39.0 0.0 L 45.0 -0.0 M 45.0 -3.0 L 51.0 -3.0 L 51.0 -6.0 L 45.0 -6.0 L 45.0 -3.0 M 45.0 0.0 L 54.0 -0.0 M 54.0 -18.0 L 57.0 -18.0 M 57.0 -15.0 L 63.0 -15.0 L 63.0 -12.0 L 57.0 -12.0 L 57.0 -15.0 M 57.0 -18.0 L 63.0 -18.0 M 63.0 -21.0 L 69.0 -21.0 L 69.0 -24.0 L 63.0 -24.0 L 63.0 -21.0 M 63.0 -18.0 L 75.0 -18.0 M 75.0 -15.0 L 81.0 -15.0 L 81.0 -12.0 L 75.0 -12.0 L 75.0 -15.0 M 75.0 -18.0 L 81.0 -18.0 M 81.0 -21.0 L 87.0 -21.0 L 87.0 -24.0 L 81.0 -24.0 L 81.0 -21.0 M 81.0 -18.0 L 90.0 -18.0 L 90.0 -21.0 M 93.0 -21.0 L 93.0 -27.0 L 96.0 -27.0 L 96.0 -21.0 L 93.0 -21.0 M 90.0 -21.0 L 90.0 -27.0 M 87.0 -27.0 L 87.0 -33.0 L 84.0 -33.0 L 84.0 -27.0 L 87.0 -27.0 M 90.0 -27.0 L 90.0 -36.0 L 87.0 -36.0 M 87.0 -39.0 L 81.0 -39.0 L 81.0 -42.0 L 87.0 -42.0 L 87.0 -39.0 M 87.0 -36.0 L 81.0 -36.0 M 81.0 -33.0 L 75.0 -33.0 L 75.0 -30.0 L 81.0 -30.0 L 81.0 -33.0 M 81.0 -36.0 L 69.0 -36.0 M 69.0 -39.0 L 63.0 -39.0 L 63.0 -42.0 L 69.0 -42.0 L 69.0 -39.0 M 69.0 -36.0 L 63.0 -36.0 M 63.0 -33.0 L 57.0 -33.0 L 57.0 -30.0 L 63.0 -30.0 L 63.0 -33.0 M 63.0 -36.0 L 54.0 -36.0 L 54.0 -33.0 M 51.0 -33.0 L 51.0 -27.0 L 48.0 -27.0 L 48.0 -33.0 L 51.0 -33.0 M 54.0 -33.0 L 54.0 -27.0 M 57.0 -27.0 L 57.0 -21.0 L 60.0 -21.0 L 60.0 -27.0 L 57.0 -27.0 M 54.0 -27.0 L 54.0 -18.0 M 54.0 0.0 L 57.0 0.0 M 57.0 3.0 L 63.0 3.0 L 63.0 6.0 L 57.0 6.0 L 57.0 3.0 M 57.0 0.0 L 63.0 -0.0 M 63.0 -3.0 L 69.0 -3.0 L 69.0 -6.0 L 63.0 -6.0 L 63.0 -3.0 M 63.0 0.0 L 75.0 0.0 M 75.0 3.0 L 81.0 3.0 L 81.0 6.0 L 75.0 6.0 L 75.0 3.0 M 75.0 0.0 L 81.0 -0.0 M 81.0 -3.0 L 87.0 -3.0 L 87.0 -6.0 L 81.0 -6.0 L 81.0 -3.0 M 81.0 0.0 L 93.0 0.0 M 93.0 3.0 L 99.0 3.0 L 99.0 6.0 L 93.0 6.0 L 93.0 3.0 M 93.0 0.0 L 99.0 -0.0 M 99.0 -3.0 L 105.0 -3.0 L 105.0 -6.0 L 99.0 -6.0 L 99.0 -3.0 M 99.0 0.0 L 108.0 0.0 L 108.0 3.0 M 105.0 3.0 L 105.0 9.0 L 102.0 9.0 L 102.0 3.0 L 105.0 3.0 M 108.0 3.0 L 108.0 9.0 M 111.0 9.0 L 111.0 15.0 L 114.0 15.0 L 114.0 9.0 L 111.0 9.0 M 108.0 9.0 L 108.0 18.0 M 90.0 18.0 L 90.0 21.0 M 87.0 21.0 L 87.0 27.0 L 84.0 27.0 L 84.0 21.0 L 87.0 21.0 M 90.0 21.0 L 90.0 27.0 M 93.0 27.0 L 93.0 33.0 L 96.0 33.0 L 96.0 27.0 L 93.0 27.0 M 90.0 27.0 L 90.0 39.0 M 87.0 39.0 L 87.0 45.0 L 84.0 45.0 L 84.0 39.0 L 87.0 39.0 M 90.0 39.0 L 90.0 45.0 M 93.0 45.0 L 93.0 51.0 L 96.0 51.0 L 96.0 45.0 L 93.0 45.0 M 90.0 45.0 L 90.0 54.0 L 87.0 54.0 M 87.0 51.0 L 81.0 51.0 L 81.0 48.0 L 87.0 48.0 L 87.0 51.0 M 87.0 54.0 L 81.0 54.0 M 81.0 57.0 L 75.0 57.0 L 75.0 60.0 L 81.0 60.0 L 81.0 57.0 M 81.0 54.0 L 72.0 54.0 L 72.0 51.0 M 75.0 51.0 L 75.0 45.0 L 78.0 45.0 L 78.0 51.0 L 75.0 51.0 M 72.0 51.0 L 72.0 45.0 M 69.0 45.0 L 69.0 39.0 L 66.0 39.0 L 66.0 45.0 L 69.0 45.0 M 72.0 45.0 L 72.0 33.0 M 75.0 33.0 L 75.0 27.0 L 78.0 27.0 L 78.0 33.0 L 75.0 33.0 M 72.0 33.0 L 72.0 27.0 M 69.0 27.0 L 69.0 21.0 L 66.0 21.0 L 66.0 27.0 L 69.0 27.0 M 72.0 27.0 L 72.0 18.0 L 75.0 18.0 M 75.0 21.0 L 81.0 21.0 L 81.0 24.0 L 75.0 24.0 L 75.0 21.0 M 75.0 18.0 L 81.0 18.0 M 81.0 15.0 L 87.0 15.0 L 87.0 12.0 L 81.0 12.0 L 81.0 15.0 M 81.0 18.0 L 90.0 18.0 M 108.0 18.0 L 108.0 21.0 M 105.0 21.0 L 105.0 27.0 L 102.0 27.0 L 102.0 21.0 L 105.0 21.0 M 108.0 21.0 L 108.0 27.0 M 111.0 27.0 L 111.0 33.0 L 114.0 33.0 L 114.0 27.0 L 111.0 27.0 M 108.0 27.0 L 108.0 39.0 M 105.0 39.0 L 105.0 45.0 L 102.0 45.0 L 102.0 39.0 L 105.0 39.0 M 108.0 39.0 L 108.0 45.0 M 111.0 45.0 L 111.0 51.0 L 114.0 51.0 L 114.0 45.0 L 111.0 45.0 M 108.0 45.0 L 108.0 54.0 M 126.0 54.0 L 126.0 57.0 M 123.0 57.0 L 123.0 63.0 L 120.0 63.0 L 120.0 57.0 L 123.0 57.0 M 126.0 57.0 L 126.0 63.0 M 129.0 63.0 L 129.0 69.0 L 132.0 69.0 L 132.0 63.0 L 129.0 63.0 M 126.0 63.0 L 126.0 75.0 M 123.0 75.0 L 123.0 81.0 L 120.0 81.0 L 120.0 75.0 L 123.0 75.0 M 126.0 75.0 L 126.0 81.0 M 129.0 81.0 L 129.0 87.0 L 132.0 87.0 L 132.0 81.0 L 129.0 81.0 M 126.0 81.0 L 126.0 90.0 L 129.0 90.0 M 129.0 93.0 L 135.0 93.0 L 135.0 96.0 L 129.0 96.0 L 129.0 93.0 M 129.0 90.0 L 135.0 90.0 M 135.0 87.0 L 141.0 87.0 L 141.0 84.0 L 135.0 84.0 L 135.0 87.0 M 135.0 90.0 L 144.0 90.0 L 144.0 87.0 M 147.0 87.0 L 147.0 81.0 L 150.0 81.0 L 150.0 87.0 L 147.0 87.0 M 144.0 87.0 L 144.0 81.0 M 141.0 81.0 L 141.0 75.0 L 138.0 75.0 L 138.0 81.0 L 141.0 81.0 M 144.0 81.0 L 144.0 69.0 M 147.0 69.0 L 147.0 63.0 L 150.0 63.0 L 150.0 69.0 L 147.0 69.0 M 144.0 69.0 L 144.0 63.0 M 141.0 63.0 L 141.0 57.0 L 138.0 57.0 L 138.0 63.0 L 141.0 63.0 M 144.0 63.0 L 144.0 54.0 L 141.0 54.0 M 141.0 51.0 L 135.0 51.0 L 135.0 48.0 L 141.0 48.0 L 141.0 51.0 M 141.0 54.0 L 135.0 54.0 M 135.0 57.0 L 129.0 57.0 L 129.0 60.0 L 135.0 60.0 L 135.0 57.0 M 135.0 54.0 L 126.0 54.0 M 108.0 54.0 L 108.0 57.0 M 105.0 57.0 L 105.0 63.0 L 102.0 63.0 L 102.0 57.0 L 105.0 57.0 M 108.0 57.0 L 108.0 63.0 M 111.0 63.0 L 111.0 69.0 L 114.0 69.0 L 114.0 63.0 L 111.0 63.0 M 108.0 63.0 L 108.0 75.0 M 105.0 75.0 L 105.0 81.0 L 102.0 81.0 L 102.0 75.0 L 105.0 75.0 M 108.0 75.0 L 108.0 81.0 M 111.0 81.0 L 111.0 87.0 L 114.0 87.0 L 114.0 81.0 L 111.0 81.0 M 108.0 81.0 L 108.0 93.0 M 105.0 93.0 L 105.0 99.0 L 102.0 99.0 L 102.0 93.0 L 105.0 93.0 M 108.0 93.0 L 108.0 99.0 M 111.0 99.0 L 111.0 105.0 L 114.0 105.0 L 114.0 99.0 L 111.0 99.0 M 108.0 99.0 L 108.0 108.0 L 105.0 108.0 M 105.0 105.0 L 99.0 105.0 L 99.0 102.0 L 105.0 102.0 L 105.0 105.0 M 105.0 108.0 L 99.0 108.0 M 99.0 111.0 L 93.0 111.0 L 93.0 114.0 L 99.0 114.0 L 99.0 111.0 M 99.0 108.0 L 90.0 108.0 M 90.0 90.0 L 87.0 90.0 M 87.0 87.0 L 81.0 87.0 L 81.0 84.0 L 87.0 84.0 L 87.0 87.0 M 87.0 90.0 L 81.0 90.0 M 81.0 93.0 L 75.0 93.0 L 75.0 96.0 L 81.0 96.0 L 81.0 93.0 M 81.0 90.0 L 69.0 90.0 M 69.0 87.0 L 63.0 87.0 L 63.0 84.0 L 69.0 84.0 L 69.0 87.0 M 69.0 90.0 L 63.0 90.0 M 63.0 93.0 L 57.0 93.0 L 57.0 96.0 L 63.0 96.0 L 63.0 93.0 M 63.0 90.0 L 54.0 90.0 L 54.0 87.0 M 57.0 87.0 L 57.0 81.0 L 60.0 81.0 L 60.0 87.0 L 57.0 87.0 M 54.0 87.0 L 54.0 81.0 M 51.0 81.0 L 51.0 75.0 L 48.0 75.0 L 48.0 81.0 L 51.0 81.0 M 54.0 81.0 L 54.0 72.0 L 57.0 72.0 M 57.0 75.0 L 63.0 75.0 L 63.0 78.0 L 57.0 78.0 L 57.0 75.0 M 57.0 72.0 L 63.0 72.0 M 63.0 69.0 L 69.0 69.0 L 69.0 66.0 L 63.0 66.0 L 63.0 69.0 M 63.0 72.0 L 75.0 72.0 M 75.0 75.0 L 81.0 75.0 L 81.0 78.0 L 75.0 78.0 L 75.0 75.0 M 75.0 72.0 L 81.0 72.0 M 81.0 69.0 L 87.0 69.0 L 87.0 66.0 L 81.0 66.0 L 81.0 69.0 M 81.0 72.0 L 90.0 72.0 L 90.0 75.0 M 87.0 75.0 L 87.0 81.0 L 84.0 81.0 L 84.0 75.0 L 87.0 75.0 M 90.0 75.0 L 90.0 81.0 M 93.0 81.0 L 93.0 87.0 L 96.0 87.0 L 96.0 81.0 L 93.0 81.0 M 90.0 81.0 L 90.0 90.0 M 90.0 108.0 L 87.0 108.0 M 87.0 105.0 L 81.0 105.0 L 81.0 102.0 L 87.0 102.0 L 87.0 105.0 M 87.0 108.0 L 81.0 108.0 M 81.0 111.0 L 75.0 111.0 L 75.0 114.0 L 81.0 114.0 L 81.0 111.0 M 81.0 108.0 L 69.0 108.0 M 69.0 105.0 L 63.0 105.0 L 63.0 102.0 L 69.0 102.0 L 69.0 105.0 M 69.0 108.0 L 63.0 108.0 M 63.0 111.0 L 57.0 111.0 L 57.0 114.0 L 63.0 114.0 L 63.0 111.0 M 63.0 108.0 L 54.0 108.0 M 54.0 126.0 L 51.0 126.0 M 51.0 123.0 L 45.0 123.0 L 45.0 120.0 L 51.0 120.0 L 51.0 123.0 M 51.0 126.0 L 45.0 126.0 M 45.0 129.0 L 39.0 129.0 L 39.0 132.0 L 45.0 132.0 L 45.0 129.0 M 45.0 126.0 L 33.0 126.0 M 33.0 123.0 L 27.0 123.0 L 27.0 120.0 L 33.0 120.0 L 33.0 123.0 M 33.0 126.0 L 27.0 126.0 M 27.0 129.0 L 21.0 129.0 L 21.0 132.0 L 27.0 132.0 L 27.0 129.0 M 27.0 126.0 L 18.0 126.0 L 18.0 129.0 M 15.0 129.0 L 15.0 135.0 L 12.0 135.0 L 12.0 129.0 L 15.0 129.0 M 18.0 129.0 L 18.0 135.0 M 21.0 135.0 L 21.0 141.0 L 24.0 141.0 L 24.0 135.0 L 21.0 135.0 M 18.0 135.0 L 18.0 144.0 L 21.0 144.0 M 21.0 147.0 L 27.0 147.0 L 27.0 150.0 L 21.0 150.0 L 21.0 147.0 M 21.0 144.0 L 27.0 144.0 M 27.0 141.0 L 33.0 141.0 L 33.0 138.0 L 27.0 138.0 L 27.0 141.0 M 27.0 144.0 L 39.0 144.0 M 39.0 147.0 L 45.0 147.0 L 45.0 150.0 L 39.0 150.0 L 39.0 147.0 M 39.0 144.0 L 45.0 144.0 M 45.0 141.0 L 51.0 141.0 L 51.0 138.0 L 45.0 138.0 L 45.0 141.0 M 45.0 144.0 L 54.0 144.0 L 54.0 141.0 M 57.0 141.0 L 57.0 135.0 L 60.0 135.0 L 60.0 141.0 L 57.0 141.0 M 54.0 141.0 L 54.0 135.0 M 51.0 135.0 L 51.0 129.0 L 48.0 129.0 L 48.0 135.0 L 51.0 135.0 M 54.0 135.0 L 54.0 126.0 M 54.0 108.0 L 51.0 108.0 M 51.0 105.0 L 45.0 105.0 L 45.0 102.0 L 51.0 102.0 L 51.0 105.0 M 51.0 108.0 L 45.0 108.0 M 45.0 111.0 L 39.0 111.0 L 39.0 114.0 L 45.0 114.0 L 45.0 111.0 M 45.0 108.0 L 33.0 108.0 M 33.0 105.0 L 27.0 105.0 L 27.0 102.0 L 33.0 102.0 L 33.0 105.0 M 33.0 108.0 L 27.0 108.0 M 27.0 111.0 L 21.0 111.0 L 21.0 114.0 L 27.0 114.0 L 27.0 111.0 M 27.0 108.0 L 15.0 108.0 M 15.0 105.0 L 9.0 105.0 L 9.0 102.0 L 15.0 102.0 L 15.0 105.0 M 15.0 108.0 L 9.0 108.0 M 9.0 111.0 L 3.0 111.0 L 3.0 114.0 L 9.0 114.0 L 9.0 111.0 M 9.0 108.0 L 0.0 108.0 L -0.0 105.0 M 3.0 105.0 L 3.0 99.0 L 6.0 99.0 L 6.0 105.0 L 3.0 105.0 M 0.0 105.0 L -0.0 99.0 M -3.0 99.0 L -3.0 93.0 L -6.0 93.0 L -6.0 99.0 L -3.0 99.0 M 0.0 99.0 L -0.0 90.0 M 18.0 90.0 L 18.0 87.0 M 21.0 87.0 L 21.0 81.0 L 24.0 81.0 L 24.0 87.0 L 21.0 87.0 M 18.0 87.0 L 18.0 81.0 M 15.0 81.0 L 15.0 75.0 L 12.0 75.0 L 12.0 81.0 L 15.0 81.0 M 18.0 81.0 L 18.0 69.0 M 21.0 69.0 L 21.0 63.0 L 24.0 63.0 L 24.0 69.0 L 21.0 69.0 M 18.0 69.0 L 18.0 63.0 M 15.0 63.0 L 15.0 57.0 L 12.0 57.0 L 12.0 63.0 L 15.0 63.0 M 18.0 63.0 L 18.0 54.0 L 21.0 54.0 M 21.0 57.0 L 27.0 57.0 L 27.0 60.0 L 21.0 60.0 L 21.0 57.0 M 21.0 54.0 L 27.0 54.0 M 27.0 51.0 L 33.0 51.0 L 33.0 48.0 L 27.0 48.0 L 27.0 51.0 M 27.0 54.0 L 36.0 54.0 L 36.0 57.0 M 33.0 57.0 L 33.0 63.0 L 30.0 63.0 L 30.0 57.0 L 33.0 57.0 M 36.0 57.0 L 36.0 63.0 M 39.0 63.0 L 39.0 69.0 L 42.0 69.0 L 42.0 63.0 L 39.0 63.0 M 36.0 63.0 L 36.0 75.0 M 33.0 75.0 L 33.0 81.0 L 30.0 81.0 L 30.0 75.0 L 33.0 75.0 M 36.0 75.0 L 36.0 81.0 M 39.0 81.0 L 39.0 87.0 L 42.0 87.0 L 42.0 81.0 L 39.0 81.0 M 36.0 81.0 L 36.0 90.0 L 33.0 90.0 M 33.0 87.0 L 27.0 87.0 L 27.0 84.0 L 33.0 84.0 L 33.0 87.0 M 33.0 90.0 L 27.0 90.0 M 27.0 93.0 L 21.0 93.0 L 21.0 96.0 L 27.0 96.0 L 27.0 93.0 M 27.0 90.0 L 18.0 90.0 M 0.0 90.0 L -0.0 87.0 M 3.0 87.0 L 3.0 81.0 L 6.0 81.0 L 6.0 87.0 L 3.0 87.0 M 0.0 87.0 L 0.0 81.0 M -3.0 81.0 L -3.0 75.0 L -6.0 75.0 L -6.0 81.0 L -3.0 81.0 M 0.0 81.0 L -0.0 69.0 M 3.0 69.0 L 3.0 63.0 L 6.0 63.0 L 6.0 69.0 L 3.0 69.0 M 0.0 69.0 L 0.0 63.0 M -3.0 63.0 L -3.0 57.0 L -6.0 57.0 L -6.0 63.0 L -3.0 63.0 M 0.0 63.0 L -0.0 54.0 M -18.0 54.0 L -18.0 51.0 M -15.0 51.0 L -15.0 45.0 L -12.0 45.0 L -12.0 51.0 L -15.0 51.0 M -18.0 51.0 L -18.0 45.0 M -21.0 45.0 L -21.0 39.0 L -24.0 39.0 L -24.0 45.0 L -21.0 45.0 M -18.0 45.0 L -18.0 33.0 M -15.0 33.0 L -15.0 27.0 L -12.0 27.0 L -12.0 33.0 L -15.0 33.0 M -18.0 33.0 L -18.0 27.0 M -21.0 27.0 L -21.0 21.0 L -24.0 21.0 L -24.0 27.0 L -21.0 27.0 M -18.0 27.0 L -18.0 18.0 L -21.0 18.0 M -21.0 15.0 L -27.0 15.0 L -27.0 12.0 L -21.0 12.0 L -21.0 15.0 M -21.0 18.0 L -27.0 18.0 M -27.0 21.0 L -33.0 21.0 L -33.0 24.0 L -27.0 24.0 L -27.0 21.0 M -27.0 18.0 L -36.0 18.0 L -36.0 21.0 M -39.0 21.0 L -39.0 27.0 L -42.0 27.0 L -42.0 21.0 L -39.0 21.0 M -36.0 21.0 L -36.0 27.0 M -33.0 27.0 L -33.0 33.0 L -30.0 33.0 L -30.0 27.0 L -33.0 27.0 M -36.0 27.0 L -36.0 39.0 M -39.0 39.0 L -39.0 45.0 L -42.0 45.0 L -42.0 39.0 L -39.0 39.0 M -36.0 39.0 L -36.0 45.0 M -33.0 45.0 L -33.0 51.0 L -30.0 51.0 L -30.0 45.0 L -33.0 45.0 M -36.0 45.0 L -36.0 54.0 L -33.0 54.0 M -33.0 57.0 L -27.0 57.0 L -27.0 60.0 L -33.0 60.0 L -33.0 57.0 M -33.0 54.0 L -27.0 54.0 M -27.0 51.0 L -21.0 51.0 L -21.0 48.0 L -27.0 48.0 L -27.0 51.0 M -27.0 54.0 L -18.0 54.0 M 0.0 54.0 L -0.0 51.0 M 3.0 51.0 L 3.0 45.0 L 6.0 45.0 L 6.0 51.0 L 3.0 51.0 M 0.0 51.0 L -0.0 45.0 M -3.0 45.0 L -3.0 39.0 L -6.0 39.0 L -6.0 45.0 L -3.0 45.0 M 0.0 45.0 L -0.0 33.0 M 3.0 33.0 L 3.0 27.0 L 6.0 27.0 L 6.0 33.0 L 3.0 33.0 M 0.0 33.0 L -0.0 27.0 M -3.0 27.0 L -3.0 21.0 L -6.0 21.0 L -6.0 27.0 L -3.0 27.0 M 0.0 27.0 L -0.0 15.0 M 3.0 15.0 L 3.0 9.0 L 6.0 9.0 L 6.0 15.0 L 3.0 15.0 M 0.0 15.0 L -0.0 9.0 M -3.0 9.0 L -3.0 3.0 L -6.0 3.0 L -6.0 9.0 L -3.0 9.0 M 0.0 9.0 L -0.0 0.0" stroke-width="1" stroke="black" fill="none"/>
</svg>